<svg baseProfile="full" class="OperationalCapabilitiesBlank" height="262" version="1.1" viewBox="2 2 601 262" width="601" xmlns="http://www.w3.org/2000/svg" xmlns:ev="http://www.w3.org/2001/xml-events" xmlns:xlink="http://www.w3.org/1999/xlink"><defs><style>.OperationalCapabilitiesBlank * { shape-rendering: geometricPrecision; }
.OperationalCapabilitiesBlank text { font-family: "Segoe UI"; font-size: 8pt; }
.OperationalCapabilitiesBlank g { cursor: pointer; }
.OperationalCapabilitiesBlank g.Edge &gt; path { fill: none; stroke: rgb(0, 0, 0); }
.OperationalCapabilitiesBlank g.Box &gt; line { stroke: #000000; }
.OperationalCapabilitiesBlank g.Box &gt; rect, .OperationalCapabilitiesBlank g.Box &gt; use { fill: transparent; stroke: #000000; stroke-width: 1; }
.OperationalCapabilitiesBlank g.Box.Annotation &gt; line { stroke: none; }
.OperationalCapabilitiesBlank g.Box.Annotation &gt; rect, .OperationalCapabilitiesBlank g.Box.Annotation &gt; use { fill: none; stroke: none; }
.OperationalCapabilitiesBlank g.Box.Constraint &gt; line { stroke: #888888; }
.OperationalCapabilitiesBlank g.Box.Constraint &gt; rect, .OperationalCapabilitiesBlank g.Box.Constraint &gt; use { fill: #FFF5B5; stroke: #888888; }
.OperationalCapabilitiesBlank g.Box.Constraint &gt; text { fill: #000000; }
.OperationalCapabilitiesBlank g.Box.Note &gt; line { stroke: #FFCC66; }
.OperationalCapabilitiesBlank g.Box.Note &gt; rect, .OperationalCapabilitiesBlank g.Box.Note &gt; use { fill: #FFFFCB; stroke: #FFCC66; }
.OperationalCapabilitiesBlank g.Box.Note &gt; text { fill: #000000; }
.OperationalCapabilitiesBlank g.Box.Requirement &gt; line { stroke: #72496E; }
.OperationalCapabilitiesBlank g.Box.Requirement &gt; rect, .OperationalCapabilitiesBlank g.Box.Requirement &gt; use { fill: #D9C4D7; stroke: #72496E; }
.OperationalCapabilitiesBlank g.Box.Requirement &gt; text { fill: #000000; }
.OperationalCapabilitiesBlank g.Box.Text &gt; line { stroke: transparent; }
.OperationalCapabilitiesBlank g.Box.Text &gt; rect, .OperationalCapabilitiesBlank g.Box.Text &gt; use { stroke: transparent; }
.OperationalCapabilitiesBlank g.Edge &gt; rect { fill: none; stroke: none; }
.OperationalCapabilitiesBlank g.Circle &gt; circle { fill: #000000; stroke: none; }
.OperationalCapabilitiesBlank g.Edge &gt; path { stroke-width: 1; }
.OperationalCapabilitiesBlank g.Edge.Connector &gt; rect { fill: none; stroke: none; }
.OperationalCapabilitiesBlank g.Circle.Connector &gt; circle { fill: #B0B0B0; stroke: none; }
.OperationalCapabilitiesBlank g.Edge.Connector &gt; path { stroke: #B0B0B0; stroke-dasharray: 1; }
.OperationalCapabilitiesBlank g.Edge.Constraint &gt; rect { fill: none; stroke: none; }
.OperationalCapabilitiesBlank g.Circle.Constraint &gt; circle { fill: #000000; stroke: none; }
.OperationalCapabilitiesBlank g.Edge.Constraint &gt; path { stroke: #000000; stroke-dasharray: 1, 3; marker-end: url(#FineArrowMark_000000); stroke-linecap: round; }
.OperationalCapabilitiesBlank g.Edge.Note &gt; rect { fill: none; stroke: none; }
.OperationalCapabilitiesBlank g.Circle.Note &gt; circle { fill: #000000; stroke: none; }
.OperationalCapabilitiesBlank g.Edge.Note &gt; path { stroke: #000000; stroke-dasharray: 1, 3; }
.OperationalCapabilitiesBlank g.Edge.RequirementRelation &gt; rect { fill: none; stroke: none; }
.OperationalCapabilitiesBlank g.Circle.RequirementRelation &gt; circle { fill: #72496E; stroke: none; }
.OperationalCapabilitiesBlank g.Edge.RequirementRelation &gt; path { stroke: #72496E; stroke-width: 2; marker-end: url(#FineArrowMark_72496E); stroke-dasharray: 5; }
.OperationalCapabilitiesBlank g.Edge.RequirementRelation &gt; text { fill: #72496E; }
.OperationalCapabilitiesBlank g.Box.Entity &gt; line { stroke: #454545; }
.OperationalCapabilitiesBlank g.Box.Entity &gt; rect, .OperationalCapabilitiesBlank g.Box.Entity &gt; use { fill: url("#.EntityFillGradient"); stroke: #454545; }
.OperationalCapabilitiesBlank g.Box.Entity &gt; text { fill: #000000; }
.OperationalCapabilitiesBlank g.Box.OperationalActor &gt; line { stroke: #454545; }
.OperationalCapabilitiesBlank g.Box.OperationalActor &gt; rect, .OperationalCapabilitiesBlank g.Box.OperationalActor &gt; use { fill: url("#.OperationalActorFillGradient"); stroke: #454545; }
.OperationalCapabilitiesBlank g.Box.OperationalActor &gt; text { fill: #000000; }
.OperationalCapabilitiesBlank g.Edge.AbstractCapabilityExtend &gt; rect { fill: none; stroke: none; }
.OperationalCapabilitiesBlank g.Circle.AbstractCapabilityExtend &gt; circle { fill: #000000; stroke: none; }
.OperationalCapabilitiesBlank g.Edge.AbstractCapabilityExtend &gt; path { marker-end: url(#FineArrowMark_000000); stroke: #000000; }
.OperationalCapabilitiesBlank g.Edge.AbstractCapabilityGeneralization &gt; rect { fill: none; stroke: none; }
.OperationalCapabilitiesBlank g.Circle.AbstractCapabilityGeneralization &gt; circle { fill: #000000; stroke: none; }
.OperationalCapabilitiesBlank g.Edge.AbstractCapabilityGeneralization &gt; path { marker-end: url(#GeneralizationMark_000000); stroke: #000000; }
.OperationalCapabilitiesBlank g.Edge.AbstractCapabilityInclude &gt; rect { fill: none; stroke: none; }
.OperationalCapabilitiesBlank g.Circle.AbstractCapabilityInclude &gt; circle { fill: #000000; stroke: none; }
.OperationalCapabilitiesBlank g.Edge.AbstractCapabilityInclude &gt; path { marker-end: url(#FineArrowMark_000000); stroke: #000000; }
.OperationalCapabilitiesBlank g.Edge.CommunicationMean &gt; rect { fill: none; stroke: none; }
.OperationalCapabilitiesBlank g.Circle.CommunicationMean &gt; circle { fill: #888888; stroke: none; }
.OperationalCapabilitiesBlank g.Edge.CommunicationMean &gt; path { marker-end: url(#ArrowMark_888888); stroke: #888888; }
.OperationalCapabilitiesBlank g.Edge.EntityOperationalCapabilityInvolvement &gt; rect { fill: none; stroke: none; }
.OperationalCapabilitiesBlank g.Circle.EntityOperationalCapabilityInvolvement &gt; circle { fill: #000000; stroke: none; }
.OperationalCapabilitiesBlank g.Edge.EntityOperationalCapabilityInvolvement &gt; path { marker-end: url(#FineArrowMark_000000); stroke: #000000; }
.OperationalCapabilitiesBlank g.Box.OperationalCapability &gt; line { stroke: #454545; }
.OperationalCapabilitiesBlank g.Box.OperationalCapability &gt; rect, .OperationalCapabilitiesBlank g.Box.OperationalCapability &gt; use { fill: url("#.OperationalCapabilityFillGradient"); stroke: #454545; }
.OperationalCapabilitiesBlank g.Box.OperationalCapability &gt; text { fill: #000000; }
</style><symbol id="ErrorSymbol" viewBox="0 0 2.6458 2.6458"><path d="M 0,0 2.6458333,2.6458333 M 0,2.6458333 2.6458333,0" style="fill: none; stroke: red; stroke-width: 0.5;" /></symbol><symbol id="RequirementSymbol" style="stroke: none;" viewBox="0 0 50 50"><path d="M 12.806813,6.5702324 A 6.244379,5.8113241 0 0 1 6.5624342,12.381557 6.244379,5.8113241 0 0 1 0.31805515,6.5702324 6.244379,5.8113241 0 0 1 6.5624342,0.75890827 6.244379,5.8113241 0 0 1 12.806813,6.5702324 Z" style="fill: #431964" /><path d="m 4.3228658,5.8752475 h 2.9514721 q 0.2945581,0 0.5184223,-0.1413879 Q 8.0225155,5.5865806 8.1462299,5.3214783 8.2699443,5.056376 8.2758355,4.7029063 v 0 q 0,-0.3475786 -0.1237144,-0.6126808 Q 8.0284067,3.8251232 7.7986513,3.6837353 7.5747872,3.5364562 7.2743379,3.5364562 H 4.3228658 V 2.1873801 h 2.9927103 q 0.7246129,0 1.2724909,0.3122316 0.5478781,0.3122316 0.8483274,0.8836743 0.3063404,0.5714427 0.3063404,1.3196203 v 0 q 0,0.7540687 -0.3063404,1.3255114 Q 9.1359451,6.5998605 8.5821759,6.912092 8.0342978,7.2243236 7.3155761,7.2243236 H 4.3228658 Z M 3.7396407,2.1873801 H 5.1476285 V 10.759021 H 3.7396407 Z M 6.3906636,6.9592213 7.8516718,6.6882279 10.102096,10.759021 H 8.4113322 Z" style="fill:#ffffff;" /></symbol><symbol id="EntitySymbol" style="stroke: #000; stroke-width: 2;" viewBox="0 0 79 79"><linearGradient id="ls-blue" x1="0" x2="0" y1="0" y2="1"><stop offset="0.0" stop-color="#c3e4ff" stop-opacity="1" /><stop offset="1.0" stop-color="#98b0dd" stop-opacity="1" /></linearGradient><path d="M18 237h46v43H18z" style="fill: url(#ls-blue)" transform="translate(0 -218)" /><path d="M12 247h11v8H12z" style="fill: url(#ls-blue)" transform="translate(0 -218)" /><path d="M12 261h11v8H12z" style="fill: url(#ls-blue)" transform="translate(0 -218)" /><path d="m 41.658466,55.581913 q 0,1.062616 -0.693953,1.734883 -0.672267,0.672267 -1.734883,0.672267 h -9.498483 q -1.062615,0 -1.734883,-0.672267 -0.672267,-0.672267 -0.672267,-1.734883 V 26.457569 q 0,-1.062615 0.672267,-1.734882 0.672268,-0.672267 1.734883,-0.672267 h 9.498483 q 1.062616,0 1.734883,0.672267 0.693953,0.672267 0.693953,1.734882 z M 38.644107,55.321681 V 26.717802 h -8.305751 v 28.603879 z" style="fill:black;" /><path d="M 58.248283,57.989063 H 47.101662 V 24.05042 h 11.016505 v 2.667382 H 50.11602 v 12.664644 h 5.091614 l 0.09145,2.616665 -5.183068,0.09409 v 13.228481 h 8.132263 z" style="fill:black;" /></symbol><symbol id="OperationalActorBoxSymbol" style="stroke: #000000; stroke-width: 2;" viewBox="-10 -10 79 79"><circle cx="6.8" cy="7.75" r="5" style="fill:none;" /><path d="m 6.723408,12.783569 0.1864956,13.042426 -6.52734189,6.042591 v 0 l 6.52734189,-6.042591 6.2009764,5.95285 -6.2942242,-6.012678 -0.092832,-6.050988 6.2026382,0.033 -12.3973765,0.02992" style="fill: none;" /></symbol><symbol id="OperationalCapabilitySymbol" viewBox="0 0 50 37"><radialGradient cx="25.657873" cy="25.925144" fx="25.657873" fy="25.925144" gradientTransform="matrix(1.471657 0.01303118 -0.03846138 4.3435681 -11.744602 -94.299935)" gradientUnits="userSpaceOnUse" id="brown_oval" r="20.562483"><stop offset="0" stop-color="#ffffff" /><stop offset="1" stop-color="#d0ab84" /></radialGradient><ellipse cx="25.017874" cy="18.64205" rx="24.564632" ry="17.453819" style="fill: url(#brown_oval); stroke: #563b18; stroke-width: 1;" /><g transform="matrix(0.99781353,0,0,0.74596554,0.47471941,4.4891996)"><g style="fill: black; stroke: none;" transform="matrix(1.1032581,0,0,0.63735306,-10.659712,-9.548313)"><path d="m 22.557488,35.882454 q -2.845659,0 -4.527185,2.121309 -1.668591,2.12131 -1.668591,5.781862 0,3.647618 1.668591,5.768927 1.681526,2.12131 4.527185,2.12131 2.845659,0 4.501315,-2.12131 1.668591,-2.121309 1.668591,-5.768927 0,-3.660552 -1.668591,-5.781862 -1.655656,-2.121309 -4.501315,-2.121309 z m 0,-2.12131 q 4.061532,0 6.493277,2.729246 2.431745,2.716311 2.431745,7.295235 0,4.56599 -2.431745,7.295236 -2.431745,2.716311 -6.493277,2.716311 -4.074466,0 -6.519146,-2.716311 -2.431745,-2.716311 -2.431745,-7.295236 0,-4.578924 2.431745,-7.295235 2.44468,-2.729246 6.519146,-2.729246 z" /><path d="m 50.031033,35.597888 v 2.755115 q -1.319351,-1.228807 -2.81979,-1.836743 -1.487504,-0.607937 -3.169029,-0.607937 -3.311313,0 -5.070448,2.030766 -1.759134,2.017831 -1.759134,5.846536 0,3.815771 1.759134,5.846536 1.759135,2.017831 5.070448,2.017831 1.681525,0 3.169029,-0.607936 1.500439,-0.607936 2.81979,-1.836744 v 2.729246 q -1.371091,0.931307 -2.910334,1.39696 -1.526308,0.465654 -3.233703,0.465654 -4.384902,0 -6.907191,-2.677507 -2.522289,-2.690441 -2.522289,-7.33404 0,-4.656533 2.522289,-7.334039 2.522289,-2.690442 6.907191,-2.690442 1.733265,0 3.259573,0.465654 1.539243,0.452718 2.884464,1.37109 z" /></g></g></symbol><linearGradient id=".EntityFillGradient" x1="0%" x2="0%" y1="0%" y2="100%"><stop offset="0" stop-color="#F9F8F5" /><stop offset="1" stop-color="#DDDDC8" /></linearGradient><linearGradient id=".OperationalActorFillGradient" x1="0%" x2="0%" y1="0%" y2="100%"><stop offset="0" stop-color="#F9F8F5" /><stop offset="1" stop-color="#DDDDC8" /></linearGradient><linearGradient id=".OperationalCapabilityFillGradient" x1="0%" x2="0%" y1="0%" y2="100%"><stop offset="0" stop-color="#F9F8F5" /><stop offset="1" stop-color="#DDDDC8" /></linearGradient><marker id="FineArrowMark_000000" markerHeight="7.5" markerUnits="userSpaceOnUse" markerWidth="7.5" orient="auto" refX="7" refY="3.5"><path d="M 0.4535,0.107 7.309,3.621 0.492,7.407 0.144,7.407 6.414,3.63 0.136,0.479 Z" style="fill: #000000; stroke: #000000; stroke-width: None" /></marker><marker id="GeneralizationMark_000000" markerHeight="7.5" markerUnits="userSpaceOnUse" markerWidth="7.5" orient="auto" refX="7" refY="4"><path d="M 0.1275,7.5 7.5,3.75 0,0 Z" style="fill: #fff; stroke: #000000; stroke-width: None" /></marker></defs><rect fill="white" height="262" stroke="none" width="601" x="2" y="2" /><g class="Box OperationalCapability" id="da08ddb6-92ba-4c3b-956a-017424dbfe85"><rect class="OperationalCapability" height="93" width="97" x="12.5" y="19.5" /><text class="OperationalCapability" dominant-baseline="middle" text-anchor="middle" x="12" y="19"><tspan x="60.5" xml:space="preserve" y="65.5">Middle</tspan></text><use height="20" width="20" x="21.92857142857143" xlink:href="#OperationalCapabilitySymbol" y="55.5" /></g><g class="Box OperationalCapability" id="d3e1ce63-fad9-4eaa-8e70-959eb114cbc3"><rect class="OperationalCapability" height="47" width="87" x="476.5" y="143.5" /><text class="OperationalCapability" dominant-baseline="middle" text-anchor="middle" x="476" y="143"><tspan x="519.5" xml:space="preserve" y="166.49999999999997">Super</tspan></text><use height="20" width="20" x="483.07142857142856" xlink:href="#OperationalCapabilitySymbol" y="156.49999999999997" /></g><g class="Box OperationalCapability" id="5419c967-8d8d-44de-af9a-5144f65eb891"><rect class="OperationalCapability" height="44" width="117" x="476.5" y="210.5" /><text class="OperationalCapability" dominant-baseline="middle" text-anchor="middle" x="476" y="210"><tspan x="534.5" xml:space="preserve" y="232.0">Second Sub</tspan></text><use height="20" width="20" x="483.07142857142856" xlink:href="#OperationalCapabilitySymbol" y="222.0" /></g><g class="Box Entity" id="1477b800-8da5-4889-b112-35e2353c4675"><rect class="Entity" height="44" width="84" x="476.5" y="12.5" /><text class="Entity" dominant-baseline="middle" text-anchor="middle" x="476" y="12"><tspan x="518.0" xml:space="preserve" y="34.0">Actor</tspan></text><use height="20" width="20" x="483.0" xlink:href="#EntitySymbol" y="24.0" /></g><g class="Box Entity" id="f3577d00-01bb-405c-81c9-7bdc2dcdcdfc"><rect class="Entity" height="47" width="85" x="476.5" y="76.5" /><text class="Entity" dominant-baseline="middle" text-anchor="middle" x="476" y="76"><tspan x="518.5" xml:space="preserve" y="99.5">Entity</tspan></text><use height="20" width="20" x="482.7857142857143" xlink:href="#EntitySymbol" y="89.5" /></g><g class="Edge AbstractCapabilityInclude" id="2952e76c-e227-4075-ad73-9d5fa120ab98"><path class="Edge" d="M 109.5 81.5 129.5 81.5 129.5 169.5 466.5 169.5 466.5 174.5 476.5 174.5" style="marker-end: url(&quot;#FineArrowMark_000000&quot;)" /><rect class="AnnotationBB" height="20" width="50" x="283" y="172" /><text class="Annotation" dominant-baseline="middle" text-anchor="middle" x="283" y="172"><tspan x="308.0" xml:space="preserve" y="177.0">« i »</tspan></text></g><g class="Edge AbstractCapabilityExtend" id="7468616d-eb61-4572-bfb7-ac4c732bb316"><path class="Edge" d="M 109.5 96.5 119.5 96.5 119.5 232.5 476.5 232.5" style="marker-end: url(&quot;#FineArrowMark_000000&quot;)" /><rect class="AnnotationBB" height="17" width="54" x="281" y="235" /><text class="Annotation" dominant-baseline="middle" text-anchor="middle" x="281" y="235"><tspan x="308.0" xml:space="preserve" y="238.57142857142858">« e »</tspan></text></g><g class="Edge AbstractCapabilityGeneralization" id="3f119b35-8873-4ffb-8fac-d3fe3a9542da"><path class="Edge" d="M 109.5 65.5 139.5 65.5 139.5 158.5 476.5 158.5" style="marker-end: url(&quot;#GeneralizationMark_000000&quot;)" /></g><g class="Edge EntityOperationalCapabilityInvolvement" id="2d07b314-2162-4d29-9ff1-f16e9b503f3d"><path class="Edge" d="M 109.5 34.5 476.5 34.5" style="marker-end: url(&quot;#FineArrowMark_000000&quot;)" /><rect class="AnnotationBB" height="23" width="296" x="160" y="37" /><text class="Annotation" dominant-baseline="middle" text-anchor="middle" x="160" y="37"><tspan x="308.0" xml:space="preserve" y="43.42857142857143">[EntityOperationalCapabilityInvolvement] to Actor</tspan></text></g><g class="Edge EntityOperationalCapabilityInvolvement" id="11033438-7962-43be-9ead-c98900a7eaa5"><path class="Edge" d="M 109.5 50.5 149.5 50.5 149.5 99.5 476.5 99.5" style="marker-end: url(&quot;#FineArrowMark_000000&quot;)" /><rect class="AnnotationBB" height="23" width="297" x="159" y="102" /><text class="Annotation" dominant-baseline="middle" text-anchor="middle" x="159" y="102"><tspan x="307.5" xml:space="preserve" y="108.42857142857143">[EntityOperationalCapabilityInvolvement] to Entity</tspan></text></g></svg>
