<svg baseProfile="full" class="OperationalEntityBlank" height="67" version="1.1" viewBox="2 2 534 67" width="534" xmlns="http://www.w3.org/2000/svg" xmlns:ev="http://www.w3.org/2001/xml-events" xmlns:xlink="http://www.w3.org/1999/xlink"><defs><style>.OperationalEntityBlank * { shape-rendering: geometricPrecision; }
.OperationalEntityBlank text { font-family: "Segoe UI"; font-size: 8pt; }
.OperationalEntityBlank g { cursor: pointer; }
.OperationalEntityBlank g.Edge &gt; path { fill: none; stroke: rgb(0, 0, 0); }
.OperationalEntityBlank g.Box &gt; line { stroke: #000000; }
.OperationalEntityBlank g.Box &gt; rect, .OperationalEntityBlank g.Box &gt; use { fill: transparent; stroke: #000000; stroke-width: 1; }
.OperationalEntityBlank g.Box.Annotation &gt; line { stroke: none; }
.OperationalEntityBlank g.Box.Annotation &gt; rect, .OperationalEntityBlank g.Box.Annotation &gt; use { fill: none; stroke: none; }
.OperationalEntityBlank g.Box.Constraint &gt; line { stroke: #888888; }
.OperationalEntityBlank g.Box.Constraint &gt; rect, .OperationalEntityBlank g.Box.Constraint &gt; use { fill: #FFF5B5; stroke: #888888; }
.OperationalEntityBlank g.Box.Constraint &gt; text { fill: #000000; }
.OperationalEntityBlank g.Box.Note &gt; line { stroke: #FFCC66; }
.OperationalEntityBlank g.Box.Note &gt; rect, .OperationalEntityBlank g.Box.Note &gt; use { fill: #FFFFCB; stroke: #FFCC66; }
.OperationalEntityBlank g.Box.Note &gt; text { fill: #000000; }
.OperationalEntityBlank g.Box.Requirement &gt; line { stroke: #72496E; }
.OperationalEntityBlank g.Box.Requirement &gt; rect, .OperationalEntityBlank g.Box.Requirement &gt; use { fill: #D9C4D7; stroke: #72496E; }
.OperationalEntityBlank g.Box.Requirement &gt; text { fill: #000000; }
.OperationalEntityBlank g.Box.Text &gt; line { stroke: transparent; }
.OperationalEntityBlank g.Box.Text &gt; rect, .OperationalEntityBlank g.Box.Text &gt; use { stroke: transparent; }
.OperationalEntityBlank g.Edge &gt; rect { fill: none; stroke: none; }
.OperationalEntityBlank g.Circle &gt; circle { fill: #000000; stroke: none; }
.OperationalEntityBlank g.Edge &gt; path { stroke-width: 1; }
.OperationalEntityBlank g.Edge.Connector &gt; rect { fill: none; stroke: none; }
.OperationalEntityBlank g.Circle.Connector &gt; circle { fill: #B0B0B0; stroke: none; }
.OperationalEntityBlank g.Edge.Connector &gt; path { stroke: #B0B0B0; stroke-dasharray: 1; }
.OperationalEntityBlank g.Edge.Constraint &gt; rect { fill: none; stroke: none; }
.OperationalEntityBlank g.Circle.Constraint &gt; circle { fill: #000000; stroke: none; }
.OperationalEntityBlank g.Edge.Constraint &gt; path { stroke: #000000; stroke-dasharray: 1, 3; marker-end: url(#FineArrowMark_000000); stroke-linecap: round; }
.OperationalEntityBlank g.Edge.Note &gt; rect { fill: none; stroke: none; }
.OperationalEntityBlank g.Circle.Note &gt; circle { fill: #000000; stroke: none; }
.OperationalEntityBlank g.Edge.Note &gt; path { stroke: #000000; stroke-dasharray: 1, 3; }
.OperationalEntityBlank g.Edge.RequirementRelation &gt; rect { fill: none; stroke: none; }
.OperationalEntityBlank g.Circle.RequirementRelation &gt; circle { fill: #72496E; stroke: none; }
.OperationalEntityBlank g.Edge.RequirementRelation &gt; path { stroke: #72496E; stroke-width: 2; marker-end: url(#FineArrowMark_72496E); stroke-dasharray: 5; }
.OperationalEntityBlank g.Edge.RequirementRelation &gt; text { fill: #72496E; }
.OperationalEntityBlank g.Box.Entity &gt; line { stroke: #454545; }
.OperationalEntityBlank g.Box.Entity &gt; rect, .OperationalEntityBlank g.Box.Entity &gt; use { fill: url("#.EntityFillGradient"); stroke: #454545; }
.OperationalEntityBlank g.Box.Entity &gt; text { fill: #000000; }
.OperationalEntityBlank g.Box.OperationalActivity &gt; line { stroke: #5B4040; }
.OperationalEntityBlank g.Box.OperationalActivity &gt; rect, .OperationalEntityBlank g.Box.OperationalActivity &gt; use { fill: #F7DA74; stroke: #5B4040; }
.OperationalEntityBlank g.Box.OperationalActivity &gt; text { fill: #5B4040; }
.OperationalEntityBlank g.Box.OperationalActor &gt; line { stroke: #454545; }
.OperationalEntityBlank g.Box.OperationalActor &gt; rect, .OperationalEntityBlank g.Box.OperationalActor &gt; use { fill: url("#.OperationalActorFillGradient"); stroke: #454545; }
.OperationalEntityBlank g.Box.OperationalActor &gt; text { fill: #000000; }
.OperationalEntityBlank g.Box.Role &gt; line { stroke: #72496E; }
.OperationalEntityBlank g.Box.Role &gt; rect, .OperationalEntityBlank g.Box.Role &gt; use { fill: url("#.RoleFillGradient"); stroke: #72496E; }
.OperationalEntityBlank g.Box.Role &gt; text { fill: #000000; }
.OperationalEntityBlank g.Edge.CommunicationMean &gt; rect { fill: none; stroke: none; }
.OperationalEntityBlank g.Circle.CommunicationMean &gt; circle { fill: #454545; stroke: none; }
.OperationalEntityBlank g.Edge.CommunicationMean &gt; path { marker-end: url(#ArrowMark_454545); stroke: #454545; }
.OperationalEntityBlank g.Edge.FunctionalExchange &gt; rect { fill: none; stroke: none; }
.OperationalEntityBlank g.Circle.FunctionalExchange &gt; circle { fill: #5B4040; stroke: none; }
.OperationalEntityBlank g.Edge.FunctionalExchange &gt; path { marker-end: url(#ArrowMark_5B4040); stroke: #5B4040; }
</style><symbol id="ErrorSymbol" viewBox="0 0 2.6458 2.6458"><path d="M 0,0 2.6458333,2.6458333 M 0,2.6458333 2.6458333,0" style="fill: none; stroke: red; stroke-width: 0.5;" /></symbol><symbol id="RequirementSymbol" style="stroke: none;" viewBox="0 0 50 50"><path d="M 12.806813,6.5702324 A 6.244379,5.8113241 0 0 1 6.5624342,12.381557 6.244379,5.8113241 0 0 1 0.31805515,6.5702324 6.244379,5.8113241 0 0 1 6.5624342,0.75890827 6.244379,5.8113241 0 0 1 12.806813,6.5702324 Z" style="fill: #431964" /><path d="m 4.3228658,5.8752475 h 2.9514721 q 0.2945581,0 0.5184223,-0.1413879 Q 8.0225155,5.5865806 8.1462299,5.3214783 8.2699443,5.056376 8.2758355,4.7029063 v 0 q 0,-0.3475786 -0.1237144,-0.6126808 Q 8.0284067,3.8251232 7.7986513,3.6837353 7.5747872,3.5364562 7.2743379,3.5364562 H 4.3228658 V 2.1873801 h 2.9927103 q 0.7246129,0 1.2724909,0.3122316 0.5478781,0.3122316 0.8483274,0.8836743 0.3063404,0.5714427 0.3063404,1.3196203 v 0 q 0,0.7540687 -0.3063404,1.3255114 Q 9.1359451,6.5998605 8.5821759,6.912092 8.0342978,7.2243236 7.3155761,7.2243236 H 4.3228658 Z M 3.7396407,2.1873801 H 5.1476285 V 10.759021 H 3.7396407 Z M 6.3906636,6.9592213 7.8516718,6.6882279 10.102096,10.759021 H 8.4113322 Z" style="fill:#ffffff;" /></symbol><symbol id="EntitySymbol" style="stroke: #000; stroke-width: 2;" viewBox="0 0 79 79"><linearGradient id="ls-blue" x1="0" x2="0" y1="0" y2="1"><stop offset="0.0" stop-color="#c3e4ff" stop-opacity="1" /><stop offset="1.0" stop-color="#98b0dd" stop-opacity="1" /></linearGradient><path d="M18 237h46v43H18z" style="fill: url(#ls-blue)" transform="translate(0 -218)" /><path d="M12 247h11v8H12z" style="fill: url(#ls-blue)" transform="translate(0 -218)" /><path d="M12 261h11v8H12z" style="fill: url(#ls-blue)" transform="translate(0 -218)" /><path d="m 41.658466,55.581913 q 0,1.062616 -0.693953,1.734883 -0.672267,0.672267 -1.734883,0.672267 h -9.498483 q -1.062615,0 -1.734883,-0.672267 -0.672267,-0.672267 -0.672267,-1.734883 V 26.457569 q 0,-1.062615 0.672267,-1.734882 0.672268,-0.672267 1.734883,-0.672267 h 9.498483 q 1.062616,0 1.734883,0.672267 0.693953,0.672267 0.693953,1.734882 z M 38.644107,55.321681 V 26.717802 h -8.305751 v 28.603879 z" style="fill:black;" /><path d="M 58.248283,57.989063 H 47.101662 V 24.05042 h 11.016505 v 2.667382 H 50.11602 v 12.664644 h 5.091614 l 0.09145,2.616665 -5.183068,0.09409 v 13.228481 h 8.132263 z" style="fill:black;" /></symbol><symbol id="OperationalActivitySymbol" viewBox="0 0 79 79"><linearGradient id="green" x1="0" x2="1" y1="0" y2="0"><stop offset="0.0" stop-color="#f4901d" stop-opacity="1" /><stop offset="1.0" stop-color="white" stop-opacity="1" /></linearGradient><ellipse cx="42.2" cy="32" rx="22.5" ry="15.5" style="fill: url(#green); stroke: #000; stroke-width: 2;" /><text style="font-family: &quot;Segoe UI&quot;; font-size: 12pt; font-weight: bold; fill: black; stroke: none;" text-anchor="middle" x="42.2" y="38">OA</text></symbol><symbol id="OperationalActorBoxSymbol" style="stroke: #000000; stroke-width: 2;" viewBox="-10 -10 79 79"><circle cx="6.8" cy="7.75" r="5" style="fill:none;" /><path d="m 6.723408,12.783569 0.1864956,13.042426 -6.52734189,6.042591 v 0 l 6.52734189,-6.042591 6.2009764,5.95285 -6.2942242,-6.012678 -0.092832,-6.050988 6.2026382,0.033 -12.3973765,0.02992" style="fill: none;" /></symbol><symbol id="OperationalExchangeSymbol" viewBox="0 0 40 30"><linearGradient id="OperationalExchangeSymbol-gradient" x1="0" x2="1" y1="0" y2="1"><stop offset="0.0" stop-color="#DF943C" stop-opacity="1" /><stop offset="1.0" stop-color="#FFF1E0" stop-opacity="1" /></linearGradient><linearGradient id="OperationalExchangeSymbol-gradientreverse" x1="0" x2="1" y1="0" y2="1"><stop offset="0.0" stop-color="#FFF1E0" stop-opacity="1" /><stop offset="1.0" stop-color="#DF943C" stop-opacity="1" /></linearGradient><g style="stroke:#000;stroke-width:2;"><path d="M 36.190065,5.0377724 V 24.962228 H 26.17482 V 5.0377724 Z" style="fill: url(#OperationalExchangeSymbol-gradientreverse)" /><path d="m 14.372107,10 h 12.622435 c 0.926189,0.585267 1.836022,1.274509 2.268178,5 -0.208657,2.812473 -0.954601,4.503809 -2.273297,5 H 14.296948" style="fill: #EF8D1C" /><path d="M 3.9464908,5.0048246 V 24.995175 H 10.87518 C 12.433713,24.159139 15.158267,20.291241 15.313795,15 15.498614,11.583142 14.059659,6.6240913 10.87518,5.0048246 c -2.2179509,0 -4.5908341,0 -6.9286892,0 z" style="fill: url(#OperationalExchangeSymbol-gradient)" /></g></symbol><linearGradient id=".EntityFillGradient" x1="0%" x2="0%" y1="0%" y2="100%"><stop offset="0" stop-color="#F9F8F5" /><stop offset="1" stop-color="#DDDDC8" /></linearGradient><linearGradient id=".OperationalActorFillGradient" x1="0%" x2="0%" y1="0%" y2="100%"><stop offset="0" stop-color="#F9F8F5" /><stop offset="1" stop-color="#DDDDC8" /></linearGradient><linearGradient id=".RoleFillGradient" x1="0%" x2="0%" y1="0%" y2="100%"><stop offset="0" stop-color="#FFFFFF" /><stop offset="1" stop-color="#CBAEC8" /></linearGradient><marker id="ArrowMark_454545" markerHeight="5.5" markerUnits="userSpaceOnUse" markerWidth="5.5" orient="auto" refX="5" refY="2.5"><path d="M 0,0 5,2.5 0,5" style="fill: #454545; stroke: #454545; stroke-width: None" /></marker></defs><rect fill="white" height="67" stroke="none" width="534" x="2" y="2" /><g class="Box Entity" id="e37510b9-3166-4f80-a919-dfaac9b696c7"><rect class="Entity" height="44" width="129" x="12.5" y="13.5" /><text class="Entity" dominant-baseline="middle" text-anchor="middle" x="12" y="13"><tspan x="76.5" xml:space="preserve" y="35.0">Environment</tspan></text><use height="20" width="20" x="22.214285714285715" xlink:href="#EntitySymbol" y="25.0" /></g><g class="Box Entity" id="a8c42033-fdf2-458f-bae9-1cfd1207c49f"><rect class="Entity" height="47" width="185" x="341.5" y="12.5" /><text class="Entity" dominant-baseline="middle" text-anchor="middle" x="341" y="12"><tspan x="433.5" xml:space="preserve" y="35.5">Functional Human Being</tspan></text><use height="20" width="20" x="347.7857142857143" xlink:href="#EntitySymbol" y="25.5" /></g><g class="Edge CommunicationMean" id="6638ccd2-61cc-481e-bb23-4c1b147e1dbc"><path class="Edge" d="M 141.5 35.5 341.5 35.5" style="marker-end: url(&quot;#ArrowMark_454545&quot;)" /><rect class="AnnotationBB" height="20" width="160" x="161" y="38" /><text class="Annotation" dominant-baseline="middle" text-anchor="middle" x="161" y="38"><tspan x="241.0" xml:space="preserve" y="43.0">Environmental influence</tspan></text></g></svg>
