<svg baseProfile="full" class="SystemDataFlowBlank" height="132" version="1.1" viewBox="2 2 960 132" width="960" xmlns="http://www.w3.org/2000/svg" xmlns:ev="http://www.w3.org/2001/xml-events" xmlns:xlink="http://www.w3.org/1999/xlink"><defs><style>.SystemDataFlowBlank * { shape-rendering: geometricPrecision; }
.SystemDataFlowBlank text { font-family: "Segoe UI"; font-size: 8pt; }
.SystemDataFlowBlank g { cursor: pointer; }
.SystemDataFlowBlank g.Edge &gt; path { fill: none; stroke: rgb(0, 0, 0); }
.SystemDataFlowBlank g.Box &gt; line { stroke: #000000; }
.SystemDataFlowBlank g.Box &gt; rect, .SystemDataFlowBlank g.Box &gt; use { fill: transparent; stroke: #000000; stroke-width: 1; }
.SystemDataFlowBlank g.Box.Annotation &gt; line { stroke: none; }
.SystemDataFlowBlank g.Box.Annotation &gt; rect, .SystemDataFlowBlank g.Box.Annotation &gt; use { fill: none; stroke: none; }
.SystemDataFlowBlank g.Box.Constraint &gt; line { stroke: #888888; }
.SystemDataFlowBlank g.Box.Constraint &gt; rect, .SystemDataFlowBlank g.Box.Constraint &gt; use { fill: #FFF5B5; stroke: #888888; }
.SystemDataFlowBlank g.Box.Constraint &gt; text { fill: #000000; }
.SystemDataFlowBlank g.Box.Note &gt; line { stroke: #FFCC66; }
.SystemDataFlowBlank g.Box.Note &gt; rect, .SystemDataFlowBlank g.Box.Note &gt; use { fill: #FFFFCB; stroke: #FFCC66; }
.SystemDataFlowBlank g.Box.Note &gt; text { fill: #000000; }
.SystemDataFlowBlank g.Box.Requirement &gt; line { stroke: #72496E; }
.SystemDataFlowBlank g.Box.Requirement &gt; rect, .SystemDataFlowBlank g.Box.Requirement &gt; use { fill: #D9C4D7; stroke: #72496E; }
.SystemDataFlowBlank g.Box.Requirement &gt; text { fill: #000000; }
.SystemDataFlowBlank g.Box.Text &gt; line { stroke: transparent; }
.SystemDataFlowBlank g.Box.Text &gt; rect, .SystemDataFlowBlank g.Box.Text &gt; use { stroke: transparent; }
.SystemDataFlowBlank g.Edge &gt; rect { fill: none; stroke: none; }
.SystemDataFlowBlank g.Circle &gt; circle { fill: #000000; stroke: none; }
.SystemDataFlowBlank g.Edge &gt; path { stroke-width: 1; }
.SystemDataFlowBlank g.Edge.Connector &gt; rect { fill: none; stroke: none; }
.SystemDataFlowBlank g.Circle.Connector &gt; circle { fill: #B0B0B0; stroke: none; }
.SystemDataFlowBlank g.Edge.Connector &gt; path { stroke: #B0B0B0; stroke-dasharray: 1; }
.SystemDataFlowBlank g.Edge.Constraint &gt; rect { fill: none; stroke: none; }
.SystemDataFlowBlank g.Circle.Constraint &gt; circle { fill: #000000; stroke: none; }
.SystemDataFlowBlank g.Edge.Constraint &gt; path { stroke: #000000; stroke-dasharray: 1, 3; marker-end: url(#FineArrowMark_000000); stroke-linecap: round; }
.SystemDataFlowBlank g.Edge.Note &gt; rect { fill: none; stroke: none; }
.SystemDataFlowBlank g.Circle.Note &gt; circle { fill: #000000; stroke: none; }
.SystemDataFlowBlank g.Edge.Note &gt; path { stroke: #000000; stroke-dasharray: 1, 3; }
.SystemDataFlowBlank g.Edge.RequirementRelation &gt; rect { fill: none; stroke: none; }
.SystemDataFlowBlank g.Circle.RequirementRelation &gt; circle { fill: #72496E; stroke: none; }
.SystemDataFlowBlank g.Edge.RequirementRelation &gt; path { stroke: #72496E; stroke-width: 2; marker-end: url(#FineArrowMark_72496E); stroke-dasharray: 5; }
.SystemDataFlowBlank g.Edge.RequirementRelation &gt; text { fill: #72496E; }
.SystemDataFlowBlank g.Box.FIP &gt; rect, .SystemDataFlowBlank g.Box.FIP &gt; use { fill: #E08503; stroke-width: 0; }
.SystemDataFlowBlank g.Box.FOP &gt; rect, .SystemDataFlowBlank g.Box.FOP &gt; use { fill: #095C2E; stroke-width: 0; }
.SystemDataFlowBlank g.Box.SystemFunction &gt; line { stroke: #4D8914; }
.SystemDataFlowBlank g.Box.SystemFunction &gt; rect, .SystemDataFlowBlank g.Box.SystemFunction &gt; use { fill: url("#.SystemFunctionFillGradient"); rx: 10px; ry: 10px; stroke: #4D8914; }
.SystemDataFlowBlank g.Box.SystemFunction &gt; text { fill: #000000; }
.SystemDataFlowBlank g.Edge.FunctionalExchange &gt; rect { fill: none; stroke: none; }
.SystemDataFlowBlank g.Circle.FunctionalExchange &gt; circle { fill: #095C2E; stroke: none; }
.SystemDataFlowBlank g.Edge.FunctionalExchange &gt; path { stroke: #095C2E; stroke-width: 2; }
.SystemDataFlowBlank g.Edge.FunctionalExchange &gt; text { fill: #095C2E; }
</style><symbol id="ErrorSymbol" viewBox="0 0 2.6458 2.6458"><path d="M 0,0 2.6458333,2.6458333 M 0,2.6458333 2.6458333,0" style="fill: none; stroke: red; stroke-width: 0.5;" /></symbol><symbol id="RequirementSymbol" style="stroke: none;" viewBox="0 0 50 50"><path d="M 12.806813,6.5702324 A 6.244379,5.8113241 0 0 1 6.5624342,12.381557 6.244379,5.8113241 0 0 1 0.31805515,6.5702324 6.244379,5.8113241 0 0 1 6.5624342,0.75890827 6.244379,5.8113241 0 0 1 12.806813,6.5702324 Z" style="fill: #431964" /><path d="m 4.3228658,5.8752475 h 2.9514721 q 0.2945581,0 0.5184223,-0.1413879 Q 8.0225155,5.5865806 8.1462299,5.3214783 8.2699443,5.056376 8.2758355,4.7029063 v 0 q 0,-0.3475786 -0.1237144,-0.6126808 Q 8.0284067,3.8251232 7.7986513,3.6837353 7.5747872,3.5364562 7.2743379,3.5364562 H 4.3228658 V 2.1873801 h 2.9927103 q 0.7246129,0 1.2724909,0.3122316 0.5478781,0.3122316 0.8483274,0.8836743 0.3063404,0.5714427 0.3063404,1.3196203 v 0 q 0,0.7540687 -0.3063404,1.3255114 Q 9.1359451,6.5998605 8.5821759,6.912092 8.0342978,7.2243236 7.3155761,7.2243236 H 4.3228658 Z M 3.7396407,2.1873801 H 5.1476285 V 10.759021 H 3.7396407 Z M 6.3906636,6.9592213 7.8516718,6.6882279 10.102096,10.759021 H 8.4113322 Z" style="fill:#ffffff;" /></symbol><symbol id="FunctionalExchangeSymbol" viewBox="0 0 40 30"><linearGradient id="FunctionalExchangeSymbol-gradient" x1="0" x2="1" y1="0" y2="1"><stop offset="0.0" stop-color="#4F7C45" stop-opacity="1" /><stop offset="1.0" stop-color="#BCDDB4" stop-opacity="1" /></linearGradient><linearGradient id="FunctionalExchangeSymbol-gradientreverse" x1="0" x2="1" y1="0" y2="1"><stop offset="0.0" stop-color="#BCDDB4" stop-opacity="1" /><stop offset="1.0" stop-color="#4F7C45" stop-opacity="1" /></linearGradient><g style="stroke:#000;stroke-width:2;"><path d="M 36.190065,5.0377724 V 24.962228 H 26.17482 V 5.0377724 Z" style="fill: url(#FunctionalExchangeSymbol-gradientreverse)" /><path d="m 14.372107,10 h 12.622435 c 0.926189,0.585267 1.836022,1.274509 2.268178,5 -0.208657,2.812473 -0.954601,4.503809 -2.273297,5 H 14.296948" style="fill: #61c34c" /><path d="M 3.9464908,5.0048246 V 24.995175 H 10.87518 C 12.433713,24.159139 15.158267,20.291241 15.313795,15 15.498614,11.583142 14.059659,6.6240913 10.87518,5.0048246 c -2.2179509,0 -4.5908341,0 -6.9286892,0 z" style="fill: url(#FunctionalExchangeSymbol-gradient)" /></g></symbol><symbol id="PortSymbol" viewBox="0 0 10 10"><path d="M0 0h10v10H0z" /><path d="M5 1L1 9h8z" fill="#fff" /></symbol><symbol id="SystemFunctionSymbol" viewBox="0 0 79 79"><linearGradient id="green" x1="0" x2="1" y1="0" y2="0"><stop offset="0.0" stop-color="#6CB35B" stop-opacity="1" /><stop offset="1.0" stop-color="#ffffff" stop-opacity="1" /></linearGradient><ellipse cx="42.2" cy="32" rx="22.5" ry="15.5" style="fill: url(#green); stroke: #000; stroke-width: 2;" /><text style="font-family: &quot;Segoe UI&quot;; font-size: 12pt; font-weight: bold; fill: black; stroke: none;" text-anchor="middle" x="42.2" y="38">SF</text></symbol><linearGradient id=".SystemFunctionFillGradient" x1="0%" x2="0%" y1="0%" y2="100%"><stop offset="0" stop-color="#F4FFE0" /><stop offset="1" stop-color="#C5FFA6" /></linearGradient><linearGradient id="CustomGradient_DAFDFF_C6E6FF" x1="0" x2="0" y1="0" y2="1"><stop offset="0.0" stop-color="#DAFDFF" stop-opacity="1" /><stop offset="1.0" stop-color="#C6E6FF" stop-opacity="1" /></linearGradient></defs><rect fill="white" height="132" stroke="none" width="960" x="2" y="2" /><g class="Box SystemFunction" id="a5642060-c9cc-4d49-af09-defaa3024bae"><rect class="SystemFunction" height="60" style="fill: url(&quot;#CustomGradient_DAFDFF_C6E6FF&quot;); stroke: #4A4A97" width="150" x="500.5" y="16.5" /><text class="SystemFunction" dominant-baseline="middle" text-anchor="middle" x="500" y="16"><tspan x="575.0" xml:space="preserve" y="46.0">Lost</tspan></text><use height="20" width="20" x="543.5714285714286" xlink:href="#SystemFunctionSymbol" y="36.0" /></g><g class="Box FOP" id="1249ce59-c099-40bb-afe3-27ff51e9ee8c"><use class="FOP" height="10" transform="rotate(90 647.5 46.5)" width="10" x="642.5" xlink:href="#PortSymbol" y="41.5" /></g><g class="Box FIP" id="b9ef0be8-e4b1-4588-aed7-f6e24130c5bf"><use class="FIP" height="10" transform="rotate(90 503.5 57.5)" width="10" x="498.5" xlink:href="#PortSymbol" y="52.5" /></g><g class="Box FIP" id="cadf9c0d-c0b1-4c0c-b364-68f703a605cb"><use class="FIP" height="10" transform="rotate(90 503.5 34.5)" width="10" x="498.5" xlink:href="#PortSymbol" y="29.5" /></g><g class="Box SystemFunction" id="ceffa011-7b66-4b3c-9885-8e075e312ffa"><rect class="SystemFunction" height="47" style="fill: url(&quot;#CustomGradient_DAFDFF_C6E6FF&quot;); stroke: #4A4A97" width="157" x="795.5" y="32.5" /><text class="SystemFunction" dominant-baseline="middle" text-anchor="middle" x="795" y="32"><tspan x="873.5" xml:space="preserve" y="55.5">Important Function</tspan></text><use height="20" width="20" x="802.0714285714286" xlink:href="#SystemFunctionSymbol" y="45.5" /></g><g class="Box FIP" id="28ced9df-b6f2-48a0-8bf3-81a7a5cd1b6b"><use class="FIP" height="10" transform="rotate(90 798.5 65.5)" width="10" x="793.5" xlink:href="#PortSymbol" y="60.5" /></g><g class="Box FIP" id="af361e95-9a87-4b67-8d0c-74585c1d695a"><use class="FIP" height="10" transform="rotate(90 798.5 46.5)" width="10" x="793.5" xlink:href="#PortSymbol" y="41.5" /></g><g class="Box SystemFunction" id="1c304898-b1b7-49c4-8877-5ea3c9959b6e"><rect class="SystemFunction" height="44" style="fill: url(&quot;#CustomGradient_DAFDFF_C6E6FF&quot;); stroke: #4A4A97" width="141" x="12.5" y="76.5" /><text class="SystemFunction" dominant-baseline="middle" text-anchor="middle" x="12" y="76"><tspan x="82.5" xml:space="preserve" y="98.0">Not real Batman</tspan></text><use height="20" width="20" x="18.92857142857143" xlink:href="#SystemFunctionSymbol" y="88.0" /></g><g class="Box FOP" id="31e32de6-0f67-4922-9185-66706925cff8"><use class="FOP" height="10" transform="rotate(90 150.5 98.5)" width="10" x="145.5" xlink:href="#PortSymbol" y="93.5" /></g><g class="Box SystemFunction" id="8dc62b22-c2c8-4a0a-8e69-1dc5d8e1d44d"><rect class="SystemFunction" height="44" style="fill: url(&quot;#CustomGradient_DAFDFF_C6E6FF&quot;); stroke: #4A4A97" width="104" x="49.5" y="12.5" /><text class="SystemFunction" dominant-baseline="middle" text-anchor="middle" x="49" y="12"><tspan x="101.0" xml:space="preserve" y="34.0">Gladiator</tspan></text><use height="20" width="20" x="56.0" xlink:href="#SystemFunctionSymbol" y="24.0" /></g><g class="Box FOP" id="554f4296-773b-4acb-a347-265fb16b401b"><use class="FOP" height="10" transform="rotate(90 150.5 34.5)" width="10" x="145.5" xlink:href="#PortSymbol" y="29.5" /></g><g class="Edge FunctionalExchange" id="50806c7c-0632-4055-abef-a0b77f2b9b7a"><path class="Edge" d="M 652.5 46.5 662.5 46.5 662.5 57.5 783.5 57.5 783.5 65.5 793.5 65.5" /><rect class="AnnotationBB" height="23" width="101" x="672" y="60" /><text class="Annotation" dominant-baseline="middle" text-anchor="middle" x="660.0" y="60"><tspan x="723.5" xml:space="preserve" y="66.42857142857143">[good advise]</tspan></text><use height="20" width="20" x="667.7857142857143" xlink:href="#FunctionalExchangeSymbol" y="56.42857142857143" /></g><g class="Circle FunctionalExchange" id="50806c7c-0632-4055-abef-a0b77f2b9b7a_j0"><circle cx="662.5" cy="46.5" r="5" /></g><g class="Edge FunctionalExchange" id="eff8df13-49c8-4af8-8dca-2ad3e95dcc32"><path class="Edge" d="M 652.5 46.5 793.5 46.5" /></g><g class="Edge FunctionalExchange" id="d95c20ad-aefe-44f9-bc42-a36f66b10ba9"><path class="Edge" d="M 155.5 98.5 488.5 98.5 488.5 57.5 498.5 57.5" /><rect class="AnnotationBB" height="23" width="303" x="175" y="101" /><text class="Annotation" dominant-baseline="middle" text-anchor="middle" x="163.0" y="101"><tspan x="327.5" xml:space="preserve" y="107.42857142857143">[ExchangeItem 1, ExchangeItem 2, ExchangeItem 3]</tspan></text><use height="20" width="20" x="171.07142857142858" xlink:href="#FunctionalExchangeSymbol" y="97.42857142857143" /></g><g class="Edge FunctionalExchange" id="d3b87db9-5cae-4f24-bba5-8ac19d4f2c1e"><path class="Edge" d="M 155.5 34.5 498.5 34.5" /><rect class="AnnotationBB" height="23" width="189" x="232" y="37" /><text class="Annotation" dominant-baseline="middle" text-anchor="middle" x="220.0" y="37"><tspan x="327.5" xml:space="preserve" y="43.42857142857143">[not so good advise, Example]</tspan></text><use height="20" width="20" x="228.21428571428572" xlink:href="#FunctionalExchangeSymbol" y="33.42857142857143" /></g></svg>
