<svg baseProfile="full" class="OperationalEntityBlank" font-family="'Open Sans','Segoe UI',Arial,sans-serif" font-size="10px" height="62" shape-rendering="geometricPrecision" version="1.1" viewBox="2 2 490 62" width="490" xmlns="http://www.w3.org/2000/svg" xmlns:ev="http://www.w3.org/2001/xml-events" xmlns:xlink="http://www.w3.org/1999/xlink"><defs><symbol id="EntitySymbol" stroke="#000" stroke-width="2" viewBox="0 0 79 79"><path d="M18 237h46v43H18z" fill="#a5b9c8" transform="translate(0 -218)" /><path d="M12 247h11v8H12z" fill="#a5b9c8" transform="translate(0 -218)" /><path d="M12 261h11v8H12z" fill="#a5b9c8" transform="translate(0 -218)" /><path d="m 41.658466,55.581913 q 0,1.062616 -0.693953,1.734883 -0.672267,0.672267 -1.734883,0.672267 h -9.498483 q -1.062615,0 -1.734883,-0.672267 -0.672267,-0.672267 -0.672267,-1.734883 V 26.457569 q 0,-1.062615 0.672267,-1.734882 0.672268,-0.672267 1.734883,-0.672267 h 9.498483 q 1.062616,0 1.734883,0.672267 0.693953,0.672267 0.693953,1.734882 z M 38.644107,55.321681 V 26.717802 h -8.305751 v 28.603879 z" fill="#000" /><path d="M 58.248283,57.989063 H 47.101662 V 24.05042 h 11.016505 v 2.667382 H 50.11602 v 12.664644 h 5.091614 l 0.09145,2.616665 -5.183068,0.09409 v 13.228481 h 8.132263 z" fill="#000" /></symbol><linearGradient id="CustomGradient_F9F8F5_DDDDC8" x1="0" x2="0" y1="0" y2="1"><stop offset="0.0" stop-color="#F9F8F5" stop-opacity="1" /><stop offset="1.0" stop-color="#DDDDC8" stop-opacity="1" /></linearGradient><symbol id="OperationalActorSymbol" stroke="#000" stroke-width="2" viewBox="0 0 50 50"><radialGradient cx="25.8" cy="9.965" fx="25.8" fy="9.965" gradientUnits="userSpaceOnUse" id="gray" r="8.06"><stop offset="0" stop-color="#fff" /><stop offset="1" stop-color="#9aaab9" /></radialGradient><circle cx="25.8" cy="9.965" fill="url(#gray)" r="7.445" /><path d="m 25.643608,17.4341 0.276914,19.3657 -9.691951,8.97218 v 0 l 9.691951,-8.97218 9.207354,8.838931 -9.345812,-8.927765 -0.137836,-8.984648 9.209822,0.04899 -18.407914,0.04443" fill="none" /></symbol><marker id="ArrowMark_454545" markerHeight="5.5" markerUnits="userSpaceOnUse" markerWidth="5.5" orient="auto" refX="5" refY="2.5"><path d="M 0,0 5,2.5 0,5" fill="#fff" stroke="#454545" stroke-width="1" /></marker></defs><rect fill="#fff" height="62" stroke="none" width="490" x="2" y="2" /><g class="Box Entity context-6638ccd2-61cc-481e-bb23-4c1b147e1dbc context-a8c42033-fdf2-458f-bae9-1cfd1207c49f context-e37510b9-3166-4f80-a919-dfaac9b696c7" id="e37510b9-3166-4f80-a919-dfaac9b696c7"><rect class="Entity" fill="url(&quot;#CustomGradient_F9F8F5_DDDDC8&quot;)" height="37" stroke="#454545" stroke-width="4" width="104" x="12.5" y="14.5" /><text class="Entity" dominant-baseline="middle" fill="#000000" text-anchor="middle" x="15" y="26"><tspan x="74.5" xml:space="preserve" y="32.714285714285715">Environment</tspan></text><use height="20" width="20" x="25.0" xlink:href="#EntitySymbol" y="22.714285714285715" /></g><g class="Box OperationalActor context-6638ccd2-61cc-481e-bb23-4c1b147e1dbc context-a8c42033-fdf2-458f-bae9-1cfd1207c49f context-e37510b9-3166-4f80-a919-dfaac9b696c7" id="a8c42033-fdf2-458f-bae9-1cfd1207c49f"><rect class="OperationalActor" fill="url(&quot;#CustomGradient_F9F8F5_DDDDC8&quot;)" height="42" stroke="#454545" stroke-width="1" width="166" x="315.5" y="12.5" /><text class="OperationalActor" dominant-baseline="middle" fill="#000000" text-anchor="middle" x="318" y="24"><tspan x="408.5" xml:space="preserve" y="32.85714285714286">Functional Human Being</tspan></text><use height="20" width="20" x="332.0" xlink:href="#OperationalActorSymbol" y="22.85714285714286" /></g><g class="Edge CommunicationMean context-6638ccd2-61cc-481e-bb23-4c1b147e1dbc context-a8c42033-fdf2-458f-bae9-1cfd1207c49f context-e37510b9-3166-4f80-a919-dfaac9b696c7" id="6638ccd2-61cc-481e-bb23-4c1b147e1dbc"><path class="Edge" d="M 116.5 33.5 315.5 33.5" fill="none" marker-end="url(&quot;#ArrowMark_454545&quot;)" stroke="#454545" stroke-width="1" /><text class="Annotation" dominant-baseline="middle" text-anchor="middle" x="136" y="36"><tspan x="215.5" xml:space="preserve" y="44.714285714285715">Environmental influence</tspan></text></g></svg>
