<svg baseProfile="full" class="SystemArchitectureBlank" font-family="'Open Sans','Segoe UI',Arial,sans-serif" font-size="11px" height="147" shape-rendering="geometricPrecision" version="1.1" viewBox="2 2 525 147" width="525" xmlns="http://www.w3.org/2000/svg" xmlns:ev="http://www.w3.org/2001/xml-events" xmlns:xlink="http://www.w3.org/1999/xlink"><defs><symbol id="SystemHumanActorSymbol" stroke="#000" stroke-width="2" viewBox="0 0 79 79"><use transform="matrix(0.81762456,0,0,0.81762456,-2.5207584,0.47091696)" xlink:href="#StickFigureSymbol" /></symbol><symbol id="StickFigureSymbol" stroke="#000" stroke-width="2" viewBox="362.861 210.892 75 75"><g stroke="#000" stroke-width="2.4944" transform="matrix(1.0611338,0,0,1.0611338,-24.47665,-12.241673)"><line fill="none" x1="400.362" x2="400.362" y1="232.586" y2="257.534" /><line fill="none" x1="400.83401" x2="388.423" y1="254.299" y2="275.009" /><line fill="none" x1="400.25201" x2="413.97" y1="254.46001" y2="274.987" /><line fill="none" x1="385.634" x2="415.703" y1="244.569" y2="244.49699" /><ellipse cx="400.53201" cy="223.35899" fill="none" rx="9.2180004" ry="8.5080004" /></g></symbol><linearGradient id="CustomGradient_DAFDFF_C6E6FF" x1="0" x2="0" y1="0" y2="1"><stop offset="0.0" stop-color="#DAFDFF" stop-opacity="1" /><stop offset="1.0" stop-color="#C6E6FF" stop-opacity="1" /></linearGradient><symbol id="SystemFunctionSymbol" viewBox="0 0 79 79"><linearGradient id="SF_green" x1="0" x2="1" y1="0" y2="0"><stop offset="0.0" stop-color="#6CB35B" stop-opacity="1" /><stop offset="1.0" stop-color="#ffffff" stop-opacity="1" /></linearGradient><ellipse cx="42.2" cy="32" fill="url(#SF_green)" rx="22.5" ry="15.5" stroke="#000" stroke-width="2" /><text fill="#000" font-family="'Open Sans','Segoe UI',Arial,sans-serif" font-size="16px" font-weight="bold" stroke="none" text-anchor="middle" x="42.2" y="38">SF</text></symbol><symbol id="SystemActorSymbol" viewBox="0 0 79 79"><g transform="matrix(1.4376083,0,0,1.3022512,-15.958775,-15.416201)"><path d="M 17.819891,20.041161 H 65.286364 V 64.242623 H 17.819891 Z" fill="#bdf7ff" stroke="#454647" /><path d="m 12.064948,25.832262 h 11.521155 v 6.687244 H 12.064948 Z" fill="#e3ebf8" stroke="#454647" /><path d="m 12.050427,34.529197 h 11.455007 v 6.635451 H 12.050427 Z" fill="#e3ebf8" stroke="#454647" /><g fill="#000" stroke="none" transform="matrix(0.83129224,0,0,0.89544642,8.0334318,11.729573)"><path d="m 22.506995,47.687597 v -4.602148 q 0.619881,0.563528 1.465173,1.014351 0.864077,0.450823 1.822075,0.770155 0.957998,0.300549 1.915996,0.469607 0.957999,0.169059 1.765722,0.169059 2.817642,0 4.188894,-0.939214 1.390037,-0.939214 1.390037,-2.72372 0,-0.957998 -0.469607,-1.653017 -0.450823,-0.713802 -1.277331,-1.296115 -0.826508,-0.582312 -1.953565,-1.108272 -1.108272,-0.544744 -2.385603,-1.127057 -1.371252,-0.732587 -2.554662,-1.483958 -1.183409,-0.751371 -2.06627,-1.653016 -0.864077,-0.92043 -1.371252,-2.06627 -0.488392,-1.145841 -0.488392,-2.686152 0,-1.897212 0.845293,-3.287249 0.864077,-1.40882 2.254113,-2.310466 1.408821,-0.920429 3.193327,-1.352468 1.784507,-0.450822 3.64415,-0.450822 4.226462,0 6.161243,0.957998 v 4.414305 q -2.291682,-1.653016 -5.898263,-1.653016 -0.995567,0 -1.991134,0.187842 -0.976782,0.187843 -1.765722,0.619882 -0.770155,0.432038 -1.258546,1.108272 -0.488391,0.676234 -0.488391,1.634232 0,0.901645 0.375685,1.559095 0.375686,0.65745 1.089488,1.202194 0.732587,0.544744 1.765722,1.070703 1.05192,0.507176 2.423172,1.108273 1.408821,0.732587 2.648583,1.540311 1.258547,0.807723 2.197761,1.784506 0.957998,0.976782 1.502742,2.178976 0.563528,1.18341 0.563528,2.704936 0,2.047486 -0.826508,3.456307 -0.826508,1.408821 -2.235329,2.291682 -1.390037,0.882861 -3.212112,1.277331 -1.822074,0.394469 -3.850776,0.394469 -0.676234,0 -1.671801,-0.112705 -0.976782,-0.09392 -2.009918,-0.300549 -1.033135,-0.187842 -1.953564,-0.469607 -0.92043,-0.281764 -1.483958,-0.638665 z" /><path d="M 66.819105,48.758301 H 61.916408 L 59.493237,41.90204 H 48.898904 l -2.32925,6.856261 H 41.685742 L 51.772899,21.821647 h 5.034186 z M 58.309827,38.25789 54.571756,27.513283 q -0.169058,-0.525959 -0.356901,-1.690585 h -0.07514 q -0.169059,1.070704 -0.375686,1.690585 L 50.06353,38.25789 Z" /></g></g></symbol><symbol id="FunctionalExchangeSymbol" viewBox="0 0 40 30"><linearGradient id="FunctionalExchangeSymbol-gradient" x1="0" x2="1" y1="0" y2="1"><stop offset="0.0" stop-color="#4F7C45" stop-opacity="1" /><stop offset="1.0" stop-color="#BCDDB4" stop-opacity="1" /></linearGradient><linearGradient id="FunctionalExchangeSymbol-gradientreverse" x1="0" x2="1" y1="0" y2="1"><stop offset="0.0" stop-color="#BCDDB4" stop-opacity="1" /><stop offset="1.0" stop-color="#4F7C45" stop-opacity="1" /></linearGradient><g stroke="#000" stroke-width="2"><path d="M 36.190065,5.0377724 V 24.962228 H 26.17482 V 5.0377724 Z" fill="url(#FunctionalExchangeSymbol-gradientreverse)" /><path d="m 14.372107,10 h 12.622435 c 0.926189,0.585267 1.836022,1.274509 2.268178,5 -0.208657,2.812473 -0.954601,4.503809 -2.273297,5 H 14.296948" fill="#61c34c" /><path d="M 3.9464908,5.0048246 V 24.995175 H 10.87518 C 12.433713,24.159139 15.158267,20.291241 15.313795,15 15.498614,11.583142 14.059659,6.6240913 10.87518,5.0048246 c -2.2179509,0 -4.5908341,0 -6.9286892,0 z" fill="url(#FunctionalExchangeSymbol-gradient)" /></g></symbol><symbol id="PortSymbol" viewBox="0 0 10 10"><path d="M0 0h10v10H0z" /><path d="M5 1L1 9h8z" fill="#fff" /></symbol></defs><rect fill="#fff" height="147" stroke="none" width="525" x="2" y="2" /><g class="Box SystemHumanActor context-098810d9-0325-4ae8-a111-82202c0d2016 context-1c304898-b1b7-49c4-8877-5ea3c9959b6e context-344a405e-c7e5-4367-8a9a-41d3d9a27f81 context-4a528807-d155-43b4-9e5e-533648a06217 context-77dd3442-c092-4b69-8b50-830bc1c5d584 context-7a61fcb7-aae5-4698-86de-8b0d70d8c09b context-7d863f7b-05e6-47c0-9854-ca85c2e8d4b8 context-88a1356b-781f-4208-a46a-943402611d69 context-91fd613c-4cea-4c2b-8acb-0c8c27f5f0da context-aa76e9ab-c454-416f-8c5a-52cd3f81edd2 context-d69dcf31-a7d4-40c5-8dd4-b4747aa3ece7 context-da12377b-fb70-4441-8faa-3a5c153c5de2 context-fcd266cf-e8e8-4993-89ef-956939e137d1" id="344a405e-c7e5-4367-8a9a-41d3d9a27f81"><rect class="SystemHumanActor" fill="url(&quot;#CustomGradient_DAFDFF_C6E6FF&quot;)" height="95" stroke="#4A4A97" stroke-width="1" width="145" x="357.5" y="12.5" /><text class="SystemHumanActor" dominant-baseline="middle" fill="#000000" text-anchor="middle" x="362" y="17"><tspan x="441.0" xml:space="preserve" y="28.57142857142857">Kevin Spacey</tspan></text><use height="20" width="20" x="383.76190476190476" xlink:href="#SystemHumanActorSymbol" y="18.57142857142857" /></g><g class="Box SystemFunction context-098810d9-0325-4ae8-a111-82202c0d2016 context-1c304898-b1b7-49c4-8877-5ea3c9959b6e context-344a405e-c7e5-4367-8a9a-41d3d9a27f81 context-4a528807-d155-43b4-9e5e-533648a06217 context-77dd3442-c092-4b69-8b50-830bc1c5d584 context-7a61fcb7-aae5-4698-86de-8b0d70d8c09b context-7d863f7b-05e6-47c0-9854-ca85c2e8d4b8 context-88a1356b-781f-4208-a46a-943402611d69 context-91fd613c-4cea-4c2b-8acb-0c8c27f5f0da context-aa76e9ab-c454-416f-8c5a-52cd3f81edd2 context-d69dcf31-a7d4-40c5-8dd4-b4747aa3ece7 context-da12377b-fb70-4441-8faa-3a5c153c5de2 context-fcd266cf-e8e8-4993-89ef-956939e137d1" id="098810d9-0325-4ae8-a111-82202c0d2016"><rect class="SystemFunction" fill="#C5FFA6" height="47" stroke="#095C2E" stroke-width="4" width="117" x="371.5" y="48.5" /><text class="SystemFunction" dominant-baseline="middle" text-anchor="middle" x="374" y="61"><tspan x="440.5" xml:space="preserve" y="71.28571428571429">Weird guy</tspan></text><use height="20" width="20" x="391.35714285714283" xlink:href="#SystemFunctionSymbol" y="61.28571428571429" /></g><g class="Box SystemActor context-098810d9-0325-4ae8-a111-82202c0d2016 context-1c304898-b1b7-49c4-8877-5ea3c9959b6e context-344a405e-c7e5-4367-8a9a-41d3d9a27f81 context-4a528807-d155-43b4-9e5e-533648a06217 context-77dd3442-c092-4b69-8b50-830bc1c5d584 context-7a61fcb7-aae5-4698-86de-8b0d70d8c09b context-7d863f7b-05e6-47c0-9854-ca85c2e8d4b8 context-88a1356b-781f-4208-a46a-943402611d69 context-91fd613c-4cea-4c2b-8acb-0c8c27f5f0da context-aa76e9ab-c454-416f-8c5a-52cd3f81edd2 context-d69dcf31-a7d4-40c5-8dd4-b4747aa3ece7 context-da12377b-fb70-4441-8faa-3a5c153c5de2 context-fcd266cf-e8e8-4993-89ef-956939e137d1" id="da12377b-fb70-4441-8faa-3a5c153c5de2"><rect class="SystemActor" fill="url(&quot;#CustomGradient_DAFDFF_C6E6FF&quot;)" height="88" stroke="#4A4A97" stroke-width="1" width="195" x="27.5" y="18.5" /><text class="SystemActor" dominant-baseline="middle" fill="#000000" text-anchor="middle" x="83" y="23"><tspan x="136.0" xml:space="preserve" y="33.14285714285714">Affleck</tspan></text><use height="20" width="20" x="95.9047619047619" xlink:href="#SystemActorSymbol" y="23.14285714285714" /></g><g class="Box SystemFunction context-098810d9-0325-4ae8-a111-82202c0d2016 context-1c304898-b1b7-49c4-8877-5ea3c9959b6e context-344a405e-c7e5-4367-8a9a-41d3d9a27f81 context-4a528807-d155-43b4-9e5e-533648a06217 context-77dd3442-c092-4b69-8b50-830bc1c5d584 context-7a61fcb7-aae5-4698-86de-8b0d70d8c09b context-7d863f7b-05e6-47c0-9854-ca85c2e8d4b8 context-88a1356b-781f-4208-a46a-943402611d69 context-91fd613c-4cea-4c2b-8acb-0c8c27f5f0da context-aa76e9ab-c454-416f-8c5a-52cd3f81edd2 context-d69dcf31-a7d4-40c5-8dd4-b4747aa3ece7 context-da12377b-fb70-4441-8faa-3a5c153c5de2 context-fcd266cf-e8e8-4993-89ef-956939e137d1" id="1c304898-b1b7-49c4-8877-5ea3c9959b6e"><rect class="SystemFunction" fill="#C5FFA6" height="42" stroke="#095C2E" stroke-width="1" width="167" x="41.5" y="51.5" /><text class="SystemFunction" dominant-baseline="middle" text-anchor="middle" x="44" y="64"><tspan x="135.5" xml:space="preserve" y="72.14285714285714">Not real Batman</tspan></text><use height="20" width="20" x="69.6904761904762" xlink:href="#SystemFunctionSymbol" y="62.14285714285714" /></g><g class="Edge FunctionalExchange context-098810d9-0325-4ae8-a111-82202c0d2016 context-1c304898-b1b7-49c4-8877-5ea3c9959b6e context-344a405e-c7e5-4367-8a9a-41d3d9a27f81 context-4a528807-d155-43b4-9e5e-533648a06217 context-77dd3442-c092-4b69-8b50-830bc1c5d584 context-7a61fcb7-aae5-4698-86de-8b0d70d8c09b context-7d863f7b-05e6-47c0-9854-ca85c2e8d4b8 context-88a1356b-781f-4208-a46a-943402611d69 context-91fd613c-4cea-4c2b-8acb-0c8c27f5f0da context-aa76e9ab-c454-416f-8c5a-52cd3f81edd2 context-d69dcf31-a7d4-40c5-8dd4-b4747aa3ece7 context-da12377b-fb70-4441-8faa-3a5c153c5de2 context-fcd266cf-e8e8-4993-89ef-956939e137d1" id="77dd3442-c092-4b69-8b50-830bc1c5d584"><path class="Edge" d="M 210.5 81.5 369.5 81.5" fill="none" stroke="#095C2E" stroke-width="2" /><text class="Annotation" dominant-baseline="middle" fill="#095C2E" text-anchor="middle" x="244.0" y="84"><tspan x="301.5" xml:space="preserve" y="93.42857142857143">onto</tspan></text><use height="20" width="20" x="265.1190476190476" xlink:href="#FunctionalExchangeSymbol" y="83.42857142857143" /></g><g class="Edge FunctionalExchange context-098810d9-0325-4ae8-a111-82202c0d2016 context-1c304898-b1b7-49c4-8877-5ea3c9959b6e context-344a405e-c7e5-4367-8a9a-41d3d9a27f81 context-4a528807-d155-43b4-9e5e-533648a06217 context-77dd3442-c092-4b69-8b50-830bc1c5d584 context-7a61fcb7-aae5-4698-86de-8b0d70d8c09b context-7d863f7b-05e6-47c0-9854-ca85c2e8d4b8 context-88a1356b-781f-4208-a46a-943402611d69 context-91fd613c-4cea-4c2b-8acb-0c8c27f5f0da context-aa76e9ab-c454-416f-8c5a-52cd3f81edd2 context-d69dcf31-a7d4-40c5-8dd4-b4747aa3ece7 context-da12377b-fb70-4441-8faa-3a5c153c5de2 context-fcd266cf-e8e8-4993-89ef-956939e137d1" id="d69dcf31-a7d4-40c5-8dd4-b4747aa3ece7"><path class="Edge" d="M 210.5 63.5 237.5 63.5 237.5 52.5 342.5 52.5 342.5 62.5 369.5 62.5" fill="none" stroke="#095C2E" stroke-width="2" /><text class="Annotation" dominant-baseline="middle" fill="#095C2E" text-anchor="middle" x="248.0" y="55"><tspan x="302.0" xml:space="preserve" y="64.42857142857143">mio</tspan></text><use height="20" width="20" x="268.0" xlink:href="#FunctionalExchangeSymbol" y="54.42857142857143" /></g><g class="Edge FunctionalExchange context-098810d9-0325-4ae8-a111-82202c0d2016 context-1c304898-b1b7-49c4-8877-5ea3c9959b6e context-344a405e-c7e5-4367-8a9a-41d3d9a27f81 context-4a528807-d155-43b4-9e5e-533648a06217 context-77dd3442-c092-4b69-8b50-830bc1c5d584 context-7a61fcb7-aae5-4698-86de-8b0d70d8c09b context-7d863f7b-05e6-47c0-9854-ca85c2e8d4b8 context-88a1356b-781f-4208-a46a-943402611d69 context-91fd613c-4cea-4c2b-8acb-0c8c27f5f0da context-aa76e9ab-c454-416f-8c5a-52cd3f81edd2 context-d69dcf31-a7d4-40c5-8dd4-b4747aa3ece7 context-da12377b-fb70-4441-8faa-3a5c153c5de2 context-fcd266cf-e8e8-4993-89ef-956939e137d1" id="7a61fcb7-aae5-4698-86de-8b0d70d8c09b"><path class="Edge" d="M 490.5 71.5 517.5 71.5 517.5 117.5 12.5 117.5 12.5 72.5 39.5 72.5" fill="none" stroke="#095C2E" stroke-width="2" /><text class="Annotation" dominant-baseline="middle" fill="#095C2E" text-anchor="middle" x="235.0" y="120"><tspan x="301.0" xml:space="preserve" y="131.57142857142858">pronto</tspan></text><use height="20" width="20" x="258.9047619047619" xlink:href="#FunctionalExchangeSymbol" y="121.57142857142858" /></g><g class="Box FIP context-098810d9-0325-4ae8-a111-82202c0d2016 context-1c304898-b1b7-49c4-8877-5ea3c9959b6e context-344a405e-c7e5-4367-8a9a-41d3d9a27f81 context-4a528807-d155-43b4-9e5e-533648a06217 context-77dd3442-c092-4b69-8b50-830bc1c5d584 context-7a61fcb7-aae5-4698-86de-8b0d70d8c09b context-7d863f7b-05e6-47c0-9854-ca85c2e8d4b8 context-88a1356b-781f-4208-a46a-943402611d69 context-91fd613c-4cea-4c2b-8acb-0c8c27f5f0da context-aa76e9ab-c454-416f-8c5a-52cd3f81edd2 context-d69dcf31-a7d4-40c5-8dd4-b4747aa3ece7 context-da12377b-fb70-4441-8faa-3a5c153c5de2 context-fcd266cf-e8e8-4993-89ef-956939e137d1" id="4a528807-d155-43b4-9e5e-533648a06217"><use class="FIP" fill="#E08503" height="10" stroke="#000000" stroke-width="0" transform="rotate(90 374.5 81.5)" width="10" x="369.5" xlink:href="#PortSymbol" y="76.5" /></g><g class="Box FIP context-098810d9-0325-4ae8-a111-82202c0d2016 context-1c304898-b1b7-49c4-8877-5ea3c9959b6e context-344a405e-c7e5-4367-8a9a-41d3d9a27f81 context-4a528807-d155-43b4-9e5e-533648a06217 context-77dd3442-c092-4b69-8b50-830bc1c5d584 context-7a61fcb7-aae5-4698-86de-8b0d70d8c09b context-7d863f7b-05e6-47c0-9854-ca85c2e8d4b8 context-88a1356b-781f-4208-a46a-943402611d69 context-91fd613c-4cea-4c2b-8acb-0c8c27f5f0da context-aa76e9ab-c454-416f-8c5a-52cd3f81edd2 context-d69dcf31-a7d4-40c5-8dd4-b4747aa3ece7 context-da12377b-fb70-4441-8faa-3a5c153c5de2 context-fcd266cf-e8e8-4993-89ef-956939e137d1" id="fcd266cf-e8e8-4993-89ef-956939e137d1"><use class="FIP" fill="#E08503" height="10" stroke="#000000" stroke-width="0" transform="rotate(90 374.5 62.5)" width="10" x="369.5" xlink:href="#PortSymbol" y="57.5" /></g><g class="Box FOP context-098810d9-0325-4ae8-a111-82202c0d2016 context-1c304898-b1b7-49c4-8877-5ea3c9959b6e context-344a405e-c7e5-4367-8a9a-41d3d9a27f81 context-4a528807-d155-43b4-9e5e-533648a06217 context-77dd3442-c092-4b69-8b50-830bc1c5d584 context-7a61fcb7-aae5-4698-86de-8b0d70d8c09b context-7d863f7b-05e6-47c0-9854-ca85c2e8d4b8 context-88a1356b-781f-4208-a46a-943402611d69 context-91fd613c-4cea-4c2b-8acb-0c8c27f5f0da context-aa76e9ab-c454-416f-8c5a-52cd3f81edd2 context-d69dcf31-a7d4-40c5-8dd4-b4747aa3ece7 context-da12377b-fb70-4441-8faa-3a5c153c5de2 context-fcd266cf-e8e8-4993-89ef-956939e137d1" id="88a1356b-781f-4208-a46a-943402611d69"><use class="FOP" fill="#095C2E" height="10" stroke="#000000" stroke-width="0" transform="rotate(90 485.5 71.5)" width="10" x="480.5" xlink:href="#PortSymbol" y="66.5" /></g><g class="Box FOP context-098810d9-0325-4ae8-a111-82202c0d2016 context-1c304898-b1b7-49c4-8877-5ea3c9959b6e context-344a405e-c7e5-4367-8a9a-41d3d9a27f81 context-4a528807-d155-43b4-9e5e-533648a06217 context-77dd3442-c092-4b69-8b50-830bc1c5d584 context-7a61fcb7-aae5-4698-86de-8b0d70d8c09b context-7d863f7b-05e6-47c0-9854-ca85c2e8d4b8 context-88a1356b-781f-4208-a46a-943402611d69 context-91fd613c-4cea-4c2b-8acb-0c8c27f5f0da context-aa76e9ab-c454-416f-8c5a-52cd3f81edd2 context-d69dcf31-a7d4-40c5-8dd4-b4747aa3ece7 context-da12377b-fb70-4441-8faa-3a5c153c5de2 context-fcd266cf-e8e8-4993-89ef-956939e137d1" id="91fd613c-4cea-4c2b-8acb-0c8c27f5f0da"><use class="FOP" fill="#095C2E" height="10" stroke="#000000" stroke-width="0" transform="rotate(90 205.5 81.5)" width="10" x="200.5" xlink:href="#PortSymbol" y="76.5" /></g><g class="Box FOP context-098810d9-0325-4ae8-a111-82202c0d2016 context-1c304898-b1b7-49c4-8877-5ea3c9959b6e context-344a405e-c7e5-4367-8a9a-41d3d9a27f81 context-4a528807-d155-43b4-9e5e-533648a06217 context-77dd3442-c092-4b69-8b50-830bc1c5d584 context-7a61fcb7-aae5-4698-86de-8b0d70d8c09b context-7d863f7b-05e6-47c0-9854-ca85c2e8d4b8 context-88a1356b-781f-4208-a46a-943402611d69 context-91fd613c-4cea-4c2b-8acb-0c8c27f5f0da context-aa76e9ab-c454-416f-8c5a-52cd3f81edd2 context-d69dcf31-a7d4-40c5-8dd4-b4747aa3ece7 context-da12377b-fb70-4441-8faa-3a5c153c5de2 context-fcd266cf-e8e8-4993-89ef-956939e137d1" id="7d863f7b-05e6-47c0-9854-ca85c2e8d4b8"><use class="FOP" fill="#095C2E" height="10" stroke="#000000" stroke-width="0" transform="rotate(90 205.5 63.5)" width="10" x="200.5" xlink:href="#PortSymbol" y="58.5" /></g><g class="Box FIP context-098810d9-0325-4ae8-a111-82202c0d2016 context-1c304898-b1b7-49c4-8877-5ea3c9959b6e context-344a405e-c7e5-4367-8a9a-41d3d9a27f81 context-4a528807-d155-43b4-9e5e-533648a06217 context-77dd3442-c092-4b69-8b50-830bc1c5d584 context-7a61fcb7-aae5-4698-86de-8b0d70d8c09b context-7d863f7b-05e6-47c0-9854-ca85c2e8d4b8 context-88a1356b-781f-4208-a46a-943402611d69 context-91fd613c-4cea-4c2b-8acb-0c8c27f5f0da context-aa76e9ab-c454-416f-8c5a-52cd3f81edd2 context-d69dcf31-a7d4-40c5-8dd4-b4747aa3ece7 context-da12377b-fb70-4441-8faa-3a5c153c5de2 context-fcd266cf-e8e8-4993-89ef-956939e137d1" id="aa76e9ab-c454-416f-8c5a-52cd3f81edd2"><use class="FIP" fill="#E08503" height="10" stroke="#000000" stroke-width="0" transform="rotate(90 44.5 72.5)" width="10" x="39.5" xlink:href="#PortSymbol" y="67.5" /></g></svg>
