<svg baseProfile="full" class="LogicalDataFlowBlank" height="145" version="1.1" viewBox="2 2 906 145" width="906" xmlns="http://www.w3.org/2000/svg" xmlns:ev="http://www.w3.org/2001/xml-events" xmlns:xlink="http://www.w3.org/1999/xlink"><defs><style>.LogicalDataFlowBlank * { shape-rendering: geometricPrecision; }
.LogicalDataFlowBlank text { font-family: "Segoe UI"; font-size: 8pt; }
.LogicalDataFlowBlank g { cursor: pointer; }
.LogicalDataFlowBlank g.Edge &gt; path { fill: none; stroke: rgb(0, 0, 0); }
.LogicalDataFlowBlank g.Box &gt; line { stroke: #000000; }
.LogicalDataFlowBlank g.Box &gt; rect, .LogicalDataFlowBlank g.Box &gt; use { fill: transparent; stroke: #000000; stroke-width: 1; }
.LogicalDataFlowBlank g.Box.Annotation &gt; line { stroke: none; }
.LogicalDataFlowBlank g.Box.Annotation &gt; rect, .LogicalDataFlowBlank g.Box.Annotation &gt; use { fill: none; stroke: none; }
.LogicalDataFlowBlank g.Box.Constraint &gt; line { stroke: #888888; }
.LogicalDataFlowBlank g.Box.Constraint &gt; rect, .LogicalDataFlowBlank g.Box.Constraint &gt; use { fill: #FFF5B5; stroke: #888888; }
.LogicalDataFlowBlank g.Box.Constraint &gt; text { fill: #000000; }
.LogicalDataFlowBlank g.Box.Note &gt; line { stroke: #FFCC66; }
.LogicalDataFlowBlank g.Box.Note &gt; rect, .LogicalDataFlowBlank g.Box.Note &gt; use { fill: #FFFFCB; stroke: #FFCC66; }
.LogicalDataFlowBlank g.Box.Note &gt; text { fill: #000000; }
.LogicalDataFlowBlank g.Box.Requirement &gt; line { stroke: #72496E; }
.LogicalDataFlowBlank g.Box.Requirement &gt; rect, .LogicalDataFlowBlank g.Box.Requirement &gt; use { fill: #D9C4D7; stroke: #72496E; }
.LogicalDataFlowBlank g.Box.Requirement &gt; text { fill: #000000; }
.LogicalDataFlowBlank g.Box.Text &gt; line { stroke: transparent; }
.LogicalDataFlowBlank g.Box.Text &gt; rect, .LogicalDataFlowBlank g.Box.Text &gt; use { stroke: transparent; }
.LogicalDataFlowBlank g.Edge &gt; rect { fill: none; stroke: none; }
.LogicalDataFlowBlank g.Circle &gt; circle { fill: #000000; stroke: none; }
.LogicalDataFlowBlank g.Edge &gt; path { stroke-width: 1; }
.LogicalDataFlowBlank g.Edge.Connector &gt; rect { fill: none; stroke: none; }
.LogicalDataFlowBlank g.Circle.Connector &gt; circle { fill: #B0B0B0; stroke: none; }
.LogicalDataFlowBlank g.Edge.Connector &gt; path { stroke: #B0B0B0; stroke-dasharray: 1; }
.LogicalDataFlowBlank g.Edge.Constraint &gt; rect { fill: none; stroke: none; }
.LogicalDataFlowBlank g.Circle.Constraint &gt; circle { fill: #000000; stroke: none; }
.LogicalDataFlowBlank g.Edge.Constraint &gt; path { stroke: #000000; stroke-dasharray: 1, 3; marker-end: url(#FineArrowMark_000000); stroke-linecap: round; }
.LogicalDataFlowBlank g.Edge.Note &gt; rect { fill: none; stroke: none; }
.LogicalDataFlowBlank g.Circle.Note &gt; circle { fill: #000000; stroke: none; }
.LogicalDataFlowBlank g.Edge.Note &gt; path { stroke: #000000; stroke-dasharray: 1, 3; }
.LogicalDataFlowBlank g.Edge.RequirementRelation &gt; rect { fill: none; stroke: none; }
.LogicalDataFlowBlank g.Circle.RequirementRelation &gt; circle { fill: #72496E; stroke: none; }
.LogicalDataFlowBlank g.Edge.RequirementRelation &gt; path { stroke: #72496E; stroke-width: 2; marker-end: url(#FineArrowMark_72496E); stroke-dasharray: 5; }
.LogicalDataFlowBlank g.Edge.RequirementRelation &gt; text { fill: #72496E; }
.LogicalDataFlowBlank g.Box.FIP &gt; rect, .LogicalDataFlowBlank g.Box.FIP &gt; use { fill: #E08503; stroke-width: 0; }
.LogicalDataFlowBlank g.Box.FOP &gt; rect, .LogicalDataFlowBlank g.Box.FOP &gt; use { fill: #095C2E; stroke-width: 0; }
.LogicalDataFlowBlank g.Box.LogicalFunction &gt; line { stroke: #4D8914; }
.LogicalDataFlowBlank g.Box.LogicalFunction &gt; rect, .LogicalDataFlowBlank g.Box.LogicalFunction &gt; use { fill: url("#.LogicalFunctionFillGradient"); rx: 10px; ry: 10px; stroke: #4D8914; }
.LogicalDataFlowBlank g.Box.LogicalFunction &gt; text { fill: #000000; }
.LogicalDataFlowBlank g.Edge.FunctionalExchange &gt; rect { fill: none; stroke: none; }
.LogicalDataFlowBlank g.Circle.FunctionalExchange &gt; circle { fill: #095C2E; stroke: none; }
.LogicalDataFlowBlank g.Edge.FunctionalExchange &gt; path { stroke: #095C2E; stroke-width: 2; }
.LogicalDataFlowBlank g.Edge.FunctionalExchange &gt; text { fill: #095C2E; }
</style><symbol id="ErrorSymbol" viewBox="0 0 2.6458 2.6458"><path d="M 0,0 2.6458333,2.6458333 M 0,2.6458333 2.6458333,0" style="fill: none; stroke: red; stroke-width: 0.5;" /></symbol><symbol id="RequirementSymbol" style="stroke: none;" viewBox="0 0 50 50"><path d="M 12.806813,6.5702324 A 6.244379,5.8113241 0 0 1 6.5624342,12.381557 6.244379,5.8113241 0 0 1 0.31805515,6.5702324 6.244379,5.8113241 0 0 1 6.5624342,0.75890827 6.244379,5.8113241 0 0 1 12.806813,6.5702324 Z" style="fill: #431964" /><path d="m 4.3228658,5.8752475 h 2.9514721 q 0.2945581,0 0.5184223,-0.1413879 Q 8.0225155,5.5865806 8.1462299,5.3214783 8.2699443,5.056376 8.2758355,4.7029063 v 0 q 0,-0.3475786 -0.1237144,-0.6126808 Q 8.0284067,3.8251232 7.7986513,3.6837353 7.5747872,3.5364562 7.2743379,3.5364562 H 4.3228658 V 2.1873801 h 2.9927103 q 0.7246129,0 1.2724909,0.3122316 0.5478781,0.3122316 0.8483274,0.8836743 0.3063404,0.5714427 0.3063404,1.3196203 v 0 q 0,0.7540687 -0.3063404,1.3255114 Q 9.1359451,6.5998605 8.5821759,6.912092 8.0342978,7.2243236 7.3155761,7.2243236 H 4.3228658 Z M 3.7396407,2.1873801 H 5.1476285 V 10.759021 H 3.7396407 Z M 6.3906636,6.9592213 7.8516718,6.6882279 10.102096,10.759021 H 8.4113322 Z" style="fill:#ffffff;" /></symbol><symbol id="LogicalFunctionSymbol" viewBox="0 0 79 79"><linearGradient id="green" x1="0" x2="1" y1="0" y2="0"><stop offset="0.0" stop-color="#6CB35B" stop-opacity="1" /><stop offset="1.0" stop-color="#ffffff" stop-opacity="1" /></linearGradient><ellipse cx="42.2" cy="32" rx="22.5" ry="15.5" style="fill: url(#green); stroke: #000; stroke-width: 2;" /><text style="font-family: &quot;Segoe UI&quot;; font-size: 12pt; font-weight: bold; fill: black; stroke: none;" text-anchor="middle" x="42.2" y="38">LF</text></symbol><symbol id="PortSymbol" viewBox="0 0 10 10"><path d="M0 0h10v10H0z" /><path d="M5 1L1 9h8z" fill="#fff" /></symbol><symbol id="FunctionalExchangeSymbol" viewBox="0 0 40 30"><linearGradient id="FunctionalExchangeSymbol-gradient" x1="0" x2="1" y1="0" y2="1"><stop offset="0.0" stop-color="#4F7C45" stop-opacity="1" /><stop offset="1.0" stop-color="#BCDDB4" stop-opacity="1" /></linearGradient><linearGradient id="FunctionalExchangeSymbol-gradientreverse" x1="0" x2="1" y1="0" y2="1"><stop offset="0.0" stop-color="#BCDDB4" stop-opacity="1" /><stop offset="1.0" stop-color="#4F7C45" stop-opacity="1" /></linearGradient><g style="stroke:#000;stroke-width:2;"><path d="M 36.190065,5.0377724 V 24.962228 H 26.17482 V 5.0377724 Z" style="fill: url(#FunctionalExchangeSymbol-gradientreverse)" /><path d="m 14.372107,10 h 12.622435 c 0.926189,0.585267 1.836022,1.274509 2.268178,5 -0.208657,2.812473 -0.954601,4.503809 -2.273297,5 H 14.296948" style="fill: #61c34c" /><path d="M 3.9464908,5.0048246 V 24.995175 H 10.87518 C 12.433713,24.159139 15.158267,20.291241 15.313795,15 15.498614,11.583142 14.059659,6.6240913 10.87518,5.0048246 c -2.2179509,0 -4.5908341,0 -6.9286892,0 z" style="fill: url(#FunctionalExchangeSymbol-gradient)" /></g></symbol><linearGradient id=".LogicalFunctionFillGradient" x1="0%" x2="0%" y1="0%" y2="100%"><stop offset="0" stop-color="#F4FFE0" /><stop offset="1" stop-color="#C5FFA6" /></linearGradient></defs><rect fill="white" height="145" stroke="none" width="906" x="2" y="2" /><g class="Box LogicalFunction" id="957c5799-1d4a-4ac0-b5de-33a65bf1519c"><rect class="LogicalFunction" height="81" width="150" x="256.5" y="46.5" /><text class="LogicalFunction" dominant-baseline="middle" text-anchor="middle" x="256" y="46"><tspan x="331.0" xml:space="preserve" y="86.5">educate Wizards</tspan></text><use height="20" width="20" x="266.7142857142857" xlink:href="#LogicalFunctionSymbol" y="76.5" /></g><g class="Box FOP" id="46093fb9-ae5e-4cc9-aad4-70c33e82e2bc"><use class="FOP" height="10" transform="rotate(90 403.5 96.5)" width="10" x="398.5" xlink:href="#PortSymbol" y="91.5" /></g><g class="Box FOP" id="61559d00-8d52-46d3-9405-c516235fba4e"><use class="FOP" height="10" transform="rotate(90 403.5 114.5)" width="10" x="398.5" xlink:href="#PortSymbol" y="109.5" /></g><g class="Box FOP" id="67f1e6c9-d17b-48cf-9e7b-9a597a69405a"><use class="FOP" height="10" transform="rotate(90 403.5 78.5)" width="10" x="398.5" xlink:href="#PortSymbol" y="73.5" /></g><g class="Box FIP" id="6584a94b-80fb-4ec4-8644-4781bb9509af"><use class="FIP" height="10" transform="rotate(90 259.5 87.5)" width="10" x="254.5" xlink:href="#PortSymbol" y="82.5" /></g><g class="Box FIP" id="32159e6f-de40-46e2-bc32-9065005582f3"><use class="FIP" height="10" transform="rotate(-90 403.5 59.5)" width="10" x="398.5" xlink:href="#PortSymbol" y="54.5" /></g><g class="Box LogicalFunction" id="aa9931e3-116c-461e-8215-6b9fdbdd4a1b"><rect class="LogicalFunction" height="44" width="225" x="597.5" y="24.5" /><text class="LogicalFunction" dominant-baseline="middle" text-anchor="middle" x="597" y="24"><tspan x="709.5" xml:space="preserve" y="46.0">kill He Who Must Not Be Named</tspan></text><use height="20" width="20" x="603.7857142857143" xlink:href="#LogicalFunctionSymbol" y="36.0" /></g><g class="Box FIP" id="ef435fb5-de1e-48ca-be00-40c79cc6a659"><use class="FIP" height="10" transform="rotate(90 600.5 60.5)" width="10" x="595.5" xlink:href="#PortSymbol" y="55.5" /></g><g class="Box FIP" id="c64b4ce5-e0ab-4970-b2e8-33b07336bf10"><use class="FIP" height="10" transform="rotate(90 600.5 46.5)" width="10" x="595.5" xlink:href="#PortSymbol" y="41.5" /></g><g class="Box FOP" id="d920feff-f8bf-4607-90cc-f29a15c69590"><use class="FOP" height="10" transform="rotate(270 600.5 33.5)" width="10" x="595.5" xlink:href="#PortSymbol" y="28.5" /></g><g class="Box LogicalFunction" id="7f2936ab-0b54-4e92-9f0c-85a9f0981959"><rect class="LogicalFunction" height="47" width="301" x="597.5" y="91.5" /><text class="LogicalFunction" dominant-baseline="middle" text-anchor="middle" x="597" y="91"><tspan x="747.5" xml:space="preserve" y="114.5">defend the surrounding area against Intruders</tspan></text><use height="20" width="20" x="603.9285714285714" xlink:href="#LogicalFunctionSymbol" y="104.5" /></g><g class="Box FIP" id="e38570c1-7886-49e4-84a0-79d17a0632bb"><use class="FIP" height="10" transform="rotate(90 600.5 114.5)" width="10" x="595.5" xlink:href="#PortSymbol" y="109.5" /></g><g class="Box LogicalFunction" id="a7acb298-d14b-4707-a419-fea272434541"><rect class="LogicalFunction" height="44" width="127" x="12.5" y="65.5" /><text class="LogicalFunction" dominant-baseline="middle" text-anchor="middle" x="12" y="65"><tspan x="75.5" xml:space="preserve" y="87.0">teach Potions</tspan></text><use height="20" width="20" x="19.07142857142857" xlink:href="#LogicalFunctionSymbol" y="77.0" /></g><g class="Box FOP" id="3612f112-f0c7-42ec-b0e9-f53afc1ef486"><use class="FOP" height="10" transform="rotate(90 136.5 87.5)" width="10" x="131.5" xlink:href="#PortSymbol" y="82.5" /></g><g class="Edge FunctionalExchange" id="09efaeb7-2d50-40ed-a4da-46afcb9ca7a1"><path class="Edge" d="M 408.5 96.5 438.5 96.5 438.5 80.5 585.5 80.5 585.5 60.5 595.5 60.5" /><rect class="AnnotationBB" height="20" width="127" x="448" y="83" /><text class="Annotation" dominant-baseline="middle" text-anchor="middle" x="436.0" y="83"><tspan x="512.5" xml:space="preserve" y="88.0">educate &amp; mature</tspan></text><use height="20" width="20" x="443.92857142857144" xlink:href="#FunctionalExchangeSymbol" y="78.0" /></g><g class="Edge FunctionalExchange" id="8c5c3f60-e598-45e0-b321-363cb76bab12"><path class="Edge" d="M 408.5 114.5 595.5 114.5" /><rect class="AnnotationBB" height="20" width="54" x="484" y="117" /><text class="Annotation" dominant-baseline="middle" text-anchor="middle" x="472.0" y="117"><tspan x="512.0" xml:space="preserve" y="122.0">Mao</tspan></text><use height="20" width="20" x="479.85714285714283" xlink:href="#FunctionalExchangeSymbol" y="112.0" /></g><g class="Edge FunctionalExchange" id="d03c7998-3ce7-4ec7-89ac-38fc433a456d"><path class="Edge" d="M 408.5 78.5 428.5 78.5 428.5 46.5 595.5 46.5" /><rect class="AnnotationBB" height="20" width="54" x="484" y="49" /><text class="Annotation" dominant-baseline="middle" text-anchor="middle" x="472.0" y="49"><tspan x="512.0" xml:space="preserve" y="54.0">Wao</tspan></text><use height="20" width="20" x="479.85714285714283" xlink:href="#FunctionalExchangeSymbol" y="44.0" /></g><g class="Edge FunctionalExchange" id="cdc69c5e-ddd8-4e59-8b99-f510400650aa"><path class="Edge" d="M 141.5 87.5 254.5 87.5" /><rect class="AnnotationBB" height="20" width="73" x="161" y="90" /><text class="Annotation" dominant-baseline="middle" text-anchor="middle" x="149.0" y="90"><tspan x="198.5" xml:space="preserve" y="95.0">educate</tspan></text><use height="20" width="20" x="157.07142857142858" xlink:href="#FunctionalExchangeSymbol" y="85.0" /></g><g class="Edge FunctionalExchange" id="90799c8e-d3b6-4073-bd92-f6645711b066"><path class="Edge" d="M 595.5 33.5 585.5 33.5 585.5 12.5 418.5 12.5 418.5 59.5 408.5 59.5" /><rect class="AnnotationBB" height="20" width="51" x="486" y="15" /><text class="Annotation" dominant-baseline="middle" text-anchor="middle" x="474.0" y="15"><tspan x="512.5" xml:space="preserve" y="20.0">Bao</tspan></text><use height="20" width="20" x="481.7857142857143" xlink:href="#FunctionalExchangeSymbol" y="10.0" /></g></svg>
