<svg baseProfile="full" class="SystemDataFlowBlank" height="111" version="1.1" viewBox="2 2 432 111" width="432" xmlns="http://www.w3.org/2000/svg" xmlns:ev="http://www.w3.org/2001/xml-events" xmlns:xlink="http://www.w3.org/1999/xlink"><defs><style>.SystemDataFlowBlank * { shape-rendering: geometricPrecision; }
.SystemDataFlowBlank text { font-family: "Segoe UI"; font-size: 8pt; }
.SystemDataFlowBlank g { cursor: pointer; }
.SystemDataFlowBlank g.Edge &gt; path { fill: none; stroke: rgb(0, 0, 0); }
.SystemDataFlowBlank g.Box &gt; line { stroke: #000000; }
.SystemDataFlowBlank g.Box &gt; rect, .SystemDataFlowBlank g.Box &gt; use { fill: transparent; stroke: #000000; stroke-width: 1; }
.SystemDataFlowBlank g.Box.Annotation &gt; line { stroke: none; }
.SystemDataFlowBlank g.Box.Annotation &gt; rect, .SystemDataFlowBlank g.Box.Annotation &gt; use { fill: none; stroke: none; }
.SystemDataFlowBlank g.Box.Constraint &gt; line { stroke: #888888; }
.SystemDataFlowBlank g.Box.Constraint &gt; rect, .SystemDataFlowBlank g.Box.Constraint &gt; use { fill: #FFF5B5; stroke: #888888; }
.SystemDataFlowBlank g.Box.Constraint &gt; text { fill: #000000; }
.SystemDataFlowBlank g.Box.Note &gt; line { stroke: #FFCC66; }
.SystemDataFlowBlank g.Box.Note &gt; rect, .SystemDataFlowBlank g.Box.Note &gt; use { fill: #FFFFCB; stroke: #FFCC66; }
.SystemDataFlowBlank g.Box.Note &gt; text { fill: #000000; }
.SystemDataFlowBlank g.Box.Requirement &gt; line { stroke: #72496E; }
.SystemDataFlowBlank g.Box.Requirement &gt; rect, .SystemDataFlowBlank g.Box.Requirement &gt; use { fill: #D9C4D7; stroke: #72496E; }
.SystemDataFlowBlank g.Box.Requirement &gt; text { fill: #000000; }
.SystemDataFlowBlank g.Box.Text &gt; line { stroke: transparent; }
.SystemDataFlowBlank g.Box.Text &gt; rect, .SystemDataFlowBlank g.Box.Text &gt; use { stroke: transparent; }
.SystemDataFlowBlank g.Edge &gt; rect { fill: none; stroke: none; }
.SystemDataFlowBlank g.Circle &gt; circle { fill: #000000; stroke: none; }
.SystemDataFlowBlank g.Edge &gt; path { stroke-width: 1; }
.SystemDataFlowBlank g.Edge.Connector &gt; rect { fill: none; stroke: none; }
.SystemDataFlowBlank g.Circle.Connector &gt; circle { fill: #B0B0B0; stroke: none; }
.SystemDataFlowBlank g.Edge.Connector &gt; path { stroke: #B0B0B0; stroke-dasharray: 1; }
.SystemDataFlowBlank g.Edge.Constraint &gt; rect { fill: none; stroke: none; }
.SystemDataFlowBlank g.Circle.Constraint &gt; circle { fill: #000000; stroke: none; }
.SystemDataFlowBlank g.Edge.Constraint &gt; path { stroke: #000000; stroke-dasharray: 1, 3; marker-end: url(#FineArrowMark_000000); stroke-linecap: round; }
.SystemDataFlowBlank g.Edge.Note &gt; rect { fill: none; stroke: none; }
.SystemDataFlowBlank g.Circle.Note &gt; circle { fill: #000000; stroke: none; }
.SystemDataFlowBlank g.Edge.Note &gt; path { stroke: #000000; stroke-dasharray: 1, 3; }
.SystemDataFlowBlank g.Edge.RequirementRelation &gt; rect { fill: none; stroke: none; }
.SystemDataFlowBlank g.Circle.RequirementRelation &gt; circle { fill: #72496E; stroke: none; }
.SystemDataFlowBlank g.Edge.RequirementRelation &gt; path { stroke: #72496E; stroke-width: 2; marker-end: url(#FineArrowMark_72496E); stroke-dasharray: 5; }
.SystemDataFlowBlank g.Edge.RequirementRelation &gt; text { fill: #72496E; }
.SystemDataFlowBlank g.Box.FIP &gt; rect, .SystemDataFlowBlank g.Box.FIP &gt; use { fill: #E08503; stroke-width: 0; }
.SystemDataFlowBlank g.Box.FOP &gt; rect, .SystemDataFlowBlank g.Box.FOP &gt; use { fill: #095C2E; stroke-width: 0; }
.SystemDataFlowBlank g.Box.SystemFunction &gt; line { stroke: #4D8914; }
.SystemDataFlowBlank g.Box.SystemFunction &gt; rect, .SystemDataFlowBlank g.Box.SystemFunction &gt; use { fill: url("#.SystemFunctionFillGradient"); rx: 10px; ry: 10px; stroke: #4D8914; }
.SystemDataFlowBlank g.Box.SystemFunction &gt; text { fill: #000000; }
.SystemDataFlowBlank g.Edge.FunctionalExchange &gt; rect { fill: none; stroke: none; }
.SystemDataFlowBlank g.Circle.FunctionalExchange &gt; circle { fill: #095C2E; stroke: none; }
.SystemDataFlowBlank g.Edge.FunctionalExchange &gt; path { stroke: #095C2E; stroke-width: 2; }
.SystemDataFlowBlank g.Edge.FunctionalExchange &gt; text { fill: #095C2E; }
</style><symbol id="ErrorSymbol" viewBox="0 0 2.6458 2.6458"><path d="M 0,0 2.6458333,2.6458333 M 0,2.6458333 2.6458333,0" style="fill: none; stroke: red; stroke-width: 0.5;" /></symbol><symbol id="RequirementSymbol" style="stroke: none;" viewBox="0 0 50 50"><path d="M 12.806813,6.5702324 A 6.244379,5.8113241 0 0 1 6.5624342,12.381557 6.244379,5.8113241 0 0 1 0.31805515,6.5702324 6.244379,5.8113241 0 0 1 6.5624342,0.75890827 6.244379,5.8113241 0 0 1 12.806813,6.5702324 Z" style="fill: #431964" /><path d="m 4.3228658,5.8752475 h 2.9514721 q 0.2945581,0 0.5184223,-0.1413879 Q 8.0225155,5.5865806 8.1462299,5.3214783 8.2699443,5.056376 8.2758355,4.7029063 v 0 q 0,-0.3475786 -0.1237144,-0.6126808 Q 8.0284067,3.8251232 7.7986513,3.6837353 7.5747872,3.5364562 7.2743379,3.5364562 H 4.3228658 V 2.1873801 h 2.9927103 q 0.7246129,0 1.2724909,0.3122316 0.5478781,0.3122316 0.8483274,0.8836743 0.3063404,0.5714427 0.3063404,1.3196203 v 0 q 0,0.7540687 -0.3063404,1.3255114 Q 9.1359451,6.5998605 8.5821759,6.912092 8.0342978,7.2243236 7.3155761,7.2243236 H 4.3228658 Z M 3.7396407,2.1873801 H 5.1476285 V 10.759021 H 3.7396407 Z M 6.3906636,6.9592213 7.8516718,6.6882279 10.102096,10.759021 H 8.4113322 Z" style="fill:#ffffff;" /></symbol><symbol id="FunctionalExchangeSymbol" viewBox="0 0 40 30"><linearGradient id="FunctionalExchangeSymbol-gradient" x1="0" x2="1" y1="0" y2="1"><stop offset="0.0" stop-color="#4F7C45" stop-opacity="1" /><stop offset="1.0" stop-color="#BCDDB4" stop-opacity="1" /></linearGradient><linearGradient id="FunctionalExchangeSymbol-gradientreverse" x1="0" x2="1" y1="0" y2="1"><stop offset="0.0" stop-color="#BCDDB4" stop-opacity="1" /><stop offset="1.0" stop-color="#4F7C45" stop-opacity="1" /></linearGradient><g style="stroke:#000;stroke-width:2;"><path d="M 36.190065,5.0377724 V 24.962228 H 26.17482 V 5.0377724 Z" style="fill: url(#FunctionalExchangeSymbol-gradientreverse)" /><path d="m 14.372107,10 h 12.622435 c 0.926189,0.585267 1.836022,1.274509 2.268178,5 -0.208657,2.812473 -0.954601,4.503809 -2.273297,5 H 14.296948" style="fill: #61c34c" /><path d="M 3.9464908,5.0048246 V 24.995175 H 10.87518 C 12.433713,24.159139 15.158267,20.291241 15.313795,15 15.498614,11.583142 14.059659,6.6240913 10.87518,5.0048246 c -2.2179509,0 -4.5908341,0 -6.9286892,0 z" style="fill: url(#FunctionalExchangeSymbol-gradient)" /></g></symbol><symbol id="PortSymbol" viewBox="0 0 10 10"><path d="M0 0h10v10H0z" /><path d="M5 1L1 9h8z" fill="#fff" /></symbol><symbol id="SystemFunctionSymbol" viewBox="0 0 79 79"><linearGradient id="green" x1="0" x2="1" y1="0" y2="0"><stop offset="0.0" stop-color="#6CB35B" stop-opacity="1" /><stop offset="1.0" stop-color="#ffffff" stop-opacity="1" /></linearGradient><ellipse cx="42.2" cy="32" rx="22.5" ry="15.5" style="fill: url(#green); stroke: #000; stroke-width: 2;" /><text style="font-family: &quot;Segoe UI&quot;; font-size: 12pt; font-weight: bold; fill: black; stroke: none;" text-anchor="middle" x="42.2" y="38">SF</text></symbol><linearGradient id=".SystemFunctionFillGradient" x1="0%" x2="0%" y1="0%" y2="100%"><stop offset="0" stop-color="#F4FFE0" /><stop offset="1" stop-color="#C5FFA6" /></linearGradient><linearGradient id="CustomGradient_DAFDFF_C6E6FF" x1="0" x2="0" y1="0" y2="1"><stop offset="0.0" stop-color="#DAFDFF" stop-opacity="1" /><stop offset="1.0" stop-color="#C6E6FF" stop-opacity="1" /></linearGradient></defs><rect fill="white" height="111" stroke="none" width="432" x="2" y="2" /><g class="Box SystemFunction" id="098810d9-0325-4ae8-a111-82202c0d2016"><rect class="SystemFunction" height="47" style="fill: url(&quot;#CustomGradient_DAFDFF_C6E6FF&quot;); stroke: #4A4A97" width="150" x="274.5" y="23.5" /><text class="SystemFunction" dominant-baseline="middle" text-anchor="middle" x="274" y="23"><tspan x="349.0" xml:space="preserve" y="46.5">Weird guy</tspan></text><use height="20" width="20" x="301.85714285714283" xlink:href="#SystemFunctionSymbol" y="36.5" /></g><g class="Box FOP" id="88a1356b-781f-4208-a46a-943402611d69"><use class="FOP" height="10" transform="rotate(270 277.5 60.5)" width="10" x="272.5" xlink:href="#PortSymbol" y="55.5" /></g><g class="Box FIP" id="4a528807-d155-43b4-9e5e-533648a06217"><use class="FIP" height="10" transform="rotate(90 277.5 46.5)" width="10" x="272.5" xlink:href="#PortSymbol" y="41.5" /></g><g class="Box FIP" id="fcd266cf-e8e8-4993-89ef-956939e137d1"><use class="FIP" height="10" transform="rotate(90 277.5 32.5)" width="10" x="272.5" xlink:href="#PortSymbol" y="27.5" /></g><g class="Box SystemFunction" id="1c304898-b1b7-49c4-8877-5ea3c9959b6e"><rect class="SystemFunction" height="44" style="fill: url(&quot;#CustomGradient_DAFDFF_C6E6FF&quot;); stroke: #4A4A97" width="141" x="12.5" y="43.5" /><text class="SystemFunction" dominant-baseline="middle" text-anchor="middle" x="12" y="43"><tspan x="82.5" xml:space="preserve" y="65.0">Not real Batman</tspan></text><use height="20" width="20" x="18.92857142857143" xlink:href="#SystemFunctionSymbol" y="55.0" /></g><g class="Box FIP" id="aa76e9ab-c454-416f-8c5a-52cd3f81edd2"><use class="FIP" height="10" transform="rotate(-90 150.5 79.5)" width="10" x="145.5" xlink:href="#PortSymbol" y="74.5" /></g><g class="Box FOP" id="91fd613c-4cea-4c2b-8acb-0c8c27f5f0da"><use class="FOP" height="10" transform="rotate(90 150.5 65.5)" width="10" x="145.5" xlink:href="#PortSymbol" y="60.5" /></g><g class="Box FOP" id="7d863f7b-05e6-47c0-9854-ca85c2e8d4b8"><use class="FOP" height="10" transform="rotate(90 150.5 52.5)" width="10" x="145.5" xlink:href="#PortSymbol" y="47.5" /></g><g class="Edge FunctionalExchange" id="7a61fcb7-aae5-4698-86de-8b0d70d8c09b"><path class="Edge" d="M 272.5 60.5 262.5 60.5 262.5 79.5 155.5 79.5" /><rect class="AnnotationBB" height="21" width="67" x="185" y="82" /><text class="Annotation" dominant-baseline="middle" text-anchor="middle" x="173.0" y="82"><tspan x="219.5" xml:space="preserve" y="87.71428571428571">pronto</tspan></text><use height="20" width="20" x="180.92857142857142" xlink:href="#FunctionalExchangeSymbol" y="77.71428571428571" /></g><g class="Edge FunctionalExchange" id="77dd3442-c092-4b69-8b50-830bc1c5d584"><path class="Edge" d="M 155.5 65.5 175.5 65.5 175.5 46.5 272.5 46.5" /><rect class="AnnotationBB" height="19" width="56" x="191" y="49" /><text class="Annotation" dominant-baseline="middle" text-anchor="middle" x="179.0" y="49"><tspan x="220.0" xml:space="preserve" y="53.285714285714285">onto</tspan></text><use height="20" width="20" x="187.14285714285714" xlink:href="#FunctionalExchangeSymbol" y="43.285714285714285" /></g><g class="Edge FunctionalExchange" id="d69dcf31-a7d4-40c5-8dd4-b4747aa3ece7"><path class="Edge" d="M 155.5 52.5 165.5 52.5 165.5 12.5 262.5 12.5 262.5 32.5 272.5 32.5" /><rect class="AnnotationBB" height="20" width="50" x="194" y="15" /><text class="Annotation" dominant-baseline="middle" text-anchor="middle" x="182.0" y="15"><tspan x="220.0" xml:space="preserve" y="20.0">mio</tspan></text><use height="20" width="20" x="190.0" xlink:href="#FunctionalExchangeSymbol" y="10.0" /></g></svg>
