<svg baseProfile="full" class="MissionsCapabilitiesBlank" height="139" version="1.1" viewBox="2 2 487 139" width="487" xmlns="http://www.w3.org/2000/svg" xmlns:ev="http://www.w3.org/2001/xml-events" xmlns:xlink="http://www.w3.org/1999/xlink"><defs><style>.MissionsCapabilitiesBlank * { shape-rendering: geometricPrecision; }
.MissionsCapabilitiesBlank text { font-family: "Segoe UI"; font-size: 8pt; }
.MissionsCapabilitiesBlank g { cursor: pointer; }
.MissionsCapabilitiesBlank g.Edge &gt; path { fill: none; stroke: rgb(0, 0, 0); }
.MissionsCapabilitiesBlank g.Box &gt; line { stroke: #000000; }
.MissionsCapabilitiesBlank g.Box &gt; rect, .MissionsCapabilitiesBlank g.Box &gt; use { fill: transparent; stroke: #000000; stroke-width: 1; }
.MissionsCapabilitiesBlank g.Box.Annotation &gt; line { stroke: none; }
.MissionsCapabilitiesBlank g.Box.Annotation &gt; rect, .MissionsCapabilitiesBlank g.Box.Annotation &gt; use { fill: none; stroke: none; }
.MissionsCapabilitiesBlank g.Box.Constraint &gt; line { stroke: #888888; }
.MissionsCapabilitiesBlank g.Box.Constraint &gt; rect, .MissionsCapabilitiesBlank g.Box.Constraint &gt; use { fill: #FFF5B5; stroke: #888888; }
.MissionsCapabilitiesBlank g.Box.Constraint &gt; text { fill: #000000; }
.MissionsCapabilitiesBlank g.Box.Note &gt; line { stroke: #FFCC66; }
.MissionsCapabilitiesBlank g.Box.Note &gt; rect, .MissionsCapabilitiesBlank g.Box.Note &gt; use { fill: #FFFFCB; stroke: #FFCC66; }
.MissionsCapabilitiesBlank g.Box.Note &gt; text { fill: #000000; }
.MissionsCapabilitiesBlank g.Box.Requirement &gt; line { stroke: #72496E; }
.MissionsCapabilitiesBlank g.Box.Requirement &gt; rect, .MissionsCapabilitiesBlank g.Box.Requirement &gt; use { fill: #D9C4D7; stroke: #72496E; }
.MissionsCapabilitiesBlank g.Box.Requirement &gt; text { fill: #000000; }
.MissionsCapabilitiesBlank g.Box.Text &gt; line { stroke: transparent; }
.MissionsCapabilitiesBlank g.Box.Text &gt; rect, .MissionsCapabilitiesBlank g.Box.Text &gt; use { stroke: transparent; }
.MissionsCapabilitiesBlank g.Edge &gt; rect { fill: none; stroke: none; }
.MissionsCapabilitiesBlank g.Circle &gt; circle { fill: #000000; stroke: none; }
.MissionsCapabilitiesBlank g.Edge &gt; path { stroke-width: 1; }
.MissionsCapabilitiesBlank g.Edge.Connector &gt; rect { fill: none; stroke: none; }
.MissionsCapabilitiesBlank g.Circle.Connector &gt; circle { fill: #B0B0B0; stroke: none; }
.MissionsCapabilitiesBlank g.Edge.Connector &gt; path { stroke: #B0B0B0; stroke-dasharray: 1; }
.MissionsCapabilitiesBlank g.Edge.Constraint &gt; rect { fill: none; stroke: none; }
.MissionsCapabilitiesBlank g.Circle.Constraint &gt; circle { fill: #000000; stroke: none; }
.MissionsCapabilitiesBlank g.Edge.Constraint &gt; path { stroke: #000000; stroke-dasharray: 1, 3; marker-end: url(#FineArrowMark_000000); stroke-linecap: round; }
.MissionsCapabilitiesBlank g.Edge.Note &gt; rect { fill: none; stroke: none; }
.MissionsCapabilitiesBlank g.Circle.Note &gt; circle { fill: #000000; stroke: none; }
.MissionsCapabilitiesBlank g.Edge.Note &gt; path { stroke: #000000; stroke-dasharray: 1, 3; }
.MissionsCapabilitiesBlank g.Edge.RequirementRelation &gt; rect { fill: none; stroke: none; }
.MissionsCapabilitiesBlank g.Circle.RequirementRelation &gt; circle { fill: #72496E; stroke: none; }
.MissionsCapabilitiesBlank g.Edge.RequirementRelation &gt; path { stroke: #72496E; stroke-width: 2; marker-end: url(#FineArrowMark_72496E); stroke-dasharray: 5; }
.MissionsCapabilitiesBlank g.Edge.RequirementRelation &gt; text { fill: #72496E; }
.MissionsCapabilitiesBlank g.Box.SystemComponent &gt; line { stroke: #4A4A97; }
.MissionsCapabilitiesBlank g.Box.SystemComponent &gt; rect, .MissionsCapabilitiesBlank g.Box.SystemComponent &gt; use { fill: url("#.SystemComponentFillGradient"); stroke: #4A4A97; }
.MissionsCapabilitiesBlank g.Box.SystemComponent &gt; text { fill: #000000; }
.MissionsCapabilitiesBlank g.Box.SystemActor &gt; line { stroke: #4A4A97; }
.MissionsCapabilitiesBlank g.Box.SystemActor &gt; rect, .MissionsCapabilitiesBlank g.Box.SystemActor &gt; use { fill: url("#.SystemActorFillGradient"); stroke: #4A4A97; }
.MissionsCapabilitiesBlank g.Box.SystemActor &gt; text { fill: #000000; }
.MissionsCapabilitiesBlank g.Box.SystemHumanActor &gt; line { stroke: #4A4A97; }
.MissionsCapabilitiesBlank g.Box.SystemHumanActor &gt; rect, .MissionsCapabilitiesBlank g.Box.SystemHumanActor &gt; use { fill: url("#.SystemHumanActorFillGradient"); stroke: #4A4A97; }
.MissionsCapabilitiesBlank g.Box.SystemHumanActor &gt; text { fill: #000000; }
.MissionsCapabilitiesBlank g.Edge.AbstractCapabilityExtend &gt; rect { fill: none; stroke: none; }
.MissionsCapabilitiesBlank g.Circle.AbstractCapabilityExtend &gt; circle { fill: #000000; stroke: none; }
.MissionsCapabilitiesBlank g.Edge.AbstractCapabilityExtend &gt; path { marker-end: url(#FineArrowMark_000000); stroke: #000000; stroke-width: 1; }
.MissionsCapabilitiesBlank g.Edge.AbstractCapabilityGeneralization &gt; rect { fill: none; stroke: none; }
.MissionsCapabilitiesBlank g.Circle.AbstractCapabilityGeneralization &gt; circle { fill: #000000; stroke: none; }
.MissionsCapabilitiesBlank g.Edge.AbstractCapabilityGeneralization &gt; path { marker-end: url(#GeneralizationMark_000000); stroke: #000000; stroke-width: 1; }
.MissionsCapabilitiesBlank g.Edge.AbstractCapabilityInclude &gt; rect { fill: none; stroke: none; }
.MissionsCapabilitiesBlank g.Circle.AbstractCapabilityInclude &gt; circle { fill: #000000; stroke: none; }
.MissionsCapabilitiesBlank g.Edge.AbstractCapabilityInclude &gt; path { marker-end: url(#FineArrowMark_000000); stroke: #000000; stroke-width: 1; }
.MissionsCapabilitiesBlank g.Edge.CapabilityExploitation &gt; rect { fill: none; stroke: none; }
.MissionsCapabilitiesBlank g.Circle.CapabilityExploitation &gt; circle { fill: #000000; stroke: none; }
.MissionsCapabilitiesBlank g.Edge.CapabilityExploitation &gt; path { marker-end: url(#FineArrowMark_000000); stroke: #000000; stroke-width: 1; }
.MissionsCapabilitiesBlank g.Edge.CapabilityInvolvement &gt; rect { fill: none; stroke: none; }
.MissionsCapabilitiesBlank g.Circle.CapabilityInvolvement &gt; circle { fill: #000000; stroke: none; }
.MissionsCapabilitiesBlank g.Edge.CapabilityInvolvement &gt; path { marker-end: url(#FineArrowMark_000000); stroke: #000000; stroke-width: 1; }
.MissionsCapabilitiesBlank g.Edge.MissionInvolvement &gt; rect { fill: none; stroke: none; }
.MissionsCapabilitiesBlank g.Circle.MissionInvolvement &gt; circle { fill: #000000; stroke: none; }
.MissionsCapabilitiesBlank g.Edge.MissionInvolvement &gt; path { marker-end: url(#FineArrowMark_000000); stroke: #000000; stroke-width: 1; }
.MissionsCapabilitiesBlank g.Box.Capability &gt; line { stroke: #454545; }
.MissionsCapabilitiesBlank g.Box.Capability &gt; rect, .MissionsCapabilitiesBlank g.Box.Capability &gt; use { fill: url("#.CapabilityFillGradient"); stroke: #454545; }
.MissionsCapabilitiesBlank g.Box.Capability &gt; text { fill: #000000; }
.MissionsCapabilitiesBlank g.Box.Mission &gt; line { stroke: #454545; }
.MissionsCapabilitiesBlank g.Box.Mission &gt; rect, .MissionsCapabilitiesBlank g.Box.Mission &gt; use { fill: url("#.MissionFillGradient"); stroke: #454545; }
.MissionsCapabilitiesBlank g.Box.Mission &gt; text { fill: #000000; }
</style><symbol id="ErrorSymbol" viewBox="0 0 2.6458 2.6458"><path d="M 0,0 2.6458333,2.6458333 M 0,2.6458333 2.6458333,0" style="fill: none; stroke: red; stroke-width: 0.5;" /></symbol><symbol id="RequirementSymbol" style="stroke: none;" viewBox="0 0 50 50"><path d="M 12.806813,6.5702324 A 6.244379,5.8113241 0 0 1 6.5624342,12.381557 6.244379,5.8113241 0 0 1 0.31805515,6.5702324 6.244379,5.8113241 0 0 1 6.5624342,0.75890827 6.244379,5.8113241 0 0 1 12.806813,6.5702324 Z" style="fill: #431964" /><path d="m 4.3228658,5.8752475 h 2.9514721 q 0.2945581,0 0.5184223,-0.1413879 Q 8.0225155,5.5865806 8.1462299,5.3214783 8.2699443,5.056376 8.2758355,4.7029063 v 0 q 0,-0.3475786 -0.1237144,-0.6126808 Q 8.0284067,3.8251232 7.7986513,3.6837353 7.5747872,3.5364562 7.2743379,3.5364562 H 4.3228658 V 2.1873801 h 2.9927103 q 0.7246129,0 1.2724909,0.3122316 0.5478781,0.3122316 0.8483274,0.8836743 0.3063404,0.5714427 0.3063404,1.3196203 v 0 q 0,0.7540687 -0.3063404,1.3255114 Q 9.1359451,6.5998605 8.5821759,6.912092 8.0342978,7.2243236 7.3155761,7.2243236 H 4.3228658 Z M 3.7396407,2.1873801 H 5.1476285 V 10.759021 H 3.7396407 Z M 6.3906636,6.9592213 7.8516718,6.6882279 10.102096,10.759021 H 8.4113322 Z" style="fill:#ffffff;" /></symbol><symbol id="CapabilitySymbol" viewBox="0 0 50 37"><radialGradient cx="25.657873" cy="25.925144" fx="25.657873" fy="25.925144" gradientTransform="matrix(1.471657 0.01303118 -0.03846138 4.3435681 -11.744602 -94.299935)" gradientUnits="userSpaceOnUse" id="brown_oval" r="20.562483"><stop offset="0" stop-color="#ffffff" /><stop offset="1" stop-color="#d0ab84" /></radialGradient><ellipse cx="25.017874" cy="18.64205" rx="24.564632" ry="17.453819" style="fill: url(#brown_oval); stroke: #563b18; stroke-width: 1;" /><g transform="matrix(0.86023492,0,0,0.64311175,6.4177697,4.9887121)"><path d="m 25.147125,33.08327 q -2.060058,0.997225 -5.379769,0.997225 -4.330058,0 -6.81,-2.545549 -2.479942,-2.545549 -2.479942,-6.783757 0,-4.513757 2.781734,-7.321734 2.794856,-2.807977 7.243006,-2.807977 2.755491,0 4.644971,0.695434 v 4.080751 q -1.88948,-1.128439 -4.303815,-1.128439 -2.65052,0 -4.277572,1.666416 -1.627052,1.666416 -1.627052,4.513757 0,2.729249 1.535202,4.356301 1.535202,1.61393 4.133237,1.61393 2.479942,0 4.54,-1.207167 z" style="fill: black; stroke: none;" transform="scale(1.1743865,0.85150843)" /></g></symbol><symbol id="MissionSymbol" viewBox="0 0 50 37"><radialGradient cx="25.657873" cy="25.925144" fx="25.657873" fy="25.925144" gradientTransform="matrix(1.471657 0.01303118 -0.03846138 4.3435681 -11.744602 -94.299935)" gradientUnits="userSpaceOnUse" id="brown_oval" r="20.562483"><stop offset="0" stop-color="#ffffff" /><stop offset="1" stop-color="#d0ab84" /></radialGradient><ellipse cx="25.017874" cy="18.64205" rx="24.564632" ry="17.453819" style="fill: url(#brown_oval); stroke: #563b18; stroke-width: 1;" /><path d="M 34.809129,31.801245 31.33755,31.878525 30.470956,18.609297 C 30.399426,17.514106 30.01851,15.93283 30.153514,14.341649 h -0.05786 c -0.212157,0.906491 -0.400206,1.557429 -0.564146,1.952814 L 23.340365,31.801245 H 20.968059 L 14.762452,16.410183 c -0.173583,-0.453245 -0.35681,-1.142757 -0.549681,-2.068536 h -0.05786 c 0.07715,0.829343 -0.117081,2.344989 -0.230914,4.219301 L 13.115176,31.878523 9.9328121,31.801245 11.08827,11.058028 h 4.84587 l 5.453412,13.814346 c 0.414671,1.060787 0.68469,1.851556 0.810056,2.372306 h 0.07233 c 0.356811,-1.089718 0.646116,-1.899774 0.867917,-2.430167 L 28.69252,11.058028 h 4.672287 z" style="fill: black; stroke: none;" transform="matrix(0.86023492,0,0,0.64311175,6.4177697,4.9887121)" /></symbol><symbol id="SystemActorSymbol" viewBox="0 0 79 79"><g transform="matrix(1.4376083,0,0,1.3022512,-15.958775,-15.416201)"><path d="M 17.819891,20.041161 H 65.286364 V 64.242623 H 17.819891 Z" style="fill:#bdf7ff; stroke:#454647;" /><path d="m 12.064948,25.832262 h 11.521155 v 6.687244 H 12.064948 Z" style="fill:#e3ebf8;stroke:#454647;" /><path d="m 12.050427,34.529197 h 11.455007 v 6.635451 H 12.050427 Z" style="fill:#e3ebf8;stroke:#454647;" /><g style="fill: black; stroke: none;" transform="matrix(0.83129224,0,0,0.89544642,8.0334318,11.729573)"><path d="m 22.506995,47.687597 v -4.602148 q 0.619881,0.563528 1.465173,1.014351 0.864077,0.450823 1.822075,0.770155 0.957998,0.300549 1.915996,0.469607 0.957999,0.169059 1.765722,0.169059 2.817642,0 4.188894,-0.939214 1.390037,-0.939214 1.390037,-2.72372 0,-0.957998 -0.469607,-1.653017 -0.450823,-0.713802 -1.277331,-1.296115 -0.826508,-0.582312 -1.953565,-1.108272 -1.108272,-0.544744 -2.385603,-1.127057 -1.371252,-0.732587 -2.554662,-1.483958 -1.183409,-0.751371 -2.06627,-1.653016 -0.864077,-0.92043 -1.371252,-2.06627 -0.488392,-1.145841 -0.488392,-2.686152 0,-1.897212 0.845293,-3.287249 0.864077,-1.40882 2.254113,-2.310466 1.408821,-0.920429 3.193327,-1.352468 1.784507,-0.450822 3.64415,-0.450822 4.226462,0 6.161243,0.957998 v 4.414305 q -2.291682,-1.653016 -5.898263,-1.653016 -0.995567,0 -1.991134,0.187842 -0.976782,0.187843 -1.765722,0.619882 -0.770155,0.432038 -1.258546,1.108272 -0.488391,0.676234 -0.488391,1.634232 0,0.901645 0.375685,1.559095 0.375686,0.65745 1.089488,1.202194 0.732587,0.544744 1.765722,1.070703 1.05192,0.507176 2.423172,1.108273 1.408821,0.732587 2.648583,1.540311 1.258547,0.807723 2.197761,1.784506 0.957998,0.976782 1.502742,2.178976 0.563528,1.18341 0.563528,2.704936 0,2.047486 -0.826508,3.456307 -0.826508,1.408821 -2.235329,2.291682 -1.390037,0.882861 -3.212112,1.277331 -1.822074,0.394469 -3.850776,0.394469 -0.676234,0 -1.671801,-0.112705 -0.976782,-0.09392 -2.009918,-0.300549 -1.033135,-0.187842 -1.953564,-0.469607 -0.92043,-0.281764 -1.483958,-0.638665 z" /><path d="M 66.819105,48.758301 H 61.916408 L 59.493237,41.90204 H 48.898904 l -2.32925,6.856261 H 41.685742 L 51.772899,21.821647 h 5.034186 z M 58.309827,38.25789 54.571756,27.513283 q -0.169058,-0.525959 -0.356901,-1.690585 h -0.07514 q -0.169059,1.070704 -0.375686,1.690585 L 50.06353,38.25789 Z" /></g></g></symbol><symbol id="SystemHumanActorSymbol" style="stroke: #000; stroke-width: 2;" viewBox="362.861 210.892 75 75"><g style="stroke-width: 2.4944; stroke: #000;" transform="matrix(1.0611338,0,0,1.0611338,-24.47665,-12.241673)"><line style="fill: none;" x1="400.362" x2="400.362" y1="232.586" y2="257.534" /><line style="fill: none;" x1="400.83401" x2="388.423" y1="254.299" y2="275.009" /><line style="fill: none;" x1="400.25201" x2="413.97" y1="254.46001" y2="274.987" /><line style="fill: none;" x1="385.634" x2="415.703" y1="244.569" y2="244.49699" /><radialGradient cx="43.766102" cy="87.902298" fx="0" fy="0" gradientTransform="matrix(1.9728 0 0 -2.039 314.1896 402.5936)" gradientUnits="userSpaceOnUse" id="head" r="4.4296999"><stop offset="0" stop-color="#FDFCFA" /><stop offset="1" stop-color="#8B9BA7" /></radialGradient><ellipse cx="400.53201" cy="223.35899" rx="9.2180004" ry="8.5080004" style="fill:url(#head)" /></g></symbol><linearGradient id=".SystemComponentFillGradient" x1="0%" x2="0%" y1="0%" y2="100%"><stop offset="0" stop-color="#DAFDFF" /><stop offset="1" stop-color="#C6E6FF" /></linearGradient><linearGradient id=".SystemActorFillGradient" x1="0%" x2="0%" y1="0%" y2="100%"><stop offset="0" stop-color="#DAFDFF" /><stop offset="1" stop-color="#C6E6FF" /></linearGradient><linearGradient id=".SystemHumanActorFillGradient" x1="0%" x2="0%" y1="0%" y2="100%"><stop offset="0" stop-color="#DAFDFF" /><stop offset="1" stop-color="#C6E6FF" /></linearGradient><linearGradient id=".CapabilityFillGradient" x1="0%" x2="0%" y1="0%" y2="100%"><stop offset="0" stop-color="#F9F8F5" /><stop offset="1" stop-color="#DDDDC8" /></linearGradient><linearGradient id=".MissionFillGradient" x1="0%" x2="0%" y1="0%" y2="100%"><stop offset="0" stop-color="#F9F8F5" /><stop offset="1" stop-color="#DDDDC8" /></linearGradient><marker id="FineArrowMark_000000" markerHeight="7.5" markerUnits="userSpaceOnUse" markerWidth="7.5" orient="auto" refX="7" refY="3.5"><path d="M 0.4535,0.107 7.309,3.621 0.492,7.407 0.144,7.407 6.414,3.63 0.136,0.479 Z" style="fill: #000000; stroke: #000000; stroke-width: 1" /></marker></defs><rect fill="white" height="139" stroke="none" width="487" x="2" y="2" /><g class="Box Mission" id="5bf3f1e3-0f5e-4fec-81d5-c113d3a1b3a6"><use class="Mission" height="54" width="95" x="12.5" xlink:href="#MissionSymbol" y="12.5" /><text class="Annotation" dominant-baseline="middle" text-anchor="middle" x="17" y="71"><tspan x="60.0" xml:space="preserve" y="77.42857142857143">Top secret</tspan></text></g><g class="Box SystemHumanActor" id="344a405e-c7e5-4367-8a9a-41d3d9a27f81"><use class="SystemHumanActor" height="17" width="30" x="414.5" xlink:href="#SystemHumanActorSymbol" y="22.5" /><text class="Annotation" dominant-baseline="middle" text-anchor="middle" x="379" y="44"><tspan x="429.0" xml:space="preserve" y="50.42857142857143">Kevin Spacey</tspan></text></g><g class="Box Capability" id="9390b7d5-598a-42db-bef8-23677e45ba06"><use class="Capability" height="17" width="30" x="414.5" xlink:href="#CapabilitySymbol" y="86.5" /><text class="Annotation" dominant-baseline="middle" text-anchor="middle" x="387" y="108"><tspan x="429.0" xml:space="preserve" y="114.42857142857143">Capability</tspan></text></g><g class="Edge MissionInvolvement" id="4ec609b6-e3bf-4be1-ba09-14da9c920ef3"><path class="Edge" d="M 107.5 30.5 414.5 30.5" style="marker-end: url(&quot;#FineArrowMark_000000&quot;)" /><rect class="AnnotationBB" height="23" width="231" x="127" y="33" /><text class="Annotation" dominant-baseline="middle" text-anchor="middle" x="127" y="33"><tspan x="242.5" xml:space="preserve" y="39.42857142857143">[MissionInvolvement] to Kevin Spacey</tspan></text></g><g class="Edge CapabilityExploitation" id="4513c8cd-b94b-4bde-bd00-4c18aaf600ff"><path class="Edge" d="M 107.5 48.5 117.5 48.5 117.5 95.5 414.5 95.5" style="marker-end: url(&quot;#FineArrowMark_000000&quot;)" /><rect class="AnnotationBB" height="23" width="224" x="131" y="98" /><text class="Annotation" dominant-baseline="middle" text-anchor="middle" x="131" y="98"><tspan x="243.0" xml:space="preserve" y="104.42857142857143">[CapabilityExploitation] to Capability</tspan></text></g></svg>
