<svg baseProfile="full" class="PhysicalArchitectureBlank" font-family="'Open Sans','Segoe UI',Arial,sans-serif" font-size="11px" height="112" shape-rendering="geometricPrecision" version="1.1" viewBox="2 2 479 112" width="479" xmlns="http://www.w3.org/2000/svg" xmlns:ev="http://www.w3.org/2001/xml-events" xmlns:xlink="http://www.w3.org/1999/xlink"><defs><symbol id="PhysicalNodeComponentSymbol" stroke="#000" stroke-width="2" viewBox="0 0 79 79"><path d="M18 237h46v43H18z" fill="#ffff00" transform="translate(0 -218)" /><path d="M12 247h11v8H12z" fill="#ffff00" transform="translate(0 -218)" /><path d="M12 261h11v8H12z" fill="#ffff00" transform="translate(0 -218)" /><path d="m 57.589299,33.276194 c 0,1.410473 -0.249326,2.72122 -0.747979,3.93224 -0.484407,1.19676 -1.168275,2.236807 -2.051603,3.12014 -1.097038,1.097033 -2.393538,1.923373 -3.889499,2.47902 -1.495959,0.541393 -3.383718,0.81209 -5.663277,0.81209 h -4.231429 v 11.86083 h -4.23143 v -31.82122 h 8.633826 c 1.909129,0 3.526191,0.163843 4.851185,0.49153 1.324993,0.31344 2.500391,0.812097 3.526192,1.49597 1.211016,0.812087 2.14421,1.82364 2.799583,3.03466 0.669621,1.211013 1.004431,2.742593 1.004431,4.59474 z m -4.402396,0.10687 c 0,-1.09704 -0.192339,-2.051607 -0.577016,-2.8637 -0.384675,-0.812093 -0.968811,-1.47459 -1.752408,-1.98749 -0.683868,-0.441667 -1.467467,-0.755107 -2.350798,-0.94032 -0.869079,-0.19946 -1.97324,-0.29919 -3.312483,-0.29919 h -4.188686 v 12.71566 h 3.568931 c 1.709669,0 3.098776,-0.149593 4.167321,-0.44878 1.068543,-0.31344 1.937623,-0.80497 2.607242,-1.47459 0.669621,-0.683867 1.139781,-1.403353 1.410478,-2.15846 0.284946,-0.7551 0.427419,-1.60281 0.427419,-2.54313 z" fill="#000" stroke-width="0.1" /></symbol><linearGradient id="CustomGradient_FFFFDC_FFFCB7" x1="0" x2="0" y1="0" y2="1"><stop offset="0.0" stop-color="#FFFFDC" stop-opacity="1" /><stop offset="1.0" stop-color="#FFFCB7" stop-opacity="1" /></linearGradient><symbol id="PhysicalBehaviorComponentSymbol" stroke="#000" stroke-width="2" viewBox="0 0 79 79"><path d="M18 237h46v43H18z" fill="#a5bde7" transform="translate(0 -218)" /><path d="M12 247h11v8H12z" fill="#a5bde7" transform="translate(0 -218)" /><path d="M12 261h11v8H12z" fill="#a5bde7" transform="translate(0 -218)" /><path d="m 57.589299,33.276194 c 0,1.410473 -0.249326,2.72122 -0.747979,3.93224 -0.484407,1.19676 -1.168275,2.236807 -2.051603,3.12014 -1.097038,1.097033 -2.393538,1.923373 -3.889499,2.47902 -1.495959,0.541393 -3.383718,0.81209 -5.663277,0.81209 h -4.231429 v 11.86083 h -4.23143 v -31.82122 h 8.633826 c 1.909129,0 3.526191,0.163843 4.851185,0.49153 1.324993,0.31344 2.500391,0.812097 3.526192,1.49597 1.211016,0.812087 2.14421,1.82364 2.799583,3.03466 0.669621,1.211013 1.004431,2.742593 1.004431,4.59474 z m -4.402396,0.10687 c 0,-1.09704 -0.192339,-2.051607 -0.577016,-2.8637 -0.384675,-0.812093 -0.968811,-1.47459 -1.752408,-1.98749 -0.683868,-0.441667 -1.467467,-0.755107 -2.350798,-0.94032 -0.869079,-0.19946 -1.97324,-0.29919 -3.312483,-0.29919 h -4.188686 v 12.71566 h 3.568931 c 1.709669,0 3.098776,-0.149593 4.167321,-0.44878 1.068543,-0.31344 1.937623,-0.80497 2.607242,-1.47459 0.669621,-0.683867 1.139781,-1.403353 1.410478,-2.15846 0.284946,-0.7551 0.427419,-1.60281 0.427419,-2.54313 z" fill="#000" stroke-width="0.1" /></symbol><linearGradient id="CustomGradient_C3E6FF_96B1DA" x1="0" x2="0" y1="0" y2="1"><stop offset="0.0" stop-color="#C3E6FF" stop-opacity="1" /><stop offset="1.0" stop-color="#96B1DA" stop-opacity="1" /></linearGradient><symbol id="ComponentExchangeSymbol" viewBox="0 0 40 30"><linearGradient id="ComponentExchangeSymbol-gradient" x1="0" x2="1" y1="0" y2="1"><stop offset="0.0" stop-color="#8FA5B6" stop-opacity="1" /><stop offset="1.0" stop-color="#E0E9F3" stop-opacity="1" /></linearGradient><linearGradient id="ComponentExchangeSymbol-gradientreverse" x1="0" x2="1" y1="0" y2="1"><stop offset="0.0" stop-color="#E0E9F3" stop-opacity="1" /><stop offset="1.0" stop-color="#8FA5B6" stop-opacity="1" /></linearGradient><g stroke="#000" stroke-width="2"><path d="M 36.190065,5.0377724 V 24.962228 H 26.17482 V 5.0377724 Z" fill="url(#ComponentExchangeSymbol-gradientreverse)" /><path d="m 14.372107,10 h 12.622435 c 0.926189,0.585267 1.836022,1.274509 2.268178,5 -0.208657,2.812473 -0.954601,4.503809 -2.273297,5 H 14.296948" fill="#A3BCD0" /><path d="M 3.9464908,5.0048246 V 24.995175 H 10.87518 C 12.433713,24.159139 15.158267,20.291241 15.313795,15 15.498614,11.583142 14.059659,6.6240913 10.87518,5.0048246 c -2.2179509,0 -4.5908341,0 -6.9286892,0 z" fill="url(#ComponentExchangeSymbol-gradient)" /></g></symbol><symbol id="ComponentPortSymbol" viewBox="0 0 10 10"><path d="M0 0h10v10H0z" /><path d="M 2,2 5,7 8,2" /></symbol></defs><rect fill="#fff" height="112" stroke="none" width="479" x="2" y="2" /><g class="Box PhysicalNodeComponent context-25f46b82-1bb8-495a-b6bc-3ad086aad02e context-2de65884-8c89-4c55-8941-4aa1a07b8d86 context-313f48f4-fb7e-47a8-b28a-76440932fcb9 context-b9f9a83c-fb02-44f7-9123-9d86326de5f1 context-db2d7b36-8144-4ec7-8673-206faaf4590e context-f61701c6-bfc2-4549-91d9-f76efaf0c9ee" id="b9f9a83c-fb02-44f7-9123-9d86326de5f1"><rect class="PhysicalNodeComponent" fill="url(&quot;#CustomGradient_FFFFDC_FFFCB7&quot;)" height="92" stroke="#7B694F" stroke-width="1" width="459" x="12.5" y="12.5" /><text class="PhysicalNodeComponent" dominant-baseline="middle" fill="#000000" text-anchor="middle" x="164" y="17"><tspan x="253.0" xml:space="preserve" y="29.285714285714285">Physical System</tspan></text><use height="20" width="20" x="189.0952380952381" xlink:href="#PhysicalNodeComponentSymbol" y="19.285714285714285" /></g><g class="Box PhysicalBehaviorComponent context-25f46b82-1bb8-495a-b6bc-3ad086aad02e context-2de65884-8c89-4c55-8941-4aa1a07b8d86 context-313f48f4-fb7e-47a8-b28a-76440932fcb9 context-b9f9a83c-fb02-44f7-9123-9d86326de5f1 context-db2d7b36-8144-4ec7-8673-206faaf4590e context-f61701c6-bfc2-4549-91d9-f76efaf0c9ee" id="313f48f4-fb7e-47a8-b28a-76440932fcb9"><rect class="PhysicalBehaviorComponent" fill="url(&quot;#CustomGradient_C3E6FF_96B1DA&quot;)" height="42" rx="10px" ry="10px" stroke="#4A4A97" stroke-width="4" width="133" x="25.5" y="50.5" /><text class="PhysicalBehaviorComponent" dominant-baseline="middle" fill="#000000" font-style="italic" text-anchor="middle" x="24" y="63"><tspan x="98.5" xml:space="preserve" y="73.14285714285714">PC Software</tspan></text><use height="20" width="20" x="44.11904761904762" xlink:href="#PhysicalBehaviorComponentSymbol" y="63.14285714285714" /></g><g class="Box PhysicalBehaviorComponent context-25f46b82-1bb8-495a-b6bc-3ad086aad02e context-2de65884-8c89-4c55-8941-4aa1a07b8d86 context-313f48f4-fb7e-47a8-b28a-76440932fcb9 context-b9f9a83c-fb02-44f7-9123-9d86326de5f1 context-db2d7b36-8144-4ec7-8673-206faaf4590e context-f61701c6-bfc2-4549-91d9-f76efaf0c9ee" id="2de65884-8c89-4c55-8941-4aa1a07b8d86"><rect class="PhysicalBehaviorComponent" fill="url(&quot;#CustomGradient_C3E6FF_96B1DA&quot;)" height="42" rx="10px" ry="10px" stroke="#4A4A97" stroke-width="1" width="155" x="304.5" y="50.5" /><text class="PhysicalBehaviorComponent" dominant-baseline="middle" fill="#000000" font-style="italic" text-anchor="middle" x="311" y="63"><tspan x="396.5" xml:space="preserve" y="73.14285714285714">Node Software</tspan></text><use height="20" width="20" x="334.9761904761905" xlink:href="#PhysicalBehaviorComponentSymbol" y="63.14285714285714" /></g><g class="Edge ComponentExchange context-25f46b82-1bb8-495a-b6bc-3ad086aad02e context-2de65884-8c89-4c55-8941-4aa1a07b8d86 context-313f48f4-fb7e-47a8-b28a-76440932fcb9 context-b9f9a83c-fb02-44f7-9123-9d86326de5f1 context-db2d7b36-8144-4ec7-8673-206faaf4590e context-f61701c6-bfc2-4549-91d9-f76efaf0c9ee" id="25f46b82-1bb8-495a-b6bc-3ad086aad02e"><path class="Edge" d="M 160.5 71.5 302.5 71.5" fill="none" stroke="#4A4A97" stroke-width="2" /><text class="Annotation" dominant-baseline="middle" fill="#4A4A97" text-anchor="middle" x="168.0" y="74"><tspan x="242.5" xml:space="preserve" y="84.14285714285714">Interface</tspan></text><use height="20" width="20" x="194.6904761904762" xlink:href="#ComponentExchangeSymbol" y="74.14285714285714" /></g><g class="Box CP_OUT context-25f46b82-1bb8-495a-b6bc-3ad086aad02e context-2de65884-8c89-4c55-8941-4aa1a07b8d86 context-313f48f4-fb7e-47a8-b28a-76440932fcb9 context-b9f9a83c-fb02-44f7-9123-9d86326de5f1 context-db2d7b36-8144-4ec7-8673-206faaf4590e context-f61701c6-bfc2-4549-91d9-f76efaf0c9ee" id="db2d7b36-8144-4ec7-8673-206faaf4590e"><use class="CP_OUT" fill="#FFFFFF" height="10" stroke="#000000" stroke-width="1" transform="rotate(-90 155.5 71.5)" width="10" x="150.5" xlink:href="#ComponentPortSymbol" y="66.5" /></g><g class="Box CP_IN context-25f46b82-1bb8-495a-b6bc-3ad086aad02e context-2de65884-8c89-4c55-8941-4aa1a07b8d86 context-313f48f4-fb7e-47a8-b28a-76440932fcb9 context-b9f9a83c-fb02-44f7-9123-9d86326de5f1 context-db2d7b36-8144-4ec7-8673-206faaf4590e context-f61701c6-bfc2-4549-91d9-f76efaf0c9ee" id="f61701c6-bfc2-4549-91d9-f76efaf0c9ee"><use class="CP_IN" fill="#FFFFFF" height="10" stroke="#000000" stroke-width="1" transform="rotate(270 307.5 71.5)" width="10" x="302.5" xlink:href="#ComponentPortSymbol" y="66.5" /></g></svg>
