<svg baseProfile="full" class="MissionsCapabilitiesBlank" font-family="'Open Sans','Segoe UI',Arial,sans-serif" font-size="11px" height="138" shape-rendering="geometricPrecision" version="1.1" viewBox="2 2 435 138" width="435" xmlns="http://www.w3.org/2000/svg" xmlns:ev="http://www.w3.org/2001/xml-events" xmlns:xlink="http://www.w3.org/1999/xlink"><defs><symbol id="MissionSymbol" viewBox="0 0 50 37"><radialGradient cx="25.657873" cy="25.925144" fx="25.657873" fy="25.925144" gradientTransform="matrix(1.471657,0.01303118,-0.03846138,4.3435681,-11.744602,-94.299935)" gradientUnits="userSpaceOnUse" id="brown_oval" r="20.562483"><stop offset="0" stop-color="#ffffff" /><stop offset="1" stop-color="#d0ab84" /></radialGradient><ellipse cx="25.017874" cy="18.64205" fill="url(#brown_oval)" rx="24.564632" ry="17.453819" stroke="#563b18" stroke-width="1" /><path d="M 34.809129,31.801245 31.33755,31.878525 30.470956,18.609297 C 30.399426,17.514106 30.01851,15.93283 30.153514,14.341649 h -0.05786 c -0.212157,0.906491 -0.400206,1.557429 -0.564146,1.952814 L 23.340365,31.801245 H 20.968059 L 14.762452,16.410183 c -0.173583,-0.453245 -0.35681,-1.142757 -0.549681,-2.068536 h -0.05786 c 0.07715,0.829343 -0.117081,2.344989 -0.230914,4.219301 L 13.115176,31.878523 9.9328121,31.801245 11.08827,11.058028 h 4.84587 l 5.453412,13.814346 c 0.414671,1.060787 0.68469,1.851556 0.810056,2.372306 h 0.07233 c 0.356811,-1.089718 0.646116,-1.899774 0.867917,-2.430167 L 28.69252,11.058028 h 4.672287 z" fill="#000" stroke="none" transform="matrix(0.86023492,0,0,0.64311175,6.4177697,4.9887121)" /></symbol><marker id="FineArrowMark_000000" markerHeight="7.5" markerUnits="userSpaceOnUse" markerWidth="7.5" orient="auto" refX="7" refY="3.75"><path d="M 0.4535,0.107 7.309,3.621 0.492,7.407 0.144,7.407 6.414,3.63 0.136,0.479 Z" fill="none" stroke="#000000" stroke-width="1" /></marker><symbol id="SystemHumanActorSymbol" stroke="#000" stroke-width="2" viewBox="0 0 79 79"><use transform="matrix(0.81762456,0,0,0.81762456,-2.5207584,0.47091696)" xlink:href="#StickFigureSymbol" /></symbol><symbol id="StickFigureSymbol" stroke="#000" stroke-width="2" viewBox="362.861 210.892 75 75"><g stroke="#000" stroke-width="2.4944" transform="matrix(1.0611338,0,0,1.0611338,-24.47665,-12.241673)"><line fill="none" x1="400.362" x2="400.362" y1="232.586" y2="257.534" /><line fill="none" x1="400.83401" x2="388.423" y1="254.299" y2="275.009" /><line fill="none" x1="400.25201" x2="413.97" y1="254.46001" y2="274.987" /><line fill="none" x1="385.634" x2="415.703" y1="244.569" y2="244.49699" /><ellipse cx="400.53201" cy="223.35899" fill="none" rx="9.2180004" ry="8.5080004" /></g></symbol><linearGradient id="CustomGradient_DAFDFF_C6E6FF" x1="0" x2="0" y1="0" y2="1"><stop offset="0.0" stop-color="#DAFDFF" stop-opacity="1" /><stop offset="1.0" stop-color="#C6E6FF" stop-opacity="1" /></linearGradient><symbol id="CapabilitySymbol" viewBox="0 0 50 37"><radialGradient cx="25.657873" cy="25.925144" fx="25.657873" fy="25.925144" gradientTransform="matrix(1.471657,0.01303118,-0.03846138,4.3435681,-11.744602,-94.299935)" gradientUnits="userSpaceOnUse" id="brown_oval" r="20.562483"><stop offset="0" stop-color="#ffffff" /><stop offset="1" stop-color="#d0ab84" /></radialGradient><ellipse cx="25.017874" cy="18.64205" fill="url(#brown_oval)" rx="24.564632" ry="17.453819" stroke="#563b18" stroke-width="1" /><g transform="matrix(0.86023492,0,0,0.64311175,6.4177697,4.9887121)"><path d="m 25.147125,33.08327 q -2.060058,0.997225 -5.379769,0.997225 -4.330058,0 -6.81,-2.545549 -2.479942,-2.545549 -2.479942,-6.783757 0,-4.513757 2.781734,-7.321734 2.794856,-2.807977 7.243006,-2.807977 2.755491,0 4.644971,0.695434 v 4.080751 q -1.88948,-1.128439 -4.303815,-1.128439 -2.65052,0 -4.277572,1.666416 -1.627052,1.666416 -1.627052,4.513757 0,2.729249 1.535202,4.356301 1.535202,1.61393 4.133237,1.61393 2.479942,0 4.54,-1.207167 z" fill="#000" stroke="none" transform="scale(1.1743865,0.85150843)" /></g></symbol><linearGradient id="CustomGradient_F9F8F5_DDDDC8" x1="0" x2="0" y1="0" y2="1"><stop offset="0.0" stop-color="#F9F8F5" stop-opacity="1" /><stop offset="1.0" stop-color="#DDDDC8" stop-opacity="1" /></linearGradient></defs><rect fill="#fff" height="138" stroke="none" width="435" x="2" y="2" /><g class="Box Mission context-344a405e-c7e5-4367-8a9a-41d3d9a27f81 context-4513c8cd-b94b-4bde-bd00-4c18aaf600ff context-4ec609b6-e3bf-4be1-ba09-14da9c920ef3 context-5bf3f1e3-0f5e-4fec-81d5-c113d3a1b3a6 context-9390b7d5-598a-42db-bef8-23677e45ba06" id="5bf3f1e3-0f5e-4fec-81d5-c113d3a1b3a6"><rect class="Mission" fill="#FFFFFF" height="68" stroke="#888888" stroke-dasharray="3" stroke-width="4" width="119" x="12.5" y="47.5" /><text class="Mission" dominant-baseline="middle" fill="#000000" text-anchor="middle" x="15" y="71"><tspan x="82.5" xml:space="preserve" y="80.57142857142857">Top secret</tspan></text><use height="20" width="20" x="32.88095238095238" xlink:href="#MissionSymbol" y="70.57142857142857" /></g><g class="Edge MissionInvolvement context-344a405e-c7e5-4367-8a9a-41d3d9a27f81 context-4513c8cd-b94b-4bde-bd00-4c18aaf600ff context-4ec609b6-e3bf-4be1-ba09-14da9c920ef3 context-5bf3f1e3-0f5e-4fec-81d5-c113d3a1b3a6 context-9390b7d5-598a-42db-bef8-23677e45ba06" id="4ec609b6-e3bf-4be1-ba09-14da9c920ef3"><path class="Edge" d="M 131.5 69.5 141.5 69.5 141.5 24.5 338.5 24.5" fill="none" marker-end="url(&quot;#FineArrowMark_000000&quot;)" stroke="#000000" stroke-width="1" /><text class="Annotation" dominant-baseline="middle" text-anchor="middle" x="151" y="27"><tspan x="211.0" xml:space="preserve" y="37.14285714285714">« involves »</tspan></text></g><g class="Edge CapabilityExploitation context-344a405e-c7e5-4367-8a9a-41d3d9a27f81 context-4513c8cd-b94b-4bde-bd00-4c18aaf600ff context-4ec609b6-e3bf-4be1-ba09-14da9c920ef3 context-5bf3f1e3-0f5e-4fec-81d5-c113d3a1b3a6 context-9390b7d5-598a-42db-bef8-23677e45ba06" id="4513c8cd-b94b-4bde-bd00-4c18aaf600ff"><path class="Edge" d="M 131.5 92.5 338.5 92.5" fill="none" marker-end="url(&quot;#FineArrowMark_000000&quot;)" stroke="#000000" stroke-width="1" /><text class="Annotation" dominant-baseline="middle" text-anchor="middle" x="152" y="95"><tspan x="211.5" xml:space="preserve" y="107.28571428571429">« exploits »</tspan></text></g><g class="Box SystemHumanActor context-344a405e-c7e5-4367-8a9a-41d3d9a27f81 context-4513c8cd-b94b-4bde-bd00-4c18aaf600ff context-4ec609b6-e3bf-4be1-ba09-14da9c920ef3 context-5bf3f1e3-0f5e-4fec-81d5-c113d3a1b3a6 context-9390b7d5-598a-42db-bef8-23677e45ba06" id="344a405e-c7e5-4367-8a9a-41d3d9a27f81"><use class="SystemHumanActor" fill="url(&quot;#CustomGradient_DAFDFF_C6E6FF&quot;)" height="24" stroke="#4A4A97" stroke-width="1" width="42" x="338.5" xlink:href="#SystemHumanActorSymbol" y="12.5" /><text class="Annotation" dominant-baseline="middle" fill="#000000" text-anchor="middle" x="291" y="41"><tspan x="359.0" xml:space="preserve" y="49.57142857142857">Kevin Spacey</tspan></text></g><g class="Box Capability context-344a405e-c7e5-4367-8a9a-41d3d9a27f81 context-4513c8cd-b94b-4bde-bd00-4c18aaf600ff context-4ec609b6-e3bf-4be1-ba09-14da9c920ef3 context-5bf3f1e3-0f5e-4fec-81d5-c113d3a1b3a6 context-9390b7d5-598a-42db-bef8-23677e45ba06" id="9390b7d5-598a-42db-bef8-23677e45ba06"><use class="Capability" fill="url(&quot;#CustomGradient_F9F8F5_DDDDC8&quot;)" height="24" stroke="#454545" stroke-width="1" width="42" x="338.5" xlink:href="#CapabilitySymbol" y="80.5" /><text class="Annotation" dominant-baseline="middle" fill="#000000" text-anchor="middle" x="304" y="109"><tspan x="359.0" xml:space="preserve" y="118.28571428571429">Capability</tspan></text></g></svg>
