<svg baseProfile="full" class="MissionsCapabilitiesBlank" font-family="'Open Sans','Segoe UI',Arial,sans-serif" font-size="11px" height="218" shape-rendering="geometricPrecision" version="1.1" viewBox="2 2 751 218" width="751" xmlns="http://www.w3.org/2000/svg" xmlns:ev="http://www.w3.org/2001/xml-events" xmlns:xlink="http://www.w3.org/1999/xlink"><defs><symbol id="CapabilitySymbol" viewBox="0 0 50 37"><radialGradient cx="25.657873" cy="25.925144" fx="25.657873" fy="25.925144" gradientTransform="matrix(1.471657,0.01303118,-0.03846138,4.3435681,-11.744602,-94.299935)" gradientUnits="userSpaceOnUse" id="brown_oval" r="20.562483"><stop offset="0" stop-color="#ffffff" /><stop offset="1" stop-color="#d0ab84" /></radialGradient><ellipse cx="25.017874" cy="18.64205" fill="url(#brown_oval)" rx="24.564632" ry="17.453819" stroke="#563b18" stroke-width="1" /><g transform="matrix(0.86023492,0,0,0.64311175,6.4177697,4.9887121)"><path d="m 25.147125,33.08327 q -2.060058,0.997225 -5.379769,0.997225 -4.330058,0 -6.81,-2.545549 -2.479942,-2.545549 -2.479942,-6.783757 0,-4.513757 2.781734,-7.321734 2.794856,-2.807977 7.243006,-2.807977 2.755491,0 4.644971,0.695434 v 4.080751 q -1.88948,-1.128439 -4.303815,-1.128439 -2.65052,0 -4.277572,1.666416 -1.627052,1.666416 -1.627052,4.513757 0,2.729249 1.535202,4.356301 1.535202,1.61393 4.133237,1.61393 2.479942,0 4.54,-1.207167 z" fill="#000" stroke="none" transform="scale(1.1743865,0.85150843)" /></g></symbol><marker id="FineArrowMark_000000" markerHeight="7.5" markerUnits="userSpaceOnUse" markerWidth="7.5" orient="auto" refX="7" refY="3.75"><path d="M 0.4535,0.107 7.309,3.621 0.492,7.407 0.144,7.407 6.414,3.63 0.136,0.479 Z" fill="none" stroke="#000000" stroke-width="1" /></marker><marker id="GeneralizationMark_000000" markerHeight="7.5" markerUnits="userSpaceOnUse" markerWidth="7.5" orient="auto" refX="7" refY="4"><path d="M 0.1275,7.5 7.5,3.75 0,0 Z" fill="none" stroke="#000000" stroke-width="1" /></marker><linearGradient id="CustomGradient_F9F8F5_DDDDC8" x1="0" x2="0" y1="0" y2="1"><stop offset="0.0" stop-color="#F9F8F5" stop-opacity="1" /><stop offset="1.0" stop-color="#DDDDC8" stop-opacity="1" /></linearGradient><symbol id="SystemHumanActorSymbol" stroke="#000" stroke-width="2" viewBox="0 0 79 79"><use transform="matrix(0.81762456,0,0,0.81762456,-2.5207584,0.47091696)" xlink:href="#StickFigureSymbol" /></symbol><symbol id="StickFigureSymbol" stroke="#000" stroke-width="2" viewBox="362.861 210.892 75 75"><g stroke="#000" stroke-width="2.4944" transform="matrix(1.0611338,0,0,1.0611338,-24.47665,-12.241673)"><line fill="none" x1="400.362" x2="400.362" y1="232.586" y2="257.534" /><line fill="none" x1="400.83401" x2="388.423" y1="254.299" y2="275.009" /><line fill="none" x1="400.25201" x2="413.97" y1="254.46001" y2="274.987" /><line fill="none" x1="385.634" x2="415.703" y1="244.569" y2="244.49699" /><ellipse cx="400.53201" cy="223.35899" fill="none" rx="9.2180004" ry="8.5080004" /></g></symbol><linearGradient id="CustomGradient_DAFDFF_C6E6FF" x1="0" x2="0" y1="0" y2="1"><stop offset="0.0" stop-color="#DAFDFF" stop-opacity="1" /><stop offset="1.0" stop-color="#C6E6FF" stop-opacity="1" /></linearGradient><symbol id="SystemActorSymbol" viewBox="0 0 79 79"><g transform="matrix(1.4376083,0,0,1.3022512,-15.958775,-15.416201)"><path d="M 17.819891,20.041161 H 65.286364 V 64.242623 H 17.819891 Z" fill="#bdf7ff" stroke="#454647" /><path d="m 12.064948,25.832262 h 11.521155 v 6.687244 H 12.064948 Z" fill="#e3ebf8" stroke="#454647" /><path d="m 12.050427,34.529197 h 11.455007 v 6.635451 H 12.050427 Z" fill="#e3ebf8" stroke="#454647" /><g fill="#000" stroke="none" transform="matrix(0.83129224,0,0,0.89544642,8.0334318,11.729573)"><path d="m 22.506995,47.687597 v -4.602148 q 0.619881,0.563528 1.465173,1.014351 0.864077,0.450823 1.822075,0.770155 0.957998,0.300549 1.915996,0.469607 0.957999,0.169059 1.765722,0.169059 2.817642,0 4.188894,-0.939214 1.390037,-0.939214 1.390037,-2.72372 0,-0.957998 -0.469607,-1.653017 -0.450823,-0.713802 -1.277331,-1.296115 -0.826508,-0.582312 -1.953565,-1.108272 -1.108272,-0.544744 -2.385603,-1.127057 -1.371252,-0.732587 -2.554662,-1.483958 -1.183409,-0.751371 -2.06627,-1.653016 -0.864077,-0.92043 -1.371252,-2.06627 -0.488392,-1.145841 -0.488392,-2.686152 0,-1.897212 0.845293,-3.287249 0.864077,-1.40882 2.254113,-2.310466 1.408821,-0.920429 3.193327,-1.352468 1.784507,-0.450822 3.64415,-0.450822 4.226462,0 6.161243,0.957998 v 4.414305 q -2.291682,-1.653016 -5.898263,-1.653016 -0.995567,0 -1.991134,0.187842 -0.976782,0.187843 -1.765722,0.619882 -0.770155,0.432038 -1.258546,1.108272 -0.488391,0.676234 -0.488391,1.634232 0,0.901645 0.375685,1.559095 0.375686,0.65745 1.089488,1.202194 0.732587,0.544744 1.765722,1.070703 1.05192,0.507176 2.423172,1.108273 1.408821,0.732587 2.648583,1.540311 1.258547,0.807723 2.197761,1.784506 0.957998,0.976782 1.502742,2.178976 0.563528,1.18341 0.563528,2.704936 0,2.047486 -0.826508,3.456307 -0.826508,1.408821 -2.235329,2.291682 -1.390037,0.882861 -3.212112,1.277331 -1.822074,0.394469 -3.850776,0.394469 -0.676234,0 -1.671801,-0.112705 -0.976782,-0.09392 -2.009918,-0.300549 -1.033135,-0.187842 -1.953564,-0.469607 -0.92043,-0.281764 -1.483958,-0.638665 z" /><path d="M 66.819105,48.758301 H 61.916408 L 59.493237,41.90204 H 48.898904 l -2.32925,6.856261 H 41.685742 L 51.772899,21.821647 h 5.034186 z M 58.309827,38.25789 54.571756,27.513283 q -0.169058,-0.525959 -0.356901,-1.690585 h -0.07514 q -0.169059,1.070704 -0.375686,1.690585 L 50.06353,38.25789 Z" /></g></g></symbol><symbol id="MissionSymbol" viewBox="0 0 50 37"><radialGradient cx="25.657873" cy="25.925144" fx="25.657873" fy="25.925144" gradientTransform="matrix(1.471657,0.01303118,-0.03846138,4.3435681,-11.744602,-94.299935)" gradientUnits="userSpaceOnUse" id="brown_oval" r="20.562483"><stop offset="0" stop-color="#ffffff" /><stop offset="1" stop-color="#d0ab84" /></radialGradient><ellipse cx="25.017874" cy="18.64205" fill="url(#brown_oval)" rx="24.564632" ry="17.453819" stroke="#563b18" stroke-width="1" /><path d="M 34.809129,31.801245 31.33755,31.878525 30.470956,18.609297 C 30.399426,17.514106 30.01851,15.93283 30.153514,14.341649 h -0.05786 c -0.212157,0.906491 -0.400206,1.557429 -0.564146,1.952814 L 23.340365,31.801245 H 20.968059 L 14.762452,16.410183 c -0.173583,-0.453245 -0.35681,-1.142757 -0.549681,-2.068536 h -0.05786 c 0.07715,0.829343 -0.117081,2.344989 -0.230914,4.219301 L 13.115176,31.878523 9.9328121,31.801245 11.08827,11.058028 h 4.84587 l 5.453412,13.814346 c 0.414671,1.060787 0.68469,1.851556 0.810056,2.372306 h 0.07233 c 0.356811,-1.089718 0.646116,-1.899774 0.867917,-2.430167 L 28.69252,11.058028 h 4.672287 z" fill="#000" stroke="none" transform="matrix(0.86023492,0,0,0.64311175,6.4177697,4.9887121)" /></symbol></defs><rect fill="#fff" height="218" stroke="none" width="751" x="2" y="2" /><g class="Box Capability context-30f5613f-9611-4b36-9f46-aacfa00c687a context-344a405e-c7e5-4367-8a9a-41d3d9a27f81 context-41cf3250-187b-44ab-9e7e-7c0d1fd12f8a context-4513c8cd-b94b-4bde-bd00-4c18aaf600ff context-504c92c4-dc31-4065-9a82-31f277e59acb context-562c5128-5acd-45cc-8b49-1d8d686f450a context-5bf3f1e3-0f5e-4fec-81d5-c113d3a1b3a6 context-8f1d649c-8ac7-4ed1-b8c1-06faaf5c0eac context-9390b7d5-598a-42db-bef8-23677e45ba06 context-992c4ba5-0165-470d-b2d0-f117e00a645c context-da12377b-fb70-4441-8faa-3a5c153c5de2" id="9390b7d5-598a-42db-bef8-23677e45ba06"><rect class="Capability" fill="#FFFFFF" height="117" stroke="#888888" stroke-dasharray="3" stroke-width="4" width="116" x="287.5" y="83.5" /><text class="Capability" dominant-baseline="middle" fill="#000000" text-anchor="middle" x="290" y="131"><tspan x="356.0" xml:space="preserve" y="141.28571428571428">Capability</tspan></text><use height="20" width="20" x="307.3333333333333" xlink:href="#CapabilitySymbol" y="131.28571428571428" /></g><g class="Edge AbstractCapabilityInclude context-30f5613f-9611-4b36-9f46-aacfa00c687a context-344a405e-c7e5-4367-8a9a-41d3d9a27f81 context-41cf3250-187b-44ab-9e7e-7c0d1fd12f8a context-4513c8cd-b94b-4bde-bd00-4c18aaf600ff context-504c92c4-dc31-4065-9a82-31f277e59acb context-562c5128-5acd-45cc-8b49-1d8d686f450a context-5bf3f1e3-0f5e-4fec-81d5-c113d3a1b3a6 context-8f1d649c-8ac7-4ed1-b8c1-06faaf5c0eac context-9390b7d5-598a-42db-bef8-23677e45ba06 context-992c4ba5-0165-470d-b2d0-f117e00a645c context-da12377b-fb70-4441-8faa-3a5c153c5de2" id="41cf3250-187b-44ab-9e7e-7c0d1fd12f8a"><path class="Edge" d="M 326.5 83.5 326.5 73.5 364.5 73.5 364.5 83.5" fill="none" marker-end="url(&quot;#FineArrowMark_000000&quot;)" stroke="#000000" stroke-width="1" /><text class="Annotation" dominant-baseline="middle" text-anchor="middle" x="283" y="54"><tspan x="344.5" xml:space="preserve" y="64.14285714285714">« includes »</tspan></text></g><g class="Edge AbstractCapabilityExtend context-30f5613f-9611-4b36-9f46-aacfa00c687a context-344a405e-c7e5-4367-8a9a-41d3d9a27f81 context-41cf3250-187b-44ab-9e7e-7c0d1fd12f8a context-4513c8cd-b94b-4bde-bd00-4c18aaf600ff context-504c92c4-dc31-4065-9a82-31f277e59acb context-562c5128-5acd-45cc-8b49-1d8d686f450a context-5bf3f1e3-0f5e-4fec-81d5-c113d3a1b3a6 context-8f1d649c-8ac7-4ed1-b8c1-06faaf5c0eac context-9390b7d5-598a-42db-bef8-23677e45ba06 context-992c4ba5-0165-470d-b2d0-f117e00a645c context-da12377b-fb70-4441-8faa-3a5c153c5de2" id="992c4ba5-0165-470d-b2d0-f117e00a645c"><path class="Edge" d="M 403.5 106.5 416.5 106.5 416.5 12.5 598.5 12.5 598.5 33.5 654.5 33.5" fill="none" marker-end="url(&quot;#FineArrowMark_000000&quot;)" stroke="#000000" stroke-width="1" /><text class="Annotation" dominant-baseline="middle" text-anchor="middle" x="457" y="15"><tspan x="517.0" xml:space="preserve" y="25.142857142857142">« extends »</tspan></text></g><g class="Edge AbstractCapabilityGeneralization context-30f5613f-9611-4b36-9f46-aacfa00c687a context-344a405e-c7e5-4367-8a9a-41d3d9a27f81 context-41cf3250-187b-44ab-9e7e-7c0d1fd12f8a context-4513c8cd-b94b-4bde-bd00-4c18aaf600ff context-504c92c4-dc31-4065-9a82-31f277e59acb context-562c5128-5acd-45cc-8b49-1d8d686f450a context-5bf3f1e3-0f5e-4fec-81d5-c113d3a1b3a6 context-8f1d649c-8ac7-4ed1-b8c1-06faaf5c0eac context-9390b7d5-598a-42db-bef8-23677e45ba06 context-992c4ba5-0165-470d-b2d0-f117e00a645c context-da12377b-fb70-4441-8faa-3a5c153c5de2" id="504c92c4-dc31-4065-9a82-31f277e59acb"><path class="Edge" d="M 403.5 129.5 426.5 129.5 426.5 42.5 654.5 42.5" fill="none" marker-end="url(&quot;#GeneralizationMark_000000&quot;)" stroke="#000000" stroke-width="1" /><text class="Annotation" dominant-baseline="middle" text-anchor="middle" x="446" y="45"><tspan x="516.5" xml:space="preserve" y="57.285714285714285">« specializes »</tspan></text></g><g class="Edge CapabilityInvolvement context-30f5613f-9611-4b36-9f46-aacfa00c687a context-344a405e-c7e5-4367-8a9a-41d3d9a27f81 context-41cf3250-187b-44ab-9e7e-7c0d1fd12f8a context-4513c8cd-b94b-4bde-bd00-4c18aaf600ff context-504c92c4-dc31-4065-9a82-31f277e59acb context-562c5128-5acd-45cc-8b49-1d8d686f450a context-5bf3f1e3-0f5e-4fec-81d5-c113d3a1b3a6 context-8f1d649c-8ac7-4ed1-b8c1-06faaf5c0eac context-9390b7d5-598a-42db-bef8-23677e45ba06 context-992c4ba5-0165-470d-b2d0-f117e00a645c context-da12377b-fb70-4441-8faa-3a5c153c5de2" id="30f5613f-9611-4b36-9f46-aacfa00c687a"><path class="Edge" d="M 403.5 153.5 436.5 153.5 436.5 108.5 654.5 108.5" fill="none" marker-end="url(&quot;#FineArrowMark_000000&quot;)" stroke="#000000" stroke-width="1" /><text class="Annotation" dominant-baseline="middle" text-anchor="middle" x="457" y="111"><tspan x="517.0" xml:space="preserve" y="121.14285714285714">« involves »</tspan></text></g><g class="Edge CapabilityInvolvement context-30f5613f-9611-4b36-9f46-aacfa00c687a context-344a405e-c7e5-4367-8a9a-41d3d9a27f81 context-41cf3250-187b-44ab-9e7e-7c0d1fd12f8a context-4513c8cd-b94b-4bde-bd00-4c18aaf600ff context-504c92c4-dc31-4065-9a82-31f277e59acb context-562c5128-5acd-45cc-8b49-1d8d686f450a context-5bf3f1e3-0f5e-4fec-81d5-c113d3a1b3a6 context-8f1d649c-8ac7-4ed1-b8c1-06faaf5c0eac context-9390b7d5-598a-42db-bef8-23677e45ba06 context-992c4ba5-0165-470d-b2d0-f117e00a645c context-da12377b-fb70-4441-8faa-3a5c153c5de2" id="8f1d649c-8ac7-4ed1-b8c1-06faaf5c0eac"><path class="Edge" d="M 403.5 176.5 654.5 176.5" fill="none" marker-end="url(&quot;#FineArrowMark_000000&quot;)" stroke="#000000" stroke-width="1" /><text class="Annotation" dominant-baseline="middle" text-anchor="middle" x="457" y="179"><tspan x="517.0" xml:space="preserve" y="189.14285714285714">« involves »</tspan></text></g><g class="Edge CapabilityExploitation context-30f5613f-9611-4b36-9f46-aacfa00c687a context-344a405e-c7e5-4367-8a9a-41d3d9a27f81 context-41cf3250-187b-44ab-9e7e-7c0d1fd12f8a context-4513c8cd-b94b-4bde-bd00-4c18aaf600ff context-504c92c4-dc31-4065-9a82-31f277e59acb context-562c5128-5acd-45cc-8b49-1d8d686f450a context-5bf3f1e3-0f5e-4fec-81d5-c113d3a1b3a6 context-8f1d649c-8ac7-4ed1-b8c1-06faaf5c0eac context-9390b7d5-598a-42db-bef8-23677e45ba06 context-992c4ba5-0165-470d-b2d0-f117e00a645c context-da12377b-fb70-4441-8faa-3a5c153c5de2" id="4513c8cd-b94b-4bde-bd00-4c18aaf600ff"><path class="Edge" d="M 90.5 141.5 287.5 141.5" fill="none" marker-end="url(&quot;#FineArrowMark_000000&quot;)" stroke="#000000" stroke-width="1" /><text class="Annotation" dominant-baseline="middle" text-anchor="middle" x="145" y="144"><tspan x="204.5" xml:space="preserve" y="156.28571428571428">« exploits »</tspan></text></g><g class="Box Capability context-30f5613f-9611-4b36-9f46-aacfa00c687a context-344a405e-c7e5-4367-8a9a-41d3d9a27f81 context-41cf3250-187b-44ab-9e7e-7c0d1fd12f8a context-4513c8cd-b94b-4bde-bd00-4c18aaf600ff context-504c92c4-dc31-4065-9a82-31f277e59acb context-562c5128-5acd-45cc-8b49-1d8d686f450a context-5bf3f1e3-0f5e-4fec-81d5-c113d3a1b3a6 context-8f1d649c-8ac7-4ed1-b8c1-06faaf5c0eac context-9390b7d5-598a-42db-bef8-23677e45ba06 context-992c4ba5-0165-470d-b2d0-f117e00a645c context-da12377b-fb70-4441-8faa-3a5c153c5de2" id="562c5128-5acd-45cc-8b49-1d8d686f450a"><use class="Capability" fill="url(&quot;#CustomGradient_F9F8F5_DDDDC8&quot;)" height="29" stroke="#454545" stroke-width="1" width="51" x="654.5" xlink:href="#CapabilitySymbol" y="23.5" /><text class="Annotation" dominant-baseline="middle" fill="#000000" text-anchor="middle" x="630" y="57"><tspan x="680.0" xml:space="preserve" y="65.57142857142857">Capsoup</tspan></text></g><g class="Box SystemHumanActor context-30f5613f-9611-4b36-9f46-aacfa00c687a context-344a405e-c7e5-4367-8a9a-41d3d9a27f81 context-41cf3250-187b-44ab-9e7e-7c0d1fd12f8a context-4513c8cd-b94b-4bde-bd00-4c18aaf600ff context-504c92c4-dc31-4065-9a82-31f277e59acb context-562c5128-5acd-45cc-8b49-1d8d686f450a context-5bf3f1e3-0f5e-4fec-81d5-c113d3a1b3a6 context-8f1d649c-8ac7-4ed1-b8c1-06faaf5c0eac context-9390b7d5-598a-42db-bef8-23677e45ba06 context-992c4ba5-0165-470d-b2d0-f117e00a645c context-da12377b-fb70-4441-8faa-3a5c153c5de2" id="344a405e-c7e5-4367-8a9a-41d3d9a27f81"><use class="SystemHumanActor" fill="url(&quot;#CustomGradient_DAFDFF_C6E6FF&quot;)" height="24" stroke="#4A4A97" stroke-width="1" width="42" x="654.5" xlink:href="#SystemHumanActorSymbol" y="96.5" /><text class="Annotation" dominant-baseline="middle" fill="#000000" text-anchor="middle" x="608" y="125"><tspan x="676.0" xml:space="preserve" y="133.57142857142858">Kevin Spacey</tspan></text></g><g class="Box SystemActor context-30f5613f-9611-4b36-9f46-aacfa00c687a context-344a405e-c7e5-4367-8a9a-41d3d9a27f81 context-41cf3250-187b-44ab-9e7e-7c0d1fd12f8a context-4513c8cd-b94b-4bde-bd00-4c18aaf600ff context-504c92c4-dc31-4065-9a82-31f277e59acb context-562c5128-5acd-45cc-8b49-1d8d686f450a context-5bf3f1e3-0f5e-4fec-81d5-c113d3a1b3a6 context-8f1d649c-8ac7-4ed1-b8c1-06faaf5c0eac context-9390b7d5-598a-42db-bef8-23677e45ba06 context-992c4ba5-0165-470d-b2d0-f117e00a645c context-da12377b-fb70-4441-8faa-3a5c153c5de2" id="da12377b-fb70-4441-8faa-3a5c153c5de2"><use class="SystemActor" fill="url(&quot;#CustomGradient_DAFDFF_C6E6FF&quot;)" height="24" stroke="#4A4A97" stroke-width="1" width="42" x="654.5" xlink:href="#SystemActorSymbol" y="164.5" /><text class="Annotation" dominant-baseline="middle" fill="#000000" text-anchor="middle" x="633" y="193"><tspan x="675.0" xml:space="preserve" y="200.14285714285714">Affleck</tspan></text></g><g class="Box Mission context-30f5613f-9611-4b36-9f46-aacfa00c687a context-344a405e-c7e5-4367-8a9a-41d3d9a27f81 context-41cf3250-187b-44ab-9e7e-7c0d1fd12f8a context-4513c8cd-b94b-4bde-bd00-4c18aaf600ff context-504c92c4-dc31-4065-9a82-31f277e59acb context-562c5128-5acd-45cc-8b49-1d8d686f450a context-5bf3f1e3-0f5e-4fec-81d5-c113d3a1b3a6 context-8f1d649c-8ac7-4ed1-b8c1-06faaf5c0eac context-9390b7d5-598a-42db-bef8-23677e45ba06 context-992c4ba5-0165-470d-b2d0-f117e00a645c context-da12377b-fb70-4441-8faa-3a5c153c5de2" id="5bf3f1e3-0f5e-4fec-81d5-c113d3a1b3a6"><use class="Mission" fill="url(&quot;#CustomGradient_F9F8F5_DDDDC8&quot;)" height="24" stroke="#454545" stroke-width="1" width="42" x="47.5" xlink:href="#MissionSymbol" y="129.5" /><text class="Annotation" dominant-baseline="middle" fill="#000000" text-anchor="middle" x="12" y="158"><tspan x="68.5" xml:space="preserve" y="166.57142857142858">Top secret</tspan></text></g></svg>
