<svg baseProfile="full" class="PhysicalArchitectureBlank" font-family="'Open Sans','Segoe UI',Arial,sans-serif" font-size="11px" height="137" shape-rendering="geometricPrecision" version="1.1" viewBox="2 2 495 137" width="495" xmlns="http://www.w3.org/2000/svg" xmlns:ev="http://www.w3.org/2001/xml-events" xmlns:xlink="http://www.w3.org/1999/xlink"><defs><symbol id="PhysicalNodeActorSymbol" stroke="#000" stroke-width="2" viewBox="0 0 79 79"><path d="M18 237h46v43H18z" fill="#bdf7ff" transform="translate(0 -218)" /><path d="M12 247h11v8H12z" fill="#bdf7ff" transform="translate(0 -218)" /><path d="M12 261h11v8H12z" fill="#bdf7ff" transform="translate(0 -218)" /><g transform="scale(0.7,0.7) translate(15, 15)"><path d="m 43.148621,34.293143 q 0,2.11571 -0.747979,3.93224 -0.726611,1.79514 -2.051603,3.12014 -1.645557,1.64555 -3.889499,2.47902 -2.243939,0.81209 -5.663277,0.81209 h -4.231429 v 11.86083 h -4.23143 v -31.82122 h 8.633826 q 2.863694,0 4.851185,0.49153 1.98749,0.47016 3.526192,1.49597 1.816524,1.21813 2.799583,3.03466 1.004431,1.81652 1.004431,4.59474 z m -4.402396,0.10687 q 0,-1.64556 -0.577016,-2.8637 -0.577013,-1.21814 -1.752408,-1.98749 -1.025802,-0.6625 -2.350798,-0.94032 -1.303619,-0.29919 -3.312483,-0.29919 h -4.188686 v 12.71566 h 3.568931 q 2.564503,0 4.167321,-0.44878 1.602814,-0.47016 2.607242,-1.47459 1.004432,-1.0258 1.410478,-2.15846 0.427419,-1.13265 0.427419,-2.54313 z m 34.001037,22.09746 H 68.23801 l -3.120146,-8.8689 H 51.355032 l -3.120147,8.8689 h -4.295541 l 11.583005,-31.82123 h 5.641907 z m -8.933021,-12.50195 -5.577791,-15.6221 -5.599169,15.6221 z" stroke-width="0.1" /></g></symbol><linearGradient id="CustomGradient_DAFDFF_C6E6FF" x1="0" x2="0" y1="0" y2="1"><stop offset="0.0" stop-color="#DAFDFF" stop-opacity="1" /><stop offset="1.0" stop-color="#C6E6FF" stop-opacity="1" /></linearGradient><symbol id="PhysicalNodeComponentSymbol" stroke="#000" stroke-width="2" viewBox="0 0 79 79"><path d="M18 237h46v43H18z" fill="#ffff00" transform="translate(0 -218)" /><path d="M12 247h11v8H12z" fill="#ffff00" transform="translate(0 -218)" /><path d="M12 261h11v8H12z" fill="#ffff00" transform="translate(0 -218)" /><path d="m 57.589299,33.276194 c 0,1.410473 -0.249326,2.72122 -0.747979,3.93224 -0.484407,1.19676 -1.168275,2.236807 -2.051603,3.12014 -1.097038,1.097033 -2.393538,1.923373 -3.889499,2.47902 -1.495959,0.541393 -3.383718,0.81209 -5.663277,0.81209 h -4.231429 v 11.86083 h -4.23143 v -31.82122 h 8.633826 c 1.909129,0 3.526191,0.163843 4.851185,0.49153 1.324993,0.31344 2.500391,0.812097 3.526192,1.49597 1.211016,0.812087 2.14421,1.82364 2.799583,3.03466 0.669621,1.211013 1.004431,2.742593 1.004431,4.59474 z m -4.402396,0.10687 c 0,-1.09704 -0.192339,-2.051607 -0.577016,-2.8637 -0.384675,-0.812093 -0.968811,-1.47459 -1.752408,-1.98749 -0.683868,-0.441667 -1.467467,-0.755107 -2.350798,-0.94032 -0.869079,-0.19946 -1.97324,-0.29919 -3.312483,-0.29919 h -4.188686 v 12.71566 h 3.568931 c 1.709669,0 3.098776,-0.149593 4.167321,-0.44878 1.068543,-0.31344 1.937623,-0.80497 2.607242,-1.47459 0.669621,-0.683867 1.139781,-1.403353 1.410478,-2.15846 0.284946,-0.7551 0.427419,-1.60281 0.427419,-2.54313 z" fill="#000" stroke-width="0.1" /></symbol><linearGradient id="CustomGradient_FFFFDC_FFFCB7" x1="0" x2="0" y1="0" y2="1"><stop offset="0.0" stop-color="#FFFFDC" stop-opacity="1" /><stop offset="1.0" stop-color="#FFFCB7" stop-opacity="1" /></linearGradient><symbol id="PhysicalLinkSymbol" viewBox="0 0 40 30"><linearGradient id="PhysicalLinkSymbol-gradient" x1="0" x2="1" y1="0" y2="1"><stop offset="0.0" stop-color="#DFDF00" stop-opacity="1" /><stop offset="1.0" stop-color="#E8E809" stop-opacity="1" /></linearGradient><linearGradient id="PhysicalLinkSymbol-gradientreverse" x1="0" x2="1" y1="0" y2="1"><stop offset="0.0" stop-color="#E8E809" stop-opacity="1" /><stop offset="1.0" stop-color="#DFDF00" stop-opacity="1" /></linearGradient><g stroke="#000" stroke-width="2"><path d="M 36.190065,5.0377724 V 24.962228 H 26.17482 V 5.0377724 Z" fill="url(#PhysicalLinkSymbol-gradientreverse)" /><path d="m 14.372107,10 h 12.622435 c 0.926189,0.585267 1.836022,1.274509 2.268178,5 -0.208657,2.812473 -0.954601,4.503809 -2.273297,5 H 14.296948" fill="#F60A0A" /><path d="M 3.9464908,5.0048246 V 24.995175 H 10.87518 C 12.433713,24.159139 15.158267,20.291241 15.313795,15 15.498614,11.583142 14.059659,6.6240913 10.87518,5.0048246 c -2.2179509,0 -4.5908341,0 -6.9286892,0 z" fill="url(#PhysicalLinkSymbol-gradient)" /></g></symbol></defs><rect fill="#fff" height="137" stroke="none" width="495" x="2" y="2" /><g class="Box PhysicalNodeActor context-307a75e9-642d-4f68-b195-d57dc8dda60d context-682edffb-6b44-48c0-826b-32eb217eb81c context-b9f9a83c-fb02-44f7-9123-9d86326de5f1 context-d5259b69-1473-4b00-bb41-b94eb44abde5 context-da949a89-23c0-4487-88e1-f14b33326570 context-f3722f0a-c7de-421d-b4aa-fea6f5278672 context-fdb34c92-7c49-491d-bf11-dd139930786e" id="307a75e9-642d-4f68-b195-d57dc8dda60d"><rect class="PhysicalNodeActor" fill="url(&quot;#CustomGradient_DAFDFF_C6E6FF&quot;)" height="117" stroke="#4A4A97" stroke-width="1" width="157" x="12.5" y="12.5" /><text class="PhysicalNodeActor" dominant-baseline="middle" fill="#000000" text-anchor="middle" x="20" y="17"><tspan x="101.5" xml:space="preserve" y="29.285714285714285">Physical Actor</tspan></text><use height="20" width="20" x="42.357142857142854" xlink:href="#PhysicalNodeActorSymbol" y="19.285714285714285" /></g><g class="Box PhysicalNodeComponent context-307a75e9-642d-4f68-b195-d57dc8dda60d context-682edffb-6b44-48c0-826b-32eb217eb81c context-b9f9a83c-fb02-44f7-9123-9d86326de5f1 context-d5259b69-1473-4b00-bb41-b94eb44abde5 context-da949a89-23c0-4487-88e1-f14b33326570 context-f3722f0a-c7de-421d-b4aa-fea6f5278672 context-fdb34c92-7c49-491d-bf11-dd139930786e" id="fdb34c92-7c49-491d-bf11-dd139930786e"><rect class="PhysicalNodeComponent" fill="url(&quot;#CustomGradient_FFFFDC_FFFCB7&quot;)" height="68" stroke="#7B694F" stroke-width="4" width="130" x="25.5" y="50.5" /><text class="PhysicalNodeComponent" dominant-baseline="middle" fill="#000000" text-anchor="middle" x="24" y="64"><tspan x="97.0" xml:space="preserve" y="76.28571428571429">Physical</tspan><tspan x="97.0" xml:space="preserve" y="94.85714285714286">Component</tspan></text><use height="20" width="20" x="43.57142857142857" xlink:href="#PhysicalNodeComponentSymbol" y="73.03896103896105" /></g><g class="Box PhysicalNodeComponent context-307a75e9-642d-4f68-b195-d57dc8dda60d context-682edffb-6b44-48c0-826b-32eb217eb81c context-b9f9a83c-fb02-44f7-9123-9d86326de5f1 context-d5259b69-1473-4b00-bb41-b94eb44abde5 context-da949a89-23c0-4487-88e1-f14b33326570 context-f3722f0a-c7de-421d-b4aa-fea6f5278672 context-fdb34c92-7c49-491d-bf11-dd139930786e" id="b9f9a83c-fb02-44f7-9123-9d86326de5f1"><rect class="PhysicalNodeComponent" fill="url(&quot;#CustomGradient_FFFFDC_FFFCB7&quot;)" height="92" stroke="#7B694F" stroke-width="1" width="179" x="308.5" y="25.5" /><text class="PhysicalNodeComponent" dominant-baseline="middle" fill="#000000" text-anchor="middle" x="319" y="30"><tspan x="408.0" xml:space="preserve" y="42.285714285714285">Physical System</tspan></text><use height="20" width="20" x="344.0952380952381" xlink:href="#PhysicalNodeComponentSymbol" y="32.285714285714285" /></g><g class="Box PhysicalNodeComponent context-307a75e9-642d-4f68-b195-d57dc8dda60d context-682edffb-6b44-48c0-826b-32eb217eb81c context-b9f9a83c-fb02-44f7-9123-9d86326de5f1 context-d5259b69-1473-4b00-bb41-b94eb44abde5 context-da949a89-23c0-4487-88e1-f14b33326570 context-f3722f0a-c7de-421d-b4aa-fea6f5278672 context-fdb34c92-7c49-491d-bf11-dd139930786e" id="d5259b69-1473-4b00-bb41-b94eb44abde5"><rect class="PhysicalNodeComponent" fill="url(&quot;#CustomGradient_FFFFDC_FFFCB7&quot;)" height="42" stroke="#7B694F" stroke-width="1" width="152" x="322.5" y="62.5" /><text class="PhysicalNodeComponent" dominant-baseline="middle" fill="#000000" text-anchor="middle" x="329" y="75"><tspan x="413.0" xml:space="preserve" y="85.14285714285714">Random Node</tspan></text><use height="20" width="20" x="352.42857142857144" xlink:href="#PhysicalNodeComponentSymbol" y="75.14285714285714" /></g><g class="Edge PhysicalLink context-307a75e9-642d-4f68-b195-d57dc8dda60d context-682edffb-6b44-48c0-826b-32eb217eb81c context-b9f9a83c-fb02-44f7-9123-9d86326de5f1 context-d5259b69-1473-4b00-bb41-b94eb44abde5 context-da949a89-23c0-4487-88e1-f14b33326570 context-f3722f0a-c7de-421d-b4aa-fea6f5278672 context-fdb34c92-7c49-491d-bf11-dd139930786e" id="da949a89-23c0-4487-88e1-f14b33326570"><path class="Edge" d="M 157.5 83.5 320.5 83.5" fill="none" stroke="#EF2929" stroke-width="2" /><text class="Annotation" dominant-baseline="middle" fill="#EF2929" text-anchor="middle" x="182.0" y="86"><tspan x="250.5" xml:space="preserve" y="96.14285714285714">Cable 1</tspan></text><use height="20" width="20" x="206.97619047619048" xlink:href="#PhysicalLinkSymbol" y="86.14285714285714" /></g><g class="Box PP context-307a75e9-642d-4f68-b195-d57dc8dda60d context-682edffb-6b44-48c0-826b-32eb217eb81c context-b9f9a83c-fb02-44f7-9123-9d86326de5f1 context-d5259b69-1473-4b00-bb41-b94eb44abde5 context-da949a89-23c0-4487-88e1-f14b33326570 context-f3722f0a-c7de-421d-b4aa-fea6f5278672 context-fdb34c92-7c49-491d-bf11-dd139930786e" id="f3722f0a-c7de-421d-b4aa-fea6f5278672"><rect class="PP" fill="#FFF477" height="10" stroke="#7B694F" stroke-width="1" transform="rotate(-90 152.5 83.5)" width="10" x="147.5" y="78.5" /></g><g class="Box PP context-307a75e9-642d-4f68-b195-d57dc8dda60d context-682edffb-6b44-48c0-826b-32eb217eb81c context-b9f9a83c-fb02-44f7-9123-9d86326de5f1 context-d5259b69-1473-4b00-bb41-b94eb44abde5 context-da949a89-23c0-4487-88e1-f14b33326570 context-f3722f0a-c7de-421d-b4aa-fea6f5278672 context-fdb34c92-7c49-491d-bf11-dd139930786e" id="682edffb-6b44-48c0-826b-32eb217eb81c"><rect class="PP" fill="#FFF477" height="10" stroke="#7B694F" stroke-width="1" transform="rotate(90 325.5 83.5)" width="10" x="320.5" y="78.5" /></g></svg>
