<svg baseProfile="full" class="LogicalArchitectureBlank" font-family="'Open Sans','Segoe UI',Arial,sans-serif" font-size="11px" height="149" shape-rendering="geometricPrecision" version="1.1" viewBox="2 2 378 149" width="378" xmlns="http://www.w3.org/2000/svg" xmlns:ev="http://www.w3.org/2001/xml-events" xmlns:xlink="http://www.w3.org/1999/xlink"><defs><symbol id="LogicalComponentSymbol" stroke="#000" stroke-width="2" viewBox="0 0 79 79"><path d="M18 237h46v43H18z" fill="#dbe6f4" transform="translate(0 -218)" /><path d="M12 247h11v8H12z" fill="#dbe6f4" transform="translate(0 -218)" /><path d="M12 261h11v8H12z" fill="#dbe6f4" transform="translate(0 -218)" /><g transform="scale(0.90705135,1.1024734)"><path d="m 37.427456,20.821353 h 4.221475 V 50.90971 H 37.427456 Z M 39.538194,46.89517 H 56.75519 v 4.01454 H 39.538194 Z" fill="#000" stroke-width="0.1" /></g></symbol><linearGradient id="CustomGradient_C3E6FF_96B1DA" x1="0" x2="0" y1="0" y2="1"><stop offset="0.0" stop-color="#C3E6FF" stop-opacity="1" /><stop offset="1.0" stop-color="#96B1DA" stop-opacity="1" /></linearGradient><symbol id="LogicalActorSymbol" stroke="#000" stroke-width="2" viewBox="0 0 79 79"><path d="M18 237h46v43H18z" fill="#dbe6f4" transform="translate(0 -218)" /><path d="M12 247h11v8H12z" fill="#dbe6f4" transform="translate(0 -218)" /><path d="M12 261h11v8H12z" fill="#dbe6f4" transform="translate(0 -218)" /><g fill="#000" stroke-width="0.1" transform="scale(0.83010896,1.2046611)"><path d="m 31.063676,19.942628 h 3.754427 v 26.759494 h -3.754427 z m 1.877213,23.189107 h 15.312173 v 3.570387 H 32.940889 Z" /><path d="m 60.32612,19.942628 h 3.202306 l 9.864572,26.759494 H 69.344107 L 61.927273,25.114167 54.51044,46.702122 H 50.461548 Z M 55.007349,37.260842 H 69.08645 v 3.570387 H 55.007349 Z" /></g></symbol><linearGradient id="CustomGradient_DAFDFF_C6E6FF" x1="0" x2="0" y1="0" y2="1"><stop offset="0.0" stop-color="#DAFDFF" stop-opacity="1" /><stop offset="1.0" stop-color="#C6E6FF" stop-opacity="1" /></linearGradient><symbol id="LogicalHumanComponentSymbol" stroke="#000" stroke-width="2" viewBox="0 0 79 79"><path d="M18 237h46v43H18z" fill="#dbe6f4" transform="translate(0 -218)" /><path d="M12 247h11v8H12z" fill="#dbe6f4" transform="translate(0 -218)" /><path d="M12 261h11v8H12z" fill="#dbe6f4" transform="translate(0 -218)" /><use transform="matrix(0.62,0,0,0.62,23.82,16.51)" xlink:href="#StickFigureSymbol" /></symbol><symbol id="StickFigureSymbol" stroke="#000" stroke-width="2" viewBox="362.861 210.892 75 75"><g stroke="#000" stroke-width="2.4944" transform="matrix(1.0611338,0,0,1.0611338,-24.47665,-12.241673)"><line fill="none" x1="400.362" x2="400.362" y1="232.586" y2="257.534" /><line fill="none" x1="400.83401" x2="388.423" y1="254.299" y2="275.009" /><line fill="none" x1="400.25201" x2="413.97" y1="254.46001" y2="274.987" /><line fill="none" x1="385.634" x2="415.703" y1="244.569" y2="244.49699" /><ellipse cx="400.53201" cy="223.35899" fill="none" rx="9.2180004" ry="8.5080004" /></g></symbol><symbol id="ComponentExchangeSymbol" viewBox="0 0 40 30"><linearGradient id="ComponentExchangeSymbol-gradient" x1="0" x2="1" y1="0" y2="1"><stop offset="0.0" stop-color="#8FA5B6" stop-opacity="1" /><stop offset="1.0" stop-color="#E0E9F3" stop-opacity="1" /></linearGradient><linearGradient id="ComponentExchangeSymbol-gradientreverse" x1="0" x2="1" y1="0" y2="1"><stop offset="0.0" stop-color="#E0E9F3" stop-opacity="1" /><stop offset="1.0" stop-color="#8FA5B6" stop-opacity="1" /></linearGradient><g stroke="#000" stroke-width="2"><path d="M 36.190065,5.0377724 V 24.962228 H 26.17482 V 5.0377724 Z" fill="url(#ComponentExchangeSymbol-gradientreverse)" /><path d="m 14.372107,10 h 12.622435 c 0.926189,0.585267 1.836022,1.274509 2.268178,5 -0.208657,2.812473 -0.954601,4.503809 -2.273297,5 H 14.296948" fill="#A3BCD0" /><path d="M 3.9464908,5.0048246 V 24.995175 H 10.87518 C 12.433713,24.159139 15.158267,20.291241 15.313795,15 15.498614,11.583142 14.059659,6.6240913 10.87518,5.0048246 c -2.2179509,0 -4.5908341,0 -6.9286892,0 z" fill="url(#ComponentExchangeSymbol-gradient)" /></g></symbol><symbol id="ComponentPortSymbol" viewBox="0 0 10 10"><path d="M0 0h10v10H0z" /><path d="M 2,2 5,7 8,2" /></symbol></defs><rect fill="#fff" height="149" stroke="none" width="378" x="2" y="2" /><g class="Box LogicalComponent context-10c28db9-efbb-4486-90ee-042cf867db1a context-2f8ed849-fbda-4902-82ec-cbf8104ae686 context-44d051f2-875d-4a51-93f0-6c7b20a45842 context-50d8bc7b-c029-45eb-a6d5-dfa4ef2abcf2 context-7f375127-f08a-4deb-8fb6-97c955840f89 context-8d24bd39-a7c4-4b2e-93c4-b63088a83248 context-a71b6a6c-ad7e-4be2-a426-f7742fe992f3 context-adfff141-aa41-4258-8889-b49cdc575e11" id="44d051f2-875d-4a51-93f0-6c7b20a45842"><rect class="LogicalComponent" fill="url(&quot;#CustomGradient_C3E6FF_96B1DA&quot;)" height="85" stroke="#4A4A97" stroke-width="1" width="94" x="12.5" y="34.5" /><text class="LogicalComponent" dominant-baseline="middle" fill="#4A4A97" text-anchor="middle" x="23" y="39"><tspan x="66.0" xml:space="preserve" y="48.42857142857143">LC 1</tspan></text><use height="20" width="20" x="32.57142857142857" xlink:href="#LogicalComponentSymbol" y="38.42857142857143" /></g><g class="Box LogicalActor context-10c28db9-efbb-4486-90ee-042cf867db1a context-2f8ed849-fbda-4902-82ec-cbf8104ae686 context-44d051f2-875d-4a51-93f0-6c7b20a45842 context-50d8bc7b-c029-45eb-a6d5-dfa4ef2abcf2 context-7f375127-f08a-4deb-8fb6-97c955840f89 context-8d24bd39-a7c4-4b2e-93c4-b63088a83248 context-a71b6a6c-ad7e-4be2-a426-f7742fe992f3 context-adfff141-aa41-4258-8889-b49cdc575e11" id="adfff141-aa41-4258-8889-b49cdc575e11"><rect class="LogicalActor" fill="url(&quot;#CustomGradient_DAFDFF_C6E6FF&quot;)" height="41" stroke="#4A4A97" stroke-width="1" width="70" x="24.5" y="66.5" /><text class="LogicalActor" dominant-baseline="middle" fill="#000000" text-anchor="middle" x="27" y="79"><tspan x="70.0" xml:space="preserve" y="86.42857142857143">LA 1</tspan></text><use height="20" width="20" x="36.57142857142857" xlink:href="#LogicalActorSymbol" y="76.42857142857143" /></g><g class="Box LogicalComponent context-10c28db9-efbb-4486-90ee-042cf867db1a context-2f8ed849-fbda-4902-82ec-cbf8104ae686 context-44d051f2-875d-4a51-93f0-6c7b20a45842 context-50d8bc7b-c029-45eb-a6d5-dfa4ef2abcf2 context-7f375127-f08a-4deb-8fb6-97c955840f89 context-8d24bd39-a7c4-4b2e-93c4-b63088a83248 context-a71b6a6c-ad7e-4be2-a426-f7742fe992f3 context-adfff141-aa41-4258-8889-b49cdc575e11" id="7f375127-f08a-4deb-8fb6-97c955840f89"><rect class="LogicalComponent" fill="url(&quot;#CustomGradient_C3E6FF_96B1DA&quot;)" height="129" stroke="#4A4A97" stroke-width="1" width="118" x="252.5" y="12.5" /><text class="LogicalComponent" dominant-baseline="middle" fill="#4A4A97" text-anchor="middle" x="278" y="17"><tspan x="326.0" xml:space="preserve" y="26.42857142857143">LC 20</tspan></text><use height="20" width="20" x="289.23809523809524" xlink:href="#LogicalComponentSymbol" y="16.42857142857143" /></g><g class="Box LogicalComponent context-10c28db9-efbb-4486-90ee-042cf867db1a context-2f8ed849-fbda-4902-82ec-cbf8104ae686 context-44d051f2-875d-4a51-93f0-6c7b20a45842 context-50d8bc7b-c029-45eb-a6d5-dfa4ef2abcf2 context-7f375127-f08a-4deb-8fb6-97c955840f89 context-8d24bd39-a7c4-4b2e-93c4-b63088a83248 context-a71b6a6c-ad7e-4be2-a426-f7742fe992f3 context-adfff141-aa41-4258-8889-b49cdc575e11" id="a71b6a6c-ad7e-4be2-a426-f7742fe992f3"><rect class="LogicalComponent" fill="url(&quot;#CustomGradient_C3E6FF_96B1DA&quot;)" height="85" stroke="#4A4A97" stroke-width="1" width="94" x="264.5" y="44.5" /><text class="LogicalComponent" dominant-baseline="middle" fill="#4A4A97" text-anchor="middle" x="279" y="49"><tspan x="322.0" xml:space="preserve" y="58.42857142857143">LC 1</tspan></text><use height="20" width="20" x="288.57142857142856" xlink:href="#LogicalComponentSymbol" y="48.42857142857143" /></g><g class="Box LogicalHumanComponent context-10c28db9-efbb-4486-90ee-042cf867db1a context-2f8ed849-fbda-4902-82ec-cbf8104ae686 context-44d051f2-875d-4a51-93f0-6c7b20a45842 context-50d8bc7b-c029-45eb-a6d5-dfa4ef2abcf2 context-7f375127-f08a-4deb-8fb6-97c955840f89 context-8d24bd39-a7c4-4b2e-93c4-b63088a83248 context-a71b6a6c-ad7e-4be2-a426-f7742fe992f3 context-adfff141-aa41-4258-8889-b49cdc575e11" id="8d24bd39-a7c4-4b2e-93c4-b63088a83248"><rect class="LogicalHumanComponent" fill="url(&quot;#CustomGradient_C3E6FF_96B1DA&quot;)" height="41" stroke="#4A4A97" stroke-width="1" width="70" x="276.5" y="76.5" /><text class="LogicalHumanComponent" dominant-baseline="middle" fill="#4A4A97" text-anchor="middle" x="279" y="89"><tspan x="322.0" xml:space="preserve" y="96.42857142857143">LC 1</tspan></text><use height="20" width="20" x="288.57142857142856" xlink:href="#LogicalHumanComponentSymbol" y="86.42857142857143" /></g><g class="Edge ComponentExchange context-10c28db9-efbb-4486-90ee-042cf867db1a context-2f8ed849-fbda-4902-82ec-cbf8104ae686 context-44d051f2-875d-4a51-93f0-6c7b20a45842 context-50d8bc7b-c029-45eb-a6d5-dfa4ef2abcf2 context-7f375127-f08a-4deb-8fb6-97c955840f89 context-8d24bd39-a7c4-4b2e-93c4-b63088a83248 context-a71b6a6c-ad7e-4be2-a426-f7742fe992f3 context-adfff141-aa41-4258-8889-b49cdc575e11" id="2f8ed849-fbda-4902-82ec-cbf8104ae686"><path class="Edge" d="M 108.5 76.5 250.5 76.5" fill="none" stroke="#4A4A97" stroke-width="4" /><text class="Annotation" dominant-baseline="middle" fill="#4A4A97" text-anchor="middle" x="116.0" y="79"><tspan x="190.5" xml:space="preserve" y="89.14285714285714">Interface</tspan></text><use height="20" width="20" x="142.6904761904762" xlink:href="#ComponentExchangeSymbol" y="79.14285714285714" /></g><g class="Box CP_OUT context-10c28db9-efbb-4486-90ee-042cf867db1a context-2f8ed849-fbda-4902-82ec-cbf8104ae686 context-44d051f2-875d-4a51-93f0-6c7b20a45842 context-50d8bc7b-c029-45eb-a6d5-dfa4ef2abcf2 context-7f375127-f08a-4deb-8fb6-97c955840f89 context-8d24bd39-a7c4-4b2e-93c4-b63088a83248 context-a71b6a6c-ad7e-4be2-a426-f7742fe992f3 context-adfff141-aa41-4258-8889-b49cdc575e11" id="50d8bc7b-c029-45eb-a6d5-dfa4ef2abcf2"><use class="CP_OUT" fill="#FFFFFF" height="10" stroke="#000000" stroke-width="1" transform="rotate(-90 103.5 76.5)" width="10" x="98.5" xlink:href="#ComponentPortSymbol" y="71.5" /></g><g class="Box CP_IN context-10c28db9-efbb-4486-90ee-042cf867db1a context-2f8ed849-fbda-4902-82ec-cbf8104ae686 context-44d051f2-875d-4a51-93f0-6c7b20a45842 context-50d8bc7b-c029-45eb-a6d5-dfa4ef2abcf2 context-7f375127-f08a-4deb-8fb6-97c955840f89 context-8d24bd39-a7c4-4b2e-93c4-b63088a83248 context-a71b6a6c-ad7e-4be2-a426-f7742fe992f3 context-adfff141-aa41-4258-8889-b49cdc575e11" id="10c28db9-efbb-4486-90ee-042cf867db1a"><use class="CP_IN" fill="#FFFFFF" height="10" stroke="#000000" stroke-width="1" transform="rotate(270 255.5 76.5)" width="10" x="250.5" xlink:href="#ComponentPortSymbol" y="71.5" /></g></svg>
