<svg baseProfile="full" class="LogicalArchitectureBlank" font-family="'Open Sans','Segoe UI',Arial,sans-serif" font-size="11px" height="61" shape-rendering="geometricPrecision" version="1.1" viewBox="2 2 318 61" width="318" xmlns="http://www.w3.org/2000/svg" xmlns:ev="http://www.w3.org/2001/xml-events" xmlns:xlink="http://www.w3.org/1999/xlink"><defs><symbol id="LogicalComponentSymbol" stroke="#000" stroke-width="2" viewBox="0 0 79 79"><path d="M18 237h46v43H18z" fill="#dbe6f4" transform="translate(0 -218)" /><path d="M12 247h11v8H12z" fill="#dbe6f4" transform="translate(0 -218)" /><path d="M12 261h11v8H12z" fill="#dbe6f4" transform="translate(0 -218)" /><g transform="scale(0.90705135,1.1024734)"><path d="m 37.427456,20.821353 h 4.221475 V 50.90971 H 37.427456 Z M 39.538194,46.89517 H 56.75519 v 4.01454 H 39.538194 Z" fill="#000" stroke-width="0.1" /></g></symbol><linearGradient id="CustomGradient_C3E6FF_96B1DA" x1="0" x2="0" y1="0" y2="1"><stop offset="0.0" stop-color="#C3E6FF" stop-opacity="1" /><stop offset="1.0" stop-color="#96B1DA" stop-opacity="1" /></linearGradient><symbol id="ComponentExchangeSymbol" viewBox="0 0 40 30"><linearGradient id="ComponentExchangeSymbol-gradient" x1="0" x2="1" y1="0" y2="1"><stop offset="0.0" stop-color="#8FA5B6" stop-opacity="1" /><stop offset="1.0" stop-color="#E0E9F3" stop-opacity="1" /></linearGradient><linearGradient id="ComponentExchangeSymbol-gradientreverse" x1="0" x2="1" y1="0" y2="1"><stop offset="0.0" stop-color="#E0E9F3" stop-opacity="1" /><stop offset="1.0" stop-color="#8FA5B6" stop-opacity="1" /></linearGradient><g stroke="#000" stroke-width="2"><path d="M 36.190065,5.0377724 V 24.962228 H 26.17482 V 5.0377724 Z" fill="url(#ComponentExchangeSymbol-gradientreverse)" /><path d="m 14.372107,10 h 12.622435 c 0.926189,0.585267 1.836022,1.274509 2.268178,5 -0.208657,2.812473 -0.954601,4.503809 -2.273297,5 H 14.296948" fill="#A3BCD0" /><path d="M 3.9464908,5.0048246 V 24.995175 H 10.87518 C 12.433713,24.159139 15.158267,20.291241 15.313795,15 15.498614,11.583142 14.059659,6.6240913 10.87518,5.0048246 c -2.2179509,0 -4.5908341,0 -6.9286892,0 z" fill="url(#ComponentExchangeSymbol-gradient)" /></g></symbol><symbol id="ComponentPortSymbol" viewBox="0 0 10 10"><path d="M0 0h10v10H0z" /><path d="M 2,2 5,7 8,2" /></symbol></defs><rect fill="#fff" height="61" stroke="none" width="318" x="2" y="2" /><g class="Box LogicalComponent context-10c28db9-efbb-4486-90ee-042cf867db1a context-2f8ed849-fbda-4902-82ec-cbf8104ae686 context-44d051f2-875d-4a51-93f0-6c7b20a45842 context-50d8bc7b-c029-45eb-a6d5-dfa4ef2abcf2 context-7f375127-f08a-4deb-8fb6-97c955840f89" id="44d051f2-875d-4a51-93f0-6c7b20a45842"><rect class="LogicalComponent" fill="url(&quot;#CustomGradient_C3E6FF_96B1DA&quot;)" height="41" stroke="#4A4A97" stroke-width="1" width="70" x="13.5" y="12.5" /><text class="LogicalComponent" dominant-baseline="middle" fill="#4A4A97" text-anchor="middle" x="12" y="17"><tspan x="55.0" xml:space="preserve" y="24.42857142857143">LC 1</tspan></text><use height="20" width="20" x="21.57142857142857" xlink:href="#LogicalComponentSymbol" y="14.42857142857143" /></g><g class="Box LogicalComponent context-10c28db9-efbb-4486-90ee-042cf867db1a context-2f8ed849-fbda-4902-82ec-cbf8104ae686 context-44d051f2-875d-4a51-93f0-6c7b20a45842 context-50d8bc7b-c029-45eb-a6d5-dfa4ef2abcf2 context-7f375127-f08a-4deb-8fb6-97c955840f89" id="7f375127-f08a-4deb-8fb6-97c955840f89"><rect class="LogicalComponent" fill="url(&quot;#CustomGradient_C3E6FF_96B1DA&quot;)" height="41" stroke="#4A4A97" stroke-width="1" width="80" x="229.5" y="12.5" /><text class="LogicalComponent" dominant-baseline="middle" fill="#4A4A97" text-anchor="middle" x="236" y="17"><tspan x="284.0" xml:space="preserve" y="24.42857142857143">LC 20</tspan></text><use height="20" width="20" x="247.23809523809524" xlink:href="#LogicalComponentSymbol" y="14.42857142857143" /></g><g class="Edge ComponentExchange context-10c28db9-efbb-4486-90ee-042cf867db1a context-2f8ed849-fbda-4902-82ec-cbf8104ae686 context-44d051f2-875d-4a51-93f0-6c7b20a45842 context-50d8bc7b-c029-45eb-a6d5-dfa4ef2abcf2 context-7f375127-f08a-4deb-8fb6-97c955840f89" id="2f8ed849-fbda-4902-82ec-cbf8104ae686"><path class="Edge" d="M 85.5 32.5 227.5 32.5" fill="none" stroke="#4A4A97" stroke-width="4" /><text class="Annotation" dominant-baseline="middle" fill="#4A4A97" text-anchor="middle" x="93.0" y="35"><tspan x="167.5" xml:space="preserve" y="45.14285714285714">Interface</tspan></text><use height="20" width="20" x="119.69047619047619" xlink:href="#ComponentExchangeSymbol" y="35.14285714285714" /></g><g class="Box CP_OUT context-10c28db9-efbb-4486-90ee-042cf867db1a context-2f8ed849-fbda-4902-82ec-cbf8104ae686 context-44d051f2-875d-4a51-93f0-6c7b20a45842 context-50d8bc7b-c029-45eb-a6d5-dfa4ef2abcf2 context-7f375127-f08a-4deb-8fb6-97c955840f89" id="50d8bc7b-c029-45eb-a6d5-dfa4ef2abcf2"><use class="CP_OUT" fill="#FFFFFF" height="10" stroke="#000000" stroke-width="1" transform="rotate(-90 80.5 32.5)" width="10" x="75.5" xlink:href="#ComponentPortSymbol" y="27.5" /></g><g class="Box CP_IN context-10c28db9-efbb-4486-90ee-042cf867db1a context-2f8ed849-fbda-4902-82ec-cbf8104ae686 context-44d051f2-875d-4a51-93f0-6c7b20a45842 context-50d8bc7b-c029-45eb-a6d5-dfa4ef2abcf2 context-7f375127-f08a-4deb-8fb6-97c955840f89" id="10c28db9-efbb-4486-90ee-042cf867db1a"><use class="CP_IN" fill="#FFFFFF" height="10" stroke="#000000" stroke-width="1" transform="rotate(270 232.5 32.5)" width="10" x="227.5" xlink:href="#ComponentPortSymbol" y="27.5" /></g></svg>
