<svg baseProfile="full" class="RealizationViewDiagram" font-family="'Open Sans','Segoe UI',Arial,sans-serif" font-size="10px" height="604" shape-rendering="geometricPrecision" version="1.1" viewBox="5 5 550 604" width="550" xmlns="http://www.w3.org/2000/svg" xmlns:ev="http://www.w3.org/2001/xml-events" xmlns:xlink="http://www.w3.org/1999/xlink"><defs><symbol id="EntitySymbol" stroke="#000" stroke-width="2" viewBox="0 0 79 79"><path d="M18 237h46v43H18z" fill="#a5b9c8" transform="translate(0 -218)" /><path d="M12 247h11v8H12z" fill="#a5b9c8" transform="translate(0 -218)" /><path d="M12 261h11v8H12z" fill="#a5b9c8" transform="translate(0 -218)" /><path d="m 41.658466,55.581913 q 0,1.062616 -0.693953,1.734883 -0.672267,0.672267 -1.734883,0.672267 h -9.498483 q -1.062615,0 -1.734883,-0.672267 -0.672267,-0.672267 -0.672267,-1.734883 V 26.457569 q 0,-1.062615 0.672267,-1.734882 0.672268,-0.672267 1.734883,-0.672267 h 9.498483 q 1.062616,0 1.734883,0.672267 0.693953,0.672267 0.693953,1.734882 z M 38.644107,55.321681 V 26.717802 h -8.305751 v 28.603879 z" fill="#000" /><path d="M 58.248283,57.989063 H 47.101662 V 24.05042 h 11.016505 v 2.667382 H 50.11602 v 12.664644 h 5.091614 l 0.09145,2.616665 -5.183068,0.09409 v 13.228481 h 8.132263 z" fill="#000" /></symbol><linearGradient id="CustomGradient_F9F8F5_DDDDC8" x1="0" x2="0" y1="0" y2="1"><stop offset="0.0" stop-color="#F9F8F5" stop-opacity="1" /><stop offset="1.0" stop-color="#DDDDC8" stop-opacity="1" /></linearGradient><symbol id="SystemComponentSymbol" viewBox="0 12 79 55"><g transform="matrix(0.25509703,0,0,0.25509703,-19.119473,-26.4767)"><g fill="#e3ebf8" stroke-width="1.33145" transform="matrix(0.92548165,0,0,0.92249056,-32.422011,-1.2909536)"><path d="m 160.03785,180.47519 h 280.8845 v 200.68502 h -280.8845 z" stroke="#000" stroke-width="7" /></g><path d="m 81.854696,210.17533 h 66.250264 v 35.37025 H 81.854696 Z" fill="#e7efff" stroke="#000" stroke-width="7" /><path d="m 83.588316,268.94271 h 66.250254 v 35.37024 H 83.588316 Z" fill="#e7efff" stroke="#000" stroke-width="7" /><rect fill="#000" height="5" stroke="#000" stroke-width="54.1038" width="5" x="214.8075" y="236.39" /><rect fill="#000" height="5" stroke="#000" stroke-width="54.1038" width="5" x="297.44" y="298.36" /><rect fill="#000" height="5" stroke="#000" stroke-width="54.1038" width="5" x="297.44" y="215.73" /><path d="m 219.70896,218.22099 h 79.0257 v 85.9132 h -80.34135 z" fill="none" stroke="#000" stroke-width="4.29901px" /></g></symbol><linearGradient id="CustomGradient_C3E6FF_96B1DA" x1="0" x2="0" y1="0" y2="1"><stop offset="0.0" stop-color="#C3E6FF" stop-opacity="1" /><stop offset="1.0" stop-color="#96B1DA" stop-opacity="1" /></linearGradient><symbol id="SystemActorSymbol" viewBox="0 0 79 79"><g transform="matrix(1.4376083,0,0,1.3022512,-15.958775,-15.416201)"><path d="M 17.819891,20.041161 H 65.286364 V 64.242623 H 17.819891 Z" fill="#bdf7ff" stroke="#454647" /><path d="m 12.064948,25.832262 h 11.521155 v 6.687244 H 12.064948 Z" fill="#e3ebf8" stroke="#454647" /><path d="m 12.050427,34.529197 h 11.455007 v 6.635451 H 12.050427 Z" fill="#e3ebf8" stroke="#454647" /><g fill="#000" stroke="none" transform="matrix(0.83129224,0,0,0.89544642,8.0334318,11.729573)"><path d="m 22.506995,47.687597 v -4.602148 q 0.619881,0.563528 1.465173,1.014351 0.864077,0.450823 1.822075,0.770155 0.957998,0.300549 1.915996,0.469607 0.957999,0.169059 1.765722,0.169059 2.817642,0 4.188894,-0.939214 1.390037,-0.939214 1.390037,-2.72372 0,-0.957998 -0.469607,-1.653017 -0.450823,-0.713802 -1.277331,-1.296115 -0.826508,-0.582312 -1.953565,-1.108272 -1.108272,-0.544744 -2.385603,-1.127057 -1.371252,-0.732587 -2.554662,-1.483958 -1.183409,-0.751371 -2.06627,-1.653016 -0.864077,-0.92043 -1.371252,-2.06627 -0.488392,-1.145841 -0.488392,-2.686152 0,-1.897212 0.845293,-3.287249 0.864077,-1.40882 2.254113,-2.310466 1.408821,-0.920429 3.193327,-1.352468 1.784507,-0.450822 3.64415,-0.450822 4.226462,0 6.161243,0.957998 v 4.414305 q -2.291682,-1.653016 -5.898263,-1.653016 -0.995567,0 -1.991134,0.187842 -0.976782,0.187843 -1.765722,0.619882 -0.770155,0.432038 -1.258546,1.108272 -0.488391,0.676234 -0.488391,1.634232 0,0.901645 0.375685,1.559095 0.375686,0.65745 1.089488,1.202194 0.732587,0.544744 1.765722,1.070703 1.05192,0.507176 2.423172,1.108273 1.408821,0.732587 2.648583,1.540311 1.258547,0.807723 2.197761,1.784506 0.957998,0.976782 1.502742,2.178976 0.563528,1.18341 0.563528,2.704936 0,2.047486 -0.826508,3.456307 -0.826508,1.408821 -2.235329,2.291682 -1.390037,0.882861 -3.212112,1.277331 -1.822074,0.394469 -3.850776,0.394469 -0.676234,0 -1.671801,-0.112705 -0.976782,-0.09392 -2.009918,-0.300549 -1.033135,-0.187842 -1.953564,-0.469607 -0.92043,-0.281764 -1.483958,-0.638665 z" /><path d="M 66.819105,48.758301 H 61.916408 L 59.493237,41.90204 H 48.898904 l -2.32925,6.856261 H 41.685742 L 51.772899,21.821647 h 5.034186 z M 58.309827,38.25789 54.571756,27.513283 q -0.169058,-0.525959 -0.356901,-1.690585 h -0.07514 q -0.169059,1.070704 -0.375686,1.690585 L 50.06353,38.25789 Z" /></g></g></symbol><linearGradient id="CustomGradient_DAFDFF_C6E6FF" x1="0" x2="0" y1="0" y2="1"><stop offset="0.0" stop-color="#DAFDFF" stop-opacity="1" /><stop offset="1.0" stop-color="#C6E6FF" stop-opacity="1" /></linearGradient><symbol id="LogicalComponentSymbol" stroke="#000" stroke-width="2" viewBox="0 0 79 79"><path d="M18 237h46v43H18z" fill="#dbe6f4" transform="translate(0 -218)" /><path d="M12 247h11v8H12z" fill="#dbe6f4" transform="translate(0 -218)" /><path d="M12 261h11v8H12z" fill="#dbe6f4" transform="translate(0 -218)" /><g transform="scale(0.90705135,1.1024734)"><path d="m 37.427456,20.821353 h 4.221475 V 50.90971 H 37.427456 Z M 39.538194,46.89517 H 56.75519 v 4.01454 H 39.538194 Z" fill="#000" stroke-width="0.1" /></g></symbol><symbol id="LogicalActorSymbol" stroke="#000" stroke-width="2" viewBox="0 0 79 79"><path d="M18 237h46v43H18z" fill="#dbe6f4" transform="translate(0 -218)" /><path d="M12 247h11v8H12z" fill="#dbe6f4" transform="translate(0 -218)" /><path d="M12 261h11v8H12z" fill="#dbe6f4" transform="translate(0 -218)" /><g fill="#000" stroke-width="0.1" transform="scale(0.83010896,1.2046611)"><path d="m 31.063676,19.942628 h 3.754427 v 26.759494 h -3.754427 z m 1.877213,23.189107 h 15.312173 v 3.570387 H 32.940889 Z" /><path d="m 60.32612,19.942628 h 3.202306 l 9.864572,26.759494 H 69.344107 L 61.927273,25.114167 54.51044,46.702122 H 50.461548 Z M 55.007349,37.260842 H 69.08645 v 3.570387 H 55.007349 Z" /></g></symbol><symbol id="PhysicalNodeComponentSymbol" stroke="#000" stroke-width="2" viewBox="0 0 79 79"><path d="M18 237h46v43H18z" fill="#ffff00" transform="translate(0 -218)" /><path d="M12 247h11v8H12z" fill="#ffff00" transform="translate(0 -218)" /><path d="M12 261h11v8H12z" fill="#ffff00" transform="translate(0 -218)" /><path d="m 57.589299,33.276194 c 0,1.410473 -0.249326,2.72122 -0.747979,3.93224 -0.484407,1.19676 -1.168275,2.236807 -2.051603,3.12014 -1.097038,1.097033 -2.393538,1.923373 -3.889499,2.47902 -1.495959,0.541393 -3.383718,0.81209 -5.663277,0.81209 h -4.231429 v 11.86083 h -4.23143 v -31.82122 h 8.633826 c 1.909129,0 3.526191,0.163843 4.851185,0.49153 1.324993,0.31344 2.500391,0.812097 3.526192,1.49597 1.211016,0.812087 2.14421,1.82364 2.799583,3.03466 0.669621,1.211013 1.004431,2.742593 1.004431,4.59474 z m -4.402396,0.10687 c 0,-1.09704 -0.192339,-2.051607 -0.577016,-2.8637 -0.384675,-0.812093 -0.968811,-1.47459 -1.752408,-1.98749 -0.683868,-0.441667 -1.467467,-0.755107 -2.350798,-0.94032 -0.869079,-0.19946 -1.97324,-0.29919 -3.312483,-0.29919 h -4.188686 v 12.71566 h 3.568931 c 1.709669,0 3.098776,-0.149593 4.167321,-0.44878 1.068543,-0.31344 1.937623,-0.80497 2.607242,-1.47459 0.669621,-0.683867 1.139781,-1.403353 1.410478,-2.15846 0.284946,-0.7551 0.427419,-1.60281 0.427419,-2.54313 z" fill="#000" stroke-width="0.1" /></symbol><linearGradient id="CustomGradient_FFFFDC_FFFCB7" x1="0" x2="0" y1="0" y2="1"><stop offset="0.0" stop-color="#FFFFDC" stop-opacity="1" /><stop offset="1.0" stop-color="#FFFCB7" stop-opacity="1" /></linearGradient><marker id="FineArrowMark_454545" markerHeight="7.5" markerUnits="userSpaceOnUse" markerWidth="7.5" orient="auto" refX="7" refY="3.75"><path d="M 0.4535,0.107 7.309,3.621 0.492,7.407 0.144,7.407 6.414,3.63 0.136,0.479 Z" stroke="#454545" stroke-width="1" /></marker></defs><rect fill="#fff" height="604" stroke="none" width="550" x="5" y="5" /><g class="Box OperationalAnalysis" id="ddbef16d-ddb9-4162-934c-f1e40e6f8bed"><rect class="OperationalAnalysis" fill="none" height="284" rx="5" ry="5" stroke="grey" stroke-width="1" width="212" x="15.5" y="15.5" /><text class="OperationalAnalysis" dominant-baseline="middle" fill="grey" text-anchor="middle" transform="rotate(-90, 120.875, 157.14285714285717)" x="136" y="172"><tspan x="120.875" xml:space="preserve" y="61.26785714285717">Operational</tspan></text></g><g class="Box Entity" id="e37510b9-3166-4f80-a919-dfaac9b696c7"><rect class="Entity" fill="url(&quot;#CustomGradient_F9F8F5_DDDDC8&quot;)" height="84" stroke="#454545" stroke-width="1" width="83" x="30.5" y="115.5" /><text class="Entity" dominant-baseline="middle" fill="#000000" text-anchor="middle" x="23" y="120"><tspan x="82.5" xml:space="preserve" y="128.71428571428572">Environment</tspan></text><use height="20" width="20" x="33.0" xlink:href="#EntitySymbol" y="118.71428571428572" /></g><g class="Box Entity" id="b805a725-4b13-4b77-810e-b0ba002d5d98"><rect class="Entity" fill="url(&quot;#CustomGradient_F9F8F5_DDDDC8&quot;)" height="42" stroke="#454545" stroke-width="1" width="59" x="42.5" y="146.5" /><text class="Entity" dominant-baseline="middle" fill="#000000" text-anchor="middle" x="45" y="158"><tspan x="82.0" xml:space="preserve" y="166.85714285714286">Prey</tspan></text><use height="20" width="20" x="52.0" xlink:href="#EntitySymbol" y="156.85714285714286" /></g><g class="Box Entity" id="a4f69ce4-2f3f-40d4-af58-423388df449f"><rect class="Entity" fill="url(&quot;#CustomGradient_F9F8F5_DDDDC8&quot;)" height="37" stroke="#454545" stroke-width="1" width="83" x="128.5" y="115.5" /><text class="Entity" dominant-baseline="middle" fill="#000000" text-anchor="middle" x="131" y="127"><tspan x="180.0" xml:space="preserve" y="133.71428571428572">LeftStack</tspan></text><use height="20" width="20" x="139.5" xlink:href="#EntitySymbol" y="123.71428571428572" /></g><g class="Box SystemAnalysis" id="79d35fe7-f172-4405-b499-48aef545148a"><rect class="SystemAnalysis" fill="none" height="284" rx="5" ry="5" stroke="grey" stroke-width="1" width="208" x="242.5" y="15.5" /><text class="SystemAnalysis" dominant-baseline="middle" fill="grey" text-anchor="middle" transform="rotate(-90, 345.975, 157.14285714285717)" x="588" y="172"><tspan x="345.975" xml:space="preserve" y="62.91785714285717">System</tspan></text></g><g class="Box SystemComponent" id="230c4621-7e0a-4d0a-9db2-d4ba5e97b3df"><rect class="SystemComponent" fill="url(&quot;#CustomGradient_C3E6FF_96B1DA&quot;)" height="42" stroke="#4A4A97" stroke-width="1" width="73" x="257.5" y="108.5" /><text class="SystemComponent" dominant-baseline="middle" fill="#000000" text-anchor="middle" x="260" y="120"><tspan x="304.0" xml:space="preserve" y="128.85714285714286">System</tspan></text><use height="20" width="20" x="268.0" xlink:href="#SystemComponentSymbol" y="118.85714285714286" /></g><g class="Box SystemActor" id="d4a22478-5717-4ca7-bfc9-9a193e6218a8"><rect class="SystemActor" fill="url(&quot;#CustomGradient_DAFDFF_C6E6FF&quot;)" height="42" stroke="#4A4A97" stroke-width="1" width="93" x="257.5" y="165.5" /><text class="SystemActor" dominant-baseline="middle" fill="#000000" text-anchor="middle" x="260" y="177"><tspan x="314.0" xml:space="preserve" y="185.85714285714286">HollyWood</tspan></text><use height="20" width="20" x="269.5" xlink:href="#SystemActorSymbol" y="175.85714285714286" /></g><g class="Box SystemActor" id="da12377b-fb70-4441-8faa-3a5c153c5de2"><rect class="SystemActor" fill="url(&quot;#CustomGradient_DAFDFF_C6E6FF&quot;)" height="37" stroke="#4A4A97" stroke-width="1" width="71" x="364.5" y="165.5" /><text class="SystemActor" dominant-baseline="middle" fill="#000000" text-anchor="middle" x="367" y="177"><tspan x="410.0" xml:space="preserve" y="183.71428571428572">Affleck</tspan></text><use height="20" width="20" x="375.0" xlink:href="#SystemActorSymbol" y="173.71428571428572" /></g><g class="Box LogicalArchitecture" id="853cb005-cba0-489b-8fe3-bb694ad4543b"><rect class="LogicalArchitecture" fill="none" height="284" rx="5" ry="5" stroke="grey" stroke-width="1" width="366" x="15.5" y="314.5" /><text class="LogicalArchitecture" dominant-baseline="middle" fill="grey" text-anchor="middle" transform="rotate(-90, 197.825, 456.4285714285715)" x="213" y="771"><tspan x="197.825" xml:space="preserve" y="283.6035714285715">Logical</tspan></text></g><g class="Box LogicalComponent" id="0d2edb8f-fa34-4e73-89ec-fb9a63001440"><rect class="LogicalComponent" fill="url(&quot;#CustomGradient_C3E6FF_96B1DA&quot;)" height="254" stroke="#4A4A97" stroke-width="1" width="166" x="30.5" y="329.5" /><text class="LogicalComponent" dominant-baseline="middle" fill="#4A4A97" text-anchor="middle" x="73" y="334"><tspan x="123.5" xml:space="preserve" y="344.85714285714283">Hogwarts</tspan></text><use height="20" width="20" x="82.0" xlink:href="#LogicalComponentSymbol" y="334.85714285714283" /></g><g class="Box LogicalComponent" id="f632888e-51bc-4c9f-8e81-73e9404de784"><rect class="LogicalComponent" fill="url(&quot;#CustomGradient_C3E6FF_96B1DA&quot;)" height="37" stroke="#4A4A97" stroke-width="1" width="55" x="42.5" y="364.5" /><text class="LogicalComponent" dominant-baseline="middle" fill="#4A4A97" text-anchor="middle" x="45" y="376"><tspan x="80.0" xml:space="preserve" y="382.7142857142857">Left</tspan></text><use height="20" width="20" x="52.0" xlink:href="#LogicalComponentSymbol" y="372.7142857142857" /></g><g class="Box LogicalComponent" id="37dfa5e6-a121-4ce9-8aa4-09a0c73dc2e9"><rect class="LogicalComponent" fill="url(&quot;#CustomGradient_C3E6FF_96B1DA&quot;)" height="146" stroke="#4A4A97" stroke-width="1" width="114" x="42.5" y="426.5" /><text class="LogicalComponent" dominant-baseline="middle" fill="#4A4A97" text-anchor="middle" x="71" y="431"><tspan x="109.5" xml:space="preserve" y="441.85714285714283">Right</tspan></text><use height="20" width="20" x="78.5" xlink:href="#LogicalComponentSymbol" y="431.85714285714283" /></g><g class="Box LogicalComponent" id="e1e48763-7479-4f3a-8134-c82bb6705d58"><rect class="LogicalComponent" fill="url(&quot;#CustomGradient_C3E6FF_96B1DA&quot;)" height="42" stroke="#4A4A97" stroke-width="1" width="90" x="54.5" y="518.5" /><text class="LogicalComponent" dominant-baseline="middle" fill="#4A4A97" text-anchor="middle" x="57" y="530"><tspan x="109.5" xml:space="preserve" y="538.8571428571429">RightStack</tspan></text><use height="20" width="20" x="66.0" xlink:href="#LogicalComponentSymbol" y="528.8571428571429" /></g><g class="Box LogicalComponent" id="8df45b70-15cc-4d3a-99e4-593516392c5a"><rect class="LogicalComponent" fill="url(&quot;#CustomGradient_C3E6FF_96B1DA&quot;)" height="37" stroke="#4A4A97" stroke-width="1" width="83" x="54.5" y="460.5" /><text class="LogicalComponent" dominant-baseline="middle" fill="#4A4A97" text-anchor="middle" x="57" y="472"><tspan x="106.0" xml:space="preserve" y="478.7142857142857">LeftStack</tspan></text><use height="20" width="20" x="65.5" xlink:href="#LogicalComponentSymbol" y="468.7142857142857" /></g><g class="Box LogicalComponent" id="f8c9df04-fcd5-479d-814b-696fa6050231"><rect class="LogicalComponent" fill="url(&quot;#CustomGradient_C3E6FF_96B1DA&quot;)" height="42" stroke="#4A4A97" stroke-width="1" width="67" x="117.5" y="364.5" /><text class="LogicalComponent" dominant-baseline="middle" fill="#4A4A97" text-anchor="middle" x="120" y="376"><tspan x="161.0" xml:space="preserve" y="384.85714285714283">Upper</tspan></text><use height="20" width="20" x="127.5" xlink:href="#LogicalComponentSymbol" y="374.85714285714283" /></g><g class="Box LogicalComponent" id="6583b560-6d2f-4190-baa2-94eef179c8ea"><rect class="LogicalComponent" fill="url(&quot;#CustomGradient_C3E6FF_96B1DA&quot;)" height="88" stroke="#4A4A97" stroke-width="1" width="155" x="211.5" y="329.5" /><text class="LogicalComponent" dominant-baseline="middle" fill="#4A4A97" text-anchor="middle" x="253" y="334"><tspan x="299.5" xml:space="preserve" y="344.85714285714283">Campus</tspan></text><use height="20" width="20" x="261.5" xlink:href="#LogicalComponentSymbol" y="334.85714285714283" /></g><g class="Box LogicalActor" id="3bdd4fa2-5646-44a1-9fa6-80c68433ddb7"><rect class="LogicalActor" fill="url(&quot;#CustomGradient_DAFDFF_C6E6FF&quot;)" height="42" stroke="#4A4A97" stroke-width="1" width="131" x="223.5" y="364.5" /><text class="LogicalActor" dominant-baseline="middle" fill="#000000" text-anchor="middle" x="226" y="376"><tspan x="299.0" xml:space="preserve" y="384.85714285714283">Whomping Willow</tspan></text><use height="20" width="20" x="238.0" xlink:href="#LogicalActorSymbol" y="374.85714285714283" /></g><g class="Box PhysicalArchitecture" id="26e187b6-72e7-4872-8d8d-70b96243c96c"><rect class="PhysicalArchitecture" fill="none" height="284" rx="5" ry="5" stroke="grey" stroke-width="1" width="149" x="396.5" y="314.5" /><text class="PhysicalArchitecture" dominant-baseline="middle" fill="grey" text-anchor="middle" transform="rotate(-90, 470.2, 456.4285714285715)" x="866" y="771"><tspan x="470.2" xml:space="preserve" y="391.8785714285715">Physical</tspan></text></g><g class="Box PhysicalNodeComponent" id="b9f9a83c-fb02-44f7-9123-9d86326de5f1"><rect class="PhysicalNodeComponent" fill="url(&quot;#CustomGradient_FFFFDC_FFFCB7&quot;)" height="42" stroke="#7B694F" stroke-width="4" width="119" x="411.5" y="436.5" /><text class="PhysicalNodeComponent" dominant-baseline="middle" fill="#000000" text-anchor="middle" x="414" y="448"><tspan x="481.0" xml:space="preserve" y="458.85714285714283">Physical System</tspan></text><use height="20" width="20" x="425.0" xlink:href="#PhysicalNodeComponentSymbol" y="448.85714285714283" /></g><g class="Edge Realization" id="__Realization:230c4621-7e0a-4d0a-9db2-d4ba5e97b3df_e37510b9-3166-4f80-a919-dfaac9b696c7"><path class="Edge" d="M 257.5 133.5 113.5 152.5" fill="none" marker-end="url(&quot;#FineArrowMark_454545&quot;)" stroke="#454545" stroke-dasharray="5" stroke-width="1" /></g><g class="Edge Realization" id="__Realization:d4a22478-5717-4ca7-bfc9-9a193e6218a8_e37510b9-3166-4f80-a919-dfaac9b696c7"><path class="Edge" d="M 257.5 180.5 113.5 162.5" fill="none" marker-end="url(&quot;#FineArrowMark_454545&quot;)" stroke="#454545" stroke-dasharray="5" stroke-width="1" /></g><g class="Edge Realization" id="__Realization:d4a22478-5717-4ca7-bfc9-9a193e6218a8_a4f69ce4-2f3f-40d4-af58-423388df449f"><path class="Edge" d="M 257.5 167.5 212.5 150.5" fill="none" marker-end="url(&quot;#FineArrowMark_454545&quot;)" stroke="#454545" stroke-dasharray="5" stroke-width="1" /></g><g class="Edge Realization" id="__Realization:da12377b-fb70-4441-8faa-3a5c153c5de2_b805a725-4b13-4b77-810e-b0ba002d5d98"><path class="Edge" d="M 364.5 182.5 101.5 168.5" fill="none" marker-end="url(&quot;#FineArrowMark_454545&quot;)" stroke="#454545" stroke-dasharray="5" stroke-width="1" /></g><g class="Edge Realization" id="__Realization:0d2edb8f-fa34-4e73-89ec-fb9a63001440_230c4621-7e0a-4d0a-9db2-d4ba5e97b3df"><path class="Edge" d="M 183.5 329.5 282.5 150.5" fill="none" marker-end="url(&quot;#FineArrowMark_454545&quot;)" stroke="#454545" stroke-dasharray="5" stroke-width="1" /></g><g class="Edge Realization" id="__Realization:3bdd4fa2-5646-44a1-9fa6-80c68433ddb7_d4a22478-5717-4ca7-bfc9-9a193e6218a8"><path class="Edge" d="M 290.5 364.5 302.5 206.5" fill="none" marker-end="url(&quot;#FineArrowMark_454545&quot;)" stroke="#454545" stroke-dasharray="5" stroke-width="1" /></g><g class="Edge Realization" id="__Realization:3bdd4fa2-5646-44a1-9fa6-80c68433ddb7_da12377b-fb70-4441-8faa-3a5c153c5de2"><path class="Edge" d="M 300.5 364.5 389.5 202.5" fill="none" marker-end="url(&quot;#FineArrowMark_454545&quot;)" stroke="#454545" stroke-dasharray="5" stroke-width="1" /></g><g class="Edge Realization" id="__Realization:b9f9a83c-fb02-44f7-9123-9d86326de5f1_0d2edb8f-fa34-4e73-89ec-fb9a63001440"><path class="Edge" d="M 411.5 456.5 196.5 456.5" fill="none" marker-end="url(&quot;#FineArrowMark_454545&quot;)" stroke="#454545" stroke-dasharray="5" stroke-width="1" /></g><g class="Edge Realization" id="__Realization:b9f9a83c-fb02-44f7-9123-9d86326de5f1_3bdd4fa2-5646-44a1-9fa6-80c68433ddb7"><path class="Edge" d="M 417.5 436.5 341.5 406.5" fill="none" marker-end="url(&quot;#FineArrowMark_454545&quot;)" stroke="#454545" stroke-dasharray="5" stroke-width="1" /></g><g class="Edge Realization" id="__Realization:b9f9a83c-fb02-44f7-9123-9d86326de5f1_f632888e-51bc-4c9f-8e81-73e9404de784"><path class="Edge" d="M 411.5 445.5 97.5 388.5" fill="none" marker-end="url(&quot;#FineArrowMark_454545&quot;)" stroke="#454545" stroke-dasharray="5" stroke-width="1" /></g><g class="Edge Realization" id="__Realization:b9f9a83c-fb02-44f7-9123-9d86326de5f1_37dfa5e6-a121-4ce9-8aa4-09a0c73dc2e9"><path class="Edge" d="M 411.5 463.5 156.5 492.5" fill="none" marker-end="url(&quot;#FineArrowMark_454545&quot;)" stroke="#454545" stroke-dasharray="5" stroke-width="1" /></g><g class="Edge Realization" id="__Realization:b9f9a83c-fb02-44f7-9123-9d86326de5f1_f8c9df04-fcd5-479d-814b-696fa6050231"><path class="Edge" d="M 411.5 443.5 184.5 392.5" fill="none" marker-end="url(&quot;#FineArrowMark_454545&quot;)" stroke="#454545" stroke-dasharray="5" stroke-width="1" /></g><g class="Edge Realization" id="__Realization:b9f9a83c-fb02-44f7-9123-9d86326de5f1_e1e48763-7479-4f3a-8134-c82bb6705d58"><path class="Edge" d="M 411.5 470.5 144.5 529.5" fill="none" marker-end="url(&quot;#FineArrowMark_454545&quot;)" stroke="#454545" stroke-dasharray="5" stroke-width="1" /></g><g class="Edge Realization" id="__Realization:b9f9a83c-fb02-44f7-9123-9d86326de5f1_8df45b70-15cc-4d3a-99e4-593516392c5a"><path class="Edge" d="M 411.5 460.5 137.5 477.5" fill="none" marker-end="url(&quot;#FineArrowMark_454545&quot;)" stroke="#454545" stroke-dasharray="5" stroke-width="1" /></g></svg>