<svg baseProfile="full" class="RealizationViewDiagram" font-family="'Open Sans','Segoe UI',Arial,sans-serif" font-size="11px" height="718" shape-rendering="geometricPrecision" version="1.1" viewBox="5 5 484 718" width="484" xmlns="http://www.w3.org/2000/svg" xmlns:ev="http://www.w3.org/2001/xml-events" xmlns:xlink="http://www.w3.org/1999/xlink"><defs><symbol id="OperationalActorSymbol" stroke="#000" stroke-width="2" viewBox="0 0 50 50"><radialGradient cx="25.8" cy="9.965" fx="25.8" fy="9.965" gradientUnits="userSpaceOnUse" id="gray" r="8.06"><stop offset="0" stop-color="#fff" /><stop offset="1" stop-color="#9aaab9" /></radialGradient><circle cx="25.8" cy="9.965" fill="url(#gray)" r="7.445" /><path d="m 25.643608,17.4341 0.276914,19.3657 -9.691951,8.97218 v 0 l 9.691951,-8.97218 9.207354,8.838931 -9.345812,-8.927765 -0.137836,-8.984648 9.209822,0.04899 -18.407914,0.04443" fill="none" /></symbol><linearGradient id="CustomGradient_F9F8F5_DDDDC8" x1="0" x2="0" y1="0" y2="1"><stop offset="0.0" stop-color="#F9F8F5" stop-opacity="1" /><stop offset="1.0" stop-color="#DDDDC8" stop-opacity="1" /></linearGradient><symbol id="OperationalActivitySymbol" viewBox="0 0 79 79"><linearGradient id="OA_orange" x1="0" x2="1" y1="0" y2="0"><stop offset="0.0" stop-color="#f4901d" stop-opacity="1" /><stop offset="1.0" stop-color="#fff" stop-opacity="1" /></linearGradient><ellipse cx="42.2" cy="32" fill="url(#OA_orange)" rx="22.5" ry="15.5" stroke="#000" stroke-width="2" /><text fill="#000" font-family="'Open Sans','Segoe UI',Arial,sans-serif" font-size="16px" font-weight="bold" stroke="none" text-anchor="middle" x="42.2" y="38">OA</text></symbol><symbol id="EntitySymbol" stroke="#000" stroke-width="2" viewBox="0 0 79 79"><path d="M18 237h46v43H18z" fill="#a5b9c8" transform="translate(0 -218)" /><path d="M12 247h11v8H12z" fill="#a5b9c8" transform="translate(0 -218)" /><path d="M12 261h11v8H12z" fill="#a5b9c8" transform="translate(0 -218)" /><path d="m 41.658466,55.581913 q 0,1.062616 -0.693953,1.734883 -0.672267,0.672267 -1.734883,0.672267 h -9.498483 q -1.062615,0 -1.734883,-0.672267 -0.672267,-0.672267 -0.672267,-1.734883 V 26.457569 q 0,-1.062615 0.672267,-1.734882 0.672268,-0.672267 1.734883,-0.672267 h 9.498483 q 1.062616,0 1.734883,0.672267 0.693953,0.672267 0.693953,1.734882 z M 38.644107,55.321681 V 26.717802 h -8.305751 v 28.603879 z" fill="#000" /><path d="M 58.248283,57.989063 H 47.101662 V 24.05042 h 11.016505 v 2.667382 H 50.11602 v 12.664644 h 5.091614 l 0.09145,2.616665 -5.183068,0.09409 v 13.228481 h 8.132263 z" fill="#000" /></symbol><symbol id="SystemComponentSymbol" viewBox="0 12 79 55"><g transform="matrix(0.25509703,0,0,0.25509703,-19.119473,-26.4767)"><g fill="#e3ebf8" stroke-width="1.33145" transform="matrix(0.92548165,0,0,0.92249056,-32.422011,-1.2909536)"><path d="m 160.03785,180.47519 h 280.8845 v 200.68502 h -280.8845 z" stroke="#000" stroke-width="7" /></g><path d="m 81.854696,210.17533 h 66.250264 v 35.37025 H 81.854696 Z" fill="#e7efff" stroke="#000" stroke-width="7" /><path d="m 83.588316,268.94271 h 66.250254 v 35.37024 H 83.588316 Z" fill="#e7efff" stroke="#000" stroke-width="7" /><rect fill="#000" height="5" stroke="#000" stroke-width="54.1038" width="5" x="214.8075" y="236.39" /><rect fill="#000" height="5" stroke="#000" stroke-width="54.1038" width="5" x="297.44" y="298.36" /><rect fill="#000" height="5" stroke="#000" stroke-width="54.1038" width="5" x="297.44" y="215.73" /><path d="m 219.70896,218.22099 h 79.0257 v 85.9132 h -80.34135 z" fill="none" stroke="#000" stroke-width="4.29901px" /></g></symbol><linearGradient id="CustomGradient_C3E6FF_96B1DA" x1="0" x2="0" y1="0" y2="1"><stop offset="0.0" stop-color="#C3E6FF" stop-opacity="1" /><stop offset="1.0" stop-color="#96B1DA" stop-opacity="1" /></linearGradient><symbol id="SystemFunctionSymbol" viewBox="0 0 79 79"><linearGradient id="SF_green" x1="0" x2="1" y1="0" y2="0"><stop offset="0.0" stop-color="#6CB35B" stop-opacity="1" /><stop offset="1.0" stop-color="#ffffff" stop-opacity="1" /></linearGradient><ellipse cx="42.2" cy="32" fill="url(#SF_green)" rx="22.5" ry="15.5" stroke="#000" stroke-width="2" /><text fill="#000" font-family="'Open Sans','Segoe UI',Arial,sans-serif" font-size="16px" font-weight="bold" stroke="none" text-anchor="middle" x="42.2" y="38">SF</text></symbol><linearGradient id="CustomGradient_F4FFE0_C5FFA6" x1="0" x2="0" y1="0" y2="1"><stop offset="0.0" stop-color="#F4FFE0" stop-opacity="1" /><stop offset="1.0" stop-color="#C5FFA6" stop-opacity="1" /></linearGradient><symbol id="LogicalHumanActorSymbol" stroke="#000" stroke-width="2" viewBox="0 0 79 79"><use transform="matrix(0.81762456,0,0,0.81762456,-2.5207584,0.47091696)" xlink:href="#StickFigureSymbol" /></symbol><symbol id="StickFigureSymbol" stroke="#000" stroke-width="2" viewBox="362.861 210.892 75 75"><g stroke="#000" stroke-width="2.4944" transform="matrix(1.0611338,0,0,1.0611338,-24.47665,-12.241673)"><line fill="none" x1="400.362" x2="400.362" y1="232.586" y2="257.534" /><line fill="none" x1="400.83401" x2="388.423" y1="254.299" y2="275.009" /><line fill="none" x1="400.25201" x2="413.97" y1="254.46001" y2="274.987" /><line fill="none" x1="385.634" x2="415.703" y1="244.569" y2="244.49699" /><ellipse cx="400.53201" cy="223.35899" fill="none" rx="9.2180004" ry="8.5080004" /></g></symbol><symbol id="LogicalFunctionSymbol" viewBox="0 0 79 79"><linearGradient id="LF_green" x1="0" x2="1" y1="0" y2="0"><stop offset="0.0" stop-color="#6CB35B" stop-opacity="1" /><stop offset="1.0" stop-color="#ffffff" stop-opacity="1" /></linearGradient><ellipse cx="42.2" cy="32" fill="url(#LF_green)" rx="22.5" ry="15.5" stroke="#000" stroke-width="2" /><text fill="#000" font-family="'Open Sans','Segoe UI',Arial,sans-serif" font-size="16px" font-weight="bold" stroke="none" text-anchor="middle" x="42.2" y="38">LF</text></symbol><symbol id="PhysicalBehaviorComponentSymbol" stroke="#000" stroke-width="2" viewBox="0 0 79 79"><path d="M18 237h46v43H18z" fill="#a5bde7" transform="translate(0 -218)" /><path d="M12 247h11v8H12z" fill="#a5bde7" transform="translate(0 -218)" /><path d="M12 261h11v8H12z" fill="#a5bde7" transform="translate(0 -218)" /><path d="m 57.589299,33.276194 c 0,1.410473 -0.249326,2.72122 -0.747979,3.93224 -0.484407,1.19676 -1.168275,2.236807 -2.051603,3.12014 -1.097038,1.097033 -2.393538,1.923373 -3.889499,2.47902 -1.495959,0.541393 -3.383718,0.81209 -5.663277,0.81209 h -4.231429 v 11.86083 h -4.23143 v -31.82122 h 8.633826 c 1.909129,0 3.526191,0.163843 4.851185,0.49153 1.324993,0.31344 2.500391,0.812097 3.526192,1.49597 1.211016,0.812087 2.14421,1.82364 2.799583,3.03466 0.669621,1.211013 1.004431,2.742593 1.004431,4.59474 z m -4.402396,0.10687 c 0,-1.09704 -0.192339,-2.051607 -0.577016,-2.8637 -0.384675,-0.812093 -0.968811,-1.47459 -1.752408,-1.98749 -0.683868,-0.441667 -1.467467,-0.755107 -2.350798,-0.94032 -0.869079,-0.19946 -1.97324,-0.29919 -3.312483,-0.29919 h -4.188686 v 12.71566 h 3.568931 c 1.709669,0 3.098776,-0.149593 4.167321,-0.44878 1.068543,-0.31344 1.937623,-0.80497 2.607242,-1.47459 0.669621,-0.683867 1.139781,-1.403353 1.410478,-2.15846 0.284946,-0.7551 0.427419,-1.60281 0.427419,-2.54313 z" fill="#000" stroke-width="0.1" /></symbol><symbol id="PhysicalFunctionSymbol" viewBox="0 0 79 79"><linearGradient id="PF_green" x1="0" x2="1" y1="0" y2="0"><stop offset="0.0" stop-color="#6CB35B" stop-opacity="1" /><stop offset="1.0" stop-color="#ffffff" stop-opacity="1" /></linearGradient><ellipse cx="42.2" cy="32" fill="url(#PF_green)" rx="22.5" ry="15.5" stroke="#000" stroke-width="2" /><text fill="#000" font-family="'Open Sans','Segoe UI',Arial,sans-serif" font-size="16px" font-weight="bold" stroke="none" text-anchor="middle" x="42.2" y="38">PF</text></symbol><marker id="FineArrowMark_454545" markerHeight="7.5" markerUnits="userSpaceOnUse" markerWidth="7.5" orient="auto" refX="7" refY="3.75"><path d="M 0.4535,0.107 7.309,3.621 0.492,7.407 0.144,7.407 6.414,3.63 0.136,0.479 Z" fill="none" stroke="#454545" stroke-dasharray="5" stroke-width="1" /></marker></defs><rect fill="#fff" height="718" stroke="none" width="484" x="5" y="5" /><g class="Box OperationalAnalysis" id="ddbef16d-ddb9-4162-934c-f1e40e6f8bed"><rect class="OperationalAnalysis" fill="none" height="266" rx="5" ry="5" stroke="grey" stroke-width="1" width="464" x="15.5" y="15.5" /><text class="OperationalAnalysis" dominant-baseline="middle" fill="grey" text-anchor="middle" transform="rotate(-90, 247.14285714285717, 147.78571428571428)" x="262" y="163"><tspan x="247.14285714285717" xml:space="preserve" y="-74.35714285714289">Operational</tspan></text></g><g class="Box OperationalActor" id="a8c42033-fdf2-458f-bae9-1cfd1207c49f"><rect class="OperationalActor" fill="url(&quot;#CustomGradient_F9F8F5_DDDDC8&quot;)" height="236" stroke="#454545" stroke-width="1" width="196" x="38.5" y="30.5" /><text class="OperationalActor" dominant-baseline="middle" fill="#000000" text-anchor="middle" x="66" y="35"><tspan x="146.5" xml:space="preserve" y="47.285714285714285">Functional Human</tspan><tspan x="146.5" xml:space="preserve" y="64.42857142857143">Being</tspan></text><use height="20" width="20" x="75.45238095238096" xlink:href="#OperationalActorSymbol" y="43.51948051948052" /></g><g class="Box OperationalActivity" id="ab016025-d456-4c2d-8359-d50cf9de3825"><rect class="OperationalActivity" fill="#F7DA74" height="47" rx="10px" ry="10px" stroke="#5B4040" stroke-width="1" width="79" x="131.5" y="82.5" /><text class="OperationalActivity" dominant-baseline="middle" fill="#5B4040" text-anchor="middle" x="134" y="95"><tspan x="181.5" xml:space="preserve" y="107.28571428571429">Sleep</tspan></text><use height="20" width="20" x="145.21428571428572" xlink:href="#OperationalActivitySymbol" y="97.28571428571429" /></g><g class="Box OperationalActivity" id="8bcb11e6-443b-4b92-bec2-ff1d87a224e7"><rect class="OperationalActivity" fill="#F7DA74" height="41" rx="10px" ry="10px" stroke="#5B4040" stroke-width="1" width="62" x="50.5" y="82.5" /><text class="OperationalActivity" dominant-baseline="middle" fill="#5B4040" text-anchor="middle" x="53" y="95"><tspan x="92.0" xml:space="preserve" y="104.42857142857143">Eat</tspan></text><use height="20" width="20" x="61.42857142857143" xlink:href="#OperationalActivitySymbol" y="94.42857142857143" /></g><g class="Box OperationalActivity" id="0e0164c3-076e-42c1-8f82-7a43ab84385c"><rect class="OperationalActivity" fill="#F7DA74" height="42" rx="10px" ry="10px" stroke="#5B4040" stroke-width="1" width="125" x="50.5" y="149.5" /><text class="OperationalActivity" dominant-baseline="middle" fill="#5B4040" text-anchor="middle" x="53" y="162"><tspan x="123.5" xml:space="preserve" y="172.14285714285714">Make Food</tspan></text><use height="20" width="20" x="71.97619047619048" xlink:href="#OperationalActivitySymbol" y="162.14285714285714" /></g><g class="Box OperationalActivity" id="a5ba1fbc-59a3-4684-9043-3d5cd3dec5fe"><rect class="OperationalActivity" fill="#F7DA74" height="42" rx="10px" ry="10px" stroke="#5B4040" stroke-width="1" width="172" x="50.5" y="211.5" /><text class="OperationalActivity" dominant-baseline="middle" fill="#5B4040" text-anchor="middle" x="53" y="224"><tspan x="147.0" xml:space="preserve" y="234.14285714285714">Hunt wild animal</tspan></text><use height="20" width="20" x="79.76190476190476" xlink:href="#OperationalActivitySymbol" y="224.14285714285714" /></g><g class="Box Entity" id="e37510b9-3166-4f80-a919-dfaac9b696c7"><rect class="Entity" fill="url(&quot;#CustomGradient_F9F8F5_DDDDC8&quot;)" height="90" stroke="#454545" stroke-width="1" width="209" x="248.5" y="30.5" /><text class="Entity" dominant-baseline="middle" fill="#000000" text-anchor="middle" x="286" y="35"><tspan x="363.5" xml:space="preserve" y="44.42857142857143">Environment</tspan></text><use height="20" width="20" x="307.2142857142857" xlink:href="#EntitySymbol" y="34.42857142857143" /></g><g class="Box OperationalActivity" id="a0159943-264f-4a97-a245-565fb6bf9db4"><rect class="OperationalActivity" fill="#F7DA74" height="47" rx="10px" ry="10px" stroke="#5B4040" stroke-width="1" width="185" x="260.5" y="62.5" /><text class="OperationalActivity" dominant-baseline="middle" fill="#5B4040" text-anchor="middle" x="263" y="75"><tspan x="363.5" xml:space="preserve" y="87.28571428571429">Spawn wild animal</tspan></text><use height="20" width="20" x="291.9761904761905" xlink:href="#OperationalActivitySymbol" y="77.28571428571429" /></g><g class="Box SystemAnalysis" id="79d35fe7-f172-4405-b499-48aef545148a"><rect class="SystemAnalysis" fill="none" height="125" rx="5" ry="5" stroke="grey" stroke-width="1" width="464" x="15.5" y="296.5" /><text class="SystemAnalysis" dominant-baseline="middle" fill="grey" text-anchor="middle" transform="rotate(-90, 247.14285714285717, 357.9285714285714)" x="262" y="654"><tspan x="247.14285714285717" xml:space="preserve" y="135.78571428571422">System</tspan></text></g><g class="Box SystemComponent" id="230c4621-7e0a-4d0a-9db2-d4ba5e97b3df"><rect class="SystemComponent" fill="url(&quot;#CustomGradient_C3E6FF_96B1DA&quot;)" height="95" stroke="#4A4A97" stroke-width="1" width="140" x="177.5" y="311.5" /><text class="SystemComponent" dominant-baseline="middle" fill="#000000" text-anchor="middle" x="204" y="316"><tspan x="258.5" xml:space="preserve" y="327.57142857142856">System</tspan></text><use height="20" width="20" x="217.45238095238096" xlink:href="#SystemComponentSymbol" y="317.57142857142856" /></g><g class="Box SystemFunction" id="00e7b925-cf4c-4cb0-929e-5409a1cd872b"><rect class="SystemFunction" fill="url(&quot;#CustomGradient_F4FFE0_C5FFA6&quot;)" height="47" rx="10px" ry="10px" stroke="#4D8914" stroke-width="1" width="116" x="189.5" y="347.5" /><text class="SystemFunction" dominant-baseline="middle" fill="#000000" text-anchor="middle" x="192" y="360"><tspan x="258.0" xml:space="preserve" y="370.2857142857143">Sysexfunc</tspan></text><use height="20" width="20" x="209.33333333333334" xlink:href="#SystemFunctionSymbol" y="360.2857142857143" /></g><g class="Box LogicalArchitecture" id="853cb005-cba0-489b-8fe3-bb694ad4543b"><rect class="LogicalArchitecture" fill="none" height="138" rx="5" ry="5" stroke="grey" stroke-width="1" width="464" x="15.5" y="435.5" /><text class="LogicalArchitecture" dominant-baseline="middle" fill="grey" text-anchor="middle" transform="rotate(-90, 247.14285714285717, 504.35714285714283)" x="262" y="940"><tspan x="247.14285714285717" xml:space="preserve" y="282.21428571428567">Logical</tspan></text></g><g class="Box LogicalHumanActor" id="08e02248-504d-4ed8-a295-c7682a614f66"><rect class="LogicalHumanActor" fill="url(&quot;#CustomGradient_C3E6FF_96B1DA&quot;)" height="108" stroke="#4A4A97" stroke-width="1" width="161" x="166.5" y="450.5" /><text class="LogicalHumanActor" dominant-baseline="middle" fill="#4A4A97" text-anchor="middle" x="171" y="455"><tspan x="257.5" xml:space="preserve" y="465.14285714285717">Prof. A. P. W. B.</tspan><tspan x="257.5" xml:space="preserve" y="479.42857142857144">Dumbledore</tspan></text><use height="20" width="20" x="195.02380952380952" xlink:href="#LogicalHumanActorSymbol" y="460.3376623376624" /></g><g class="Box LogicalFunction" id="beaf5ba4-8fa9-4342-911f-0266bb29be45"><rect class="LogicalFunction" fill="url(&quot;#CustomGradient_F4FFE0_C5FFA6&quot;)" height="47" rx="10px" ry="10px" stroke="#4D8914" stroke-width="4" width="137" x="178.5" y="500.5" /><text class="LogicalFunction" dominant-baseline="middle" fill="#000000" text-anchor="middle" x="181" y="513"><tspan x="257.5" xml:space="preserve" y="523.2857142857143">advise Harry</tspan></text><use height="20" width="20" x="201.6904761904762" xlink:href="#LogicalFunctionSymbol" y="513.2857142857143" /></g><g class="Box PhysicalArchitecture" id="26e187b6-72e7-4872-8d8d-70b96243c96c"><rect class="PhysicalArchitecture" fill="none" height="125" rx="5" ry="5" stroke="grey" stroke-width="1" width="464" x="15.5" y="588.5" /><text class="PhysicalArchitecture" dominant-baseline="middle" fill="grey" text-anchor="middle" transform="rotate(-90, 247.14285714285717, 650.7857142857143)" x="262" y="1239"><tspan x="247.14285714285717" xml:space="preserve" y="428.64285714285717">Physical</tspan></text></g><g class="Box PhysicalBehaviorComponent" id="ca5af12c-5259-4844-aaac-9ca9f84aa90b"><rect class="PhysicalBehaviorComponent" fill="url(&quot;#CustomGradient_C3E6FF_96B1DA&quot;)" height="95" rx="10px" ry="10px" stroke="#4A4A97" stroke-width="1" width="179" x="158.5" y="603.5" /><text class="PhysicalBehaviorComponent" dominant-baseline="middle" fill="#000000" font-style="italic" text-anchor="middle" x="189" y="608"><tspan x="258.5" xml:space="preserve" y="619.5714285714286">App 2 SWC</tspan></text><use height="20" width="20" x="207.45238095238096" xlink:href="#PhysicalBehaviorComponentSymbol" y="609.5714285714286" /></g><g class="Box PhysicalFunction" id="da53c21f-4fb8-4da7-8d58-12d7a600bfa6"><rect class="PhysicalFunction" fill="#C5FFA6" height="47" stroke="#095C2E" stroke-width="1" width="155" x="170.5" y="640.5" /><text class="PhysicalFunction" dominant-baseline="middle" text-anchor="middle" x="173" y="653"><tspan x="258.5" xml:space="preserve" y="663.2857142857143">Apping around</tspan></text><use height="20" width="20" x="196.97619047619048" xlink:href="#PhysicalFunctionSymbol" y="653.2857142857143" /></g><g class="Edge Realization" id="__Realization:00e7b925-cf4c-4cb0-929e-5409a1cd872b_ab016025-d456-4c2d-8359-d50cf9de3825"><path class="Edge" d="M 240.5 347.5 177.5 129.5" fill="none" marker-end="url(&quot;#FineArrowMark_454545&quot;)" stroke="#454545" stroke-dasharray="5" stroke-width="1" /></g><g class="Edge Realization" id="__Realization:00e7b925-cf4c-4cb0-929e-5409a1cd872b_8bcb11e6-443b-4b92-bec2-ff1d87a224e7"><path class="Edge" d="M 233.5 347.5 93.5 123.5" fill="none" marker-end="url(&quot;#FineArrowMark_454545&quot;)" stroke="#454545" stroke-dasharray="5" stroke-width="1" /></g><g class="Edge Realization" id="__Realization:00e7b925-cf4c-4cb0-929e-5409a1cd872b_a0159943-264f-4a97-a245-565fb6bf9db4"><path class="Edge" d="M 256.5 347.5 344.5 108.5" fill="none" marker-end="url(&quot;#FineArrowMark_454545&quot;)" stroke="#454545" stroke-dasharray="5" stroke-width="1" /></g><g class="Edge Realization" id="__Realization:00e7b925-cf4c-4cb0-929e-5409a1cd872b_0e0164c3-076e-42c1-8f82-7a43ab84385c"><path class="Edge" d="M 231.5 347.5 126.5 191.5" fill="none" marker-end="url(&quot;#FineArrowMark_454545&quot;)" stroke="#454545" stroke-dasharray="5" stroke-width="1" /></g><g class="Edge Realization" id="__Realization:00e7b925-cf4c-4cb0-929e-5409a1cd872b_a5ba1fbc-59a3-4684-9043-3d5cd3dec5fe"><path class="Edge" d="M 228.5 347.5 153.5 254.5" fill="none" marker-end="url(&quot;#FineArrowMark_454545&quot;)" stroke="#454545" stroke-dasharray="5" stroke-width="1" /></g><g class="Edge Realization" id="__Realization:beaf5ba4-8fa9-4342-911f-0266bb29be45_00e7b925-cf4c-4cb0-929e-5409a1cd872b"><path class="Edge" d="M 247.5 500.5 247.5 393.5" fill="none" marker-end="url(&quot;#FineArrowMark_454545&quot;)" stroke="#454545" stroke-dasharray="5" stroke-width="1" /></g><g class="Edge Realization" id="__Realization:da53c21f-4fb8-4da7-8d58-12d7a600bfa6_beaf5ba4-8fa9-4342-911f-0266bb29be45"><path class="Edge" d="M 247.5 640.5 247.5 546.5" fill="none" marker-end="url(&quot;#FineArrowMark_454545&quot;)" stroke="#454545" stroke-dasharray="5" stroke-width="1" /></g></svg>