<svg baseProfile="full" class="RealizationViewDiagram" font-family="'Open Sans','Segoe UI',Arial,sans-serif" font-size="10px" height="205" shape-rendering="geometricPrecision" version="1.1" viewBox="5 5 445 205" width="445" xmlns="http://www.w3.org/2000/svg" xmlns:ev="http://www.w3.org/2001/xml-events" xmlns:xlink="http://www.w3.org/1999/xlink"><defs><symbol id="LogicalComponentSymbol" stroke="#000" stroke-width="2" viewBox="0 0 79 79"><path d="M18 237h46v43H18z" fill="#dbe6f4" transform="translate(0 -218)" /><path d="M12 247h11v8H12z" fill="#dbe6f4" transform="translate(0 -218)" /><path d="M12 261h11v8H12z" fill="#dbe6f4" transform="translate(0 -218)" /><g transform="scale(0.90705135,1.1024734)"><path d="m 37.427456,20.821353 h 4.221475 V 50.90971 H 37.427456 Z M 39.538194,46.89517 H 56.75519 v 4.01454 H 39.538194 Z" fill="#000" stroke-width="0.1" /></g></symbol><linearGradient id="CustomGradient_C3E6FF_96B1DA" x1="0" x2="0" y1="0" y2="1"><stop offset="0.0" stop-color="#C3E6FF" stop-opacity="1" /><stop offset="1.0" stop-color="#96B1DA" stop-opacity="1" /></linearGradient><symbol id="LogicalActorSymbol" stroke="#000" stroke-width="2" viewBox="0 0 79 79"><path d="M18 237h46v43H18z" fill="#dbe6f4" transform="translate(0 -218)" /><path d="M12 247h11v8H12z" fill="#dbe6f4" transform="translate(0 -218)" /><path d="M12 261h11v8H12z" fill="#dbe6f4" transform="translate(0 -218)" /><g fill="#000" stroke-width="0.1" transform="scale(0.83010896,1.2046611)"><path d="m 31.063676,19.942628 h 3.754427 v 26.759494 h -3.754427 z m 1.877213,23.189107 h 15.312173 v 3.570387 H 32.940889 Z" /><path d="m 60.32612,19.942628 h 3.202306 l 9.864572,26.759494 H 69.344107 L 61.927273,25.114167 54.51044,46.702122 H 50.461548 Z M 55.007349,37.260842 H 69.08645 v 3.570387 H 55.007349 Z" /></g></symbol><linearGradient id="CustomGradient_DAFDFF_C6E6FF" x1="0" x2="0" y1="0" y2="1"><stop offset="0.0" stop-color="#DAFDFF" stop-opacity="1" /><stop offset="1.0" stop-color="#C6E6FF" stop-opacity="1" /></linearGradient><symbol id="PhysicalNodeComponentSymbol" stroke="#000" stroke-width="2" viewBox="0 0 79 79"><path d="M18 237h46v43H18z" fill="#ffff00" transform="translate(0 -218)" /><path d="M12 247h11v8H12z" fill="#ffff00" transform="translate(0 -218)" /><path d="M12 261h11v8H12z" fill="#ffff00" transform="translate(0 -218)" /><path d="m 57.589299,33.276194 c 0,1.410473 -0.249326,2.72122 -0.747979,3.93224 -0.484407,1.19676 -1.168275,2.236807 -2.051603,3.12014 -1.097038,1.097033 -2.393538,1.923373 -3.889499,2.47902 -1.495959,0.541393 -3.383718,0.81209 -5.663277,0.81209 h -4.231429 v 11.86083 h -4.23143 v -31.82122 h 8.633826 c 1.909129,0 3.526191,0.163843 4.851185,0.49153 1.324993,0.31344 2.500391,0.812097 3.526192,1.49597 1.211016,0.812087 2.14421,1.82364 2.799583,3.03466 0.669621,1.211013 1.004431,2.742593 1.004431,4.59474 z m -4.402396,0.10687 c 0,-1.09704 -0.192339,-2.051607 -0.577016,-2.8637 -0.384675,-0.812093 -0.968811,-1.47459 -1.752408,-1.98749 -0.683868,-0.441667 -1.467467,-0.755107 -2.350798,-0.94032 -0.869079,-0.19946 -1.97324,-0.29919 -3.312483,-0.29919 h -4.188686 v 12.71566 h 3.568931 c 1.709669,0 3.098776,-0.149593 4.167321,-0.44878 1.068543,-0.31344 1.937623,-0.80497 2.607242,-1.47459 0.669621,-0.683867 1.139781,-1.403353 1.410478,-2.15846 0.284946,-0.7551 0.427419,-1.60281 0.427419,-2.54313 z" fill="#000" stroke-width="0.1" /></symbol><linearGradient id="CustomGradient_FFFFDC_FFFCB7" x1="0" x2="0" y1="0" y2="1"><stop offset="0.0" stop-color="#FFFFDC" stop-opacity="1" /><stop offset="1.0" stop-color="#FFFCB7" stop-opacity="1" /></linearGradient><marker id="FineArrowMark_454545" markerHeight="7.5" markerUnits="userSpaceOnUse" markerWidth="7.5" orient="auto" refX="7" refY="3.75"><path d="M 0.4535,0.107 7.309,3.621 0.492,7.407 0.144,7.407 6.414,3.63 0.136,0.479 Z" stroke="#454545" stroke-width="1" /></marker></defs><rect fill="#fff" height="205" stroke="none" width="445" x="5" y="5" /><g class="Box LogicalArchitecture" id="853cb005-cba0-489b-8fe3-bb694ad4543b"><rect class="LogicalArchitecture" fill="none" height="185" rx="5" ry="5" stroke="grey" stroke-width="1" width="261" x="15.5" y="15.5" /><text class="LogicalArchitecture" dominant-baseline="middle" fill="grey" text-anchor="middle" transform="rotate(-90, 145.675, 107.57142857142858)" x="161" y="123"><tspan x="145.675" xml:space="preserve" y="-13.103571428571428">Logical</tspan></text></g><g class="Box LogicalComponent" id="0d2edb8f-fa34-4e73-89ec-fb9a63001440"><rect class="LogicalComponent" fill="url(&quot;#CustomGradient_C3E6FF_96B1DA&quot;)" height="42" stroke="#4A4A97" stroke-width="1" width="86" x="30.5" y="30.5" /><text class="LogicalComponent" dominant-baseline="middle" fill="#4A4A97" text-anchor="middle" x="33" y="42"><tspan x="83.5" xml:space="preserve" y="50.85714285714286">Hogwarts</tspan></text><use height="20" width="20" x="42.0" xlink:href="#LogicalComponentSymbol" y="40.85714285714286" /></g><g class="Box LogicalActor" id="3bdd4fa2-5646-44a1-9fa6-80c68433ddb7"><rect class="LogicalActor" fill="url(&quot;#CustomGradient_DAFDFF_C6E6FF&quot;)" height="42" stroke="#4A4A97" stroke-width="1" width="131" x="131.5" y="30.5" /><text class="LogicalActor" dominant-baseline="middle" fill="#000000" text-anchor="middle" x="134" y="42"><tspan x="207.0" xml:space="preserve" y="50.85714285714286">Whomping Willow</tspan></text><use height="20" width="20" x="146.0" xlink:href="#LogicalActorSymbol" y="40.85714285714286" /></g><g class="Box LogicalComponent" id="f632888e-51bc-4c9f-8e81-73e9404de784"><rect class="LogicalComponent" fill="url(&quot;#CustomGradient_C3E6FF_96B1DA&quot;)" height="37" stroke="#4A4A97" stroke-width="1" width="55" x="30.5" y="87.5" /><text class="LogicalComponent" dominant-baseline="middle" fill="#4A4A97" text-anchor="middle" x="33" y="99"><tspan x="68.0" xml:space="preserve" y="105.71428571428571">Left</tspan></text><use height="20" width="20" x="40.0" xlink:href="#LogicalComponentSymbol" y="95.71428571428571" /></g><g class="Box LogicalComponent" id="37dfa5e6-a121-4ce9-8aa4-09a0c73dc2e9"><rect class="LogicalComponent" fill="url(&quot;#CustomGradient_C3E6FF_96B1DA&quot;)" height="42" stroke="#4A4A97" stroke-width="1" width="62" x="100.5" y="87.5" /><text class="LogicalComponent" dominant-baseline="middle" fill="#4A4A97" text-anchor="middle" x="103" y="99"><tspan x="141.5" xml:space="preserve" y="107.85714285714286">Right</tspan></text><use height="20" width="20" x="110.5" xlink:href="#LogicalComponentSymbol" y="97.85714285714286" /></g><g class="Box LogicalComponent" id="f8c9df04-fcd5-479d-814b-696fa6050231"><rect class="LogicalComponent" fill="url(&quot;#CustomGradient_C3E6FF_96B1DA&quot;)" height="42" stroke="#4A4A97" stroke-width="1" width="67" x="176.5" y="87.5" /><text class="LogicalComponent" dominant-baseline="middle" fill="#4A4A97" text-anchor="middle" x="179" y="99"><tspan x="220.0" xml:space="preserve" y="107.85714285714286">Upper</tspan></text><use height="20" width="20" x="186.5" xlink:href="#LogicalComponentSymbol" y="97.85714285714286" /></g><g class="Box LogicalComponent" id="e1e48763-7479-4f3a-8134-c82bb6705d58"><rect class="LogicalComponent" fill="url(&quot;#CustomGradient_C3E6FF_96B1DA&quot;)" height="42" stroke="#4A4A97" stroke-width="1" width="90" x="30.5" y="143.5" /><text class="LogicalComponent" dominant-baseline="middle" fill="#4A4A97" text-anchor="middle" x="33" y="155"><tspan x="85.5" xml:space="preserve" y="163.85714285714286">RightStack</tspan></text><use height="20" width="20" x="42.0" xlink:href="#LogicalComponentSymbol" y="153.85714285714286" /></g><g class="Box LogicalComponent" id="8df45b70-15cc-4d3a-99e4-593516392c5a"><rect class="LogicalComponent" fill="url(&quot;#CustomGradient_C3E6FF_96B1DA&quot;)" height="37" stroke="#4A4A97" stroke-width="1" width="83" x="135.5" y="143.5" /><text class="LogicalComponent" dominant-baseline="middle" fill="#4A4A97" text-anchor="middle" x="138" y="155"><tspan x="187.0" xml:space="preserve" y="161.71428571428572">LeftStack</tspan></text><use height="20" width="20" x="146.5" xlink:href="#LogicalComponentSymbol" y="151.71428571428572" /></g><g class="Box PhysicalArchitecture" id="26e187b6-72e7-4872-8d8d-70b96243c96c"><rect class="PhysicalArchitecture" fill="none" height="185" rx="5" ry="5" stroke="grey" stroke-width="1" width="149" x="291.5" y="15.5" /><text class="PhysicalArchitecture" dominant-baseline="middle" fill="grey" text-anchor="middle" transform="rotate(-90, 365.90000000000003, 107.57142857142858)" x="657" y="123"><tspan x="365.90000000000003" xml:space="preserve" y="43.02142857142859">Physical</tspan></text></g><g class="Box PhysicalNodeComponent" id="b9f9a83c-fb02-44f7-9123-9d86326de5f1"><rect class="PhysicalNodeComponent" fill="url(&quot;#CustomGradient_FFFFDC_FFFCB7&quot;)" height="42" stroke="#7B694F" stroke-width="4" width="119" x="306.5" y="87.5" /><text class="PhysicalNodeComponent" dominant-baseline="middle" fill="#000000" text-anchor="middle" x="309" y="99"><tspan x="376.0" xml:space="preserve" y="109.85714285714286">Physical System</tspan></text><use height="20" width="20" x="320.0" xlink:href="#PhysicalNodeComponentSymbol" y="99.85714285714286" /></g><g class="Edge Realization" id="__Realization:b9f9a83c-fb02-44f7-9123-9d86326de5f1_0d2edb8f-fa34-4e73-89ec-fb9a63001440"><path class="Edge" d="M 306.5 96.5 116.5 59.5" fill="none" marker-end="url(&quot;#FineArrowMark_454545&quot;)" stroke="#454545" stroke-dasharray="5" stroke-width="1" /></g><g class="Edge Realization" id="__Realization:b9f9a83c-fb02-44f7-9123-9d86326de5f1_3bdd4fa2-5646-44a1-9fa6-80c68433ddb7"><path class="Edge" d="M 306.5 88.5 259.5 72.5" fill="none" marker-end="url(&quot;#FineArrowMark_454545&quot;)" stroke="#454545" stroke-dasharray="5" stroke-width="1" /></g><g class="Edge Realization" id="__Realization:b9f9a83c-fb02-44f7-9123-9d86326de5f1_f632888e-51bc-4c9f-8e81-73e9404de784"><path class="Edge" d="M 306.5 107.5 85.5 106.5" fill="none" marker-end="url(&quot;#FineArrowMark_454545&quot;)" stroke="#454545" stroke-dasharray="5" stroke-width="1" /></g><g class="Edge Realization" id="__Realization:b9f9a83c-fb02-44f7-9123-9d86326de5f1_37dfa5e6-a121-4ce9-8aa4-09a0c73dc2e9"><path class="Edge" d="M 306.5 108.5 161.5 108.5" fill="none" marker-end="url(&quot;#FineArrowMark_454545&quot;)" stroke="#454545" stroke-dasharray="5" stroke-width="1" /></g><g class="Edge Realization" id="__Realization:b9f9a83c-fb02-44f7-9123-9d86326de5f1_f8c9df04-fcd5-479d-814b-696fa6050231"><path class="Edge" d="M 306.5 108.5 244.5 108.5" fill="none" marker-end="url(&quot;#FineArrowMark_454545&quot;)" stroke="#454545" stroke-dasharray="5" stroke-width="1" /></g><g class="Edge Realization" id="__Realization:b9f9a83c-fb02-44f7-9123-9d86326de5f1_e1e48763-7479-4f3a-8134-c82bb6705d58"><path class="Edge" d="M 306.5 119.5 120.5 155.5" fill="none" marker-end="url(&quot;#FineArrowMark_454545&quot;)" stroke="#454545" stroke-dasharray="5" stroke-width="1" /></g><g class="Edge Realization" id="__Realization:b9f9a83c-fb02-44f7-9123-9d86326de5f1_8df45b70-15cc-4d3a-99e4-593516392c5a"><path class="Edge" d="M 306.5 125.5 219.5 150.5" fill="none" marker-end="url(&quot;#FineArrowMark_454545&quot;)" stroke="#454545" stroke-dasharray="5" stroke-width="1" /></g></svg>