<svg baseProfile="full" class="RealizationViewDiagram" font-family="'Open Sans','Segoe UI',Arial,sans-serif" font-size="10px" height="396" shape-rendering="geometricPrecision" version="1.1" viewBox="5 5 515 396" width="515" xmlns="http://www.w3.org/2000/svg" xmlns:ev="http://www.w3.org/2001/xml-events" xmlns:xlink="http://www.w3.org/1999/xlink"><defs><symbol id="OperationalActorSymbol" stroke="#000" stroke-width="2" viewBox="0 0 50 50"><radialGradient cx="25.8" cy="9.965" fx="25.8" fy="9.965" gradientUnits="userSpaceOnUse" id="gray" r="8.06"><stop offset="0" stop-color="#fff" /><stop offset="1" stop-color="#9aaab9" /></radialGradient><circle cx="25.8" cy="9.965" fill="url(#gray)" r="7.445" /><path d="m 25.643608,17.4341 0.276914,19.3657 -9.691951,8.97218 v 0 l 9.691951,-8.97218 9.207354,8.838931 -9.345812,-8.927765 -0.137836,-8.984648 9.209822,0.04899 -18.407914,0.04443" fill="none" /></symbol><linearGradient id="CustomGradient_F9F8F5_DDDDC8" x1="0" x2="0" y1="0" y2="1"><stop offset="0.0" stop-color="#F9F8F5" stop-opacity="1" /><stop offset="1.0" stop-color="#DDDDC8" stop-opacity="1" /></linearGradient><symbol id="OperationalActivitySymbol" viewBox="0 0 79 79"><linearGradient id="OA_orange" x1="0" x2="1" y1="0" y2="0"><stop offset="0.0" stop-color="#f4901d" stop-opacity="1" /><stop offset="1.0" stop-color="#fff" stop-opacity="1" /></linearGradient><ellipse cx="39.5" cy="39.5" fill="url(#OA_orange)" rx="26" ry="21" stroke="#000" stroke-width="2" /><text fill="#000" font-family="'Open Sans','Segoe UI',Arial,sans-serif" font-size="25px" font-weight="bold" stroke="none" text-anchor="middle" x="40" y="50">OA</text></symbol><symbol id="EntitySymbol" stroke="#000" stroke-width="2" viewBox="0 0 79 79"><path d="M18 237h46v43H18z" fill="#a5b9c8" transform="translate(0 -218)" /><path d="M12 247h11v8H12z" fill="#a5b9c8" transform="translate(0 -218)" /><path d="M12 261h11v8H12z" fill="#a5b9c8" transform="translate(0 -218)" /><path d="m 41.658466,55.581913 q 0,1.062616 -0.693953,1.734883 -0.672267,0.672267 -1.734883,0.672267 h -9.498483 q -1.062615,0 -1.734883,-0.672267 -0.672267,-0.672267 -0.672267,-1.734883 V 26.457569 q 0,-1.062615 0.672267,-1.734882 0.672268,-0.672267 1.734883,-0.672267 h 9.498483 q 1.062616,0 1.734883,0.672267 0.693953,0.672267 0.693953,1.734882 z M 38.644107,55.321681 V 26.717802 h -8.305751 v 28.603879 z" fill="#000" /><path d="M 58.248283,57.989063 H 47.101662 V 24.05042 h 11.016505 v 2.667382 H 50.11602 v 12.664644 h 5.091614 l 0.09145,2.616665 -5.183068,0.09409 v 13.228481 h 8.132263 z" fill="#000" /></symbol><symbol id="SystemComponentSymbol" viewBox="0 12 79 55"><g transform="matrix(0.25509703,0,0,0.25509703,-19.119473,-26.4767)"><g fill="#e3ebf8" stroke-width="1.33145" transform="matrix(0.92548165,0,0,0.92249056,-32.422011,-1.2909536)"><path d="m 160.03785,180.47519 h 280.8845 v 200.68502 h -280.8845 z" stroke="#000" stroke-width="7" /></g><path d="m 81.854696,210.17533 h 66.250264 v 35.37025 H 81.854696 Z" fill="#e7efff" stroke="#000" stroke-width="7" /><path d="m 83.588316,268.94271 h 66.250254 v 35.37024 H 83.588316 Z" fill="#e7efff" stroke="#000" stroke-width="7" /><rect fill="#000" height="5" stroke="#000" stroke-width="54.1038" width="5" x="214.8075" y="236.39" /><rect fill="#000" height="5" stroke="#000" stroke-width="54.1038" width="5" x="297.44" y="298.36" /><rect fill="#000" height="5" stroke="#000" stroke-width="54.1038" width="5" x="297.44" y="215.73" /><path d="m 219.70896,218.22099 h 79.0257 v 85.9132 h -80.34135 z" fill="none" stroke="#000" stroke-width="4.29901px" /></g></symbol><linearGradient id="CustomGradient_C3E6FF_96B1DA" x1="0" x2="0" y1="0" y2="1"><stop offset="0.0" stop-color="#C3E6FF" stop-opacity="1" /><stop offset="1.0" stop-color="#96B1DA" stop-opacity="1" /></linearGradient><symbol id="SystemFunctionSymbol" viewBox="0 0 79 79"><linearGradient id="SF_green" x1="0" x2="1" y1="0" y2="0"><stop offset="0.0" stop-color="#6CB35B" stop-opacity="1" /><stop offset="1.0" stop-color="#ffffff" stop-opacity="1" /></linearGradient><ellipse cx="39.5" cy="39.5" fill="url(#SF_green)" rx="26" ry="21" stroke="#000" stroke-width="2" /><text fill="#000" font-family="'Open Sans','Segoe UI',Arial,sans-serif" font-size="25px" font-weight="bold" stroke="none" text-anchor="middle" x="40" y="50">SF</text></symbol><linearGradient id="CustomGradient_F4FFE0_C5FFA6" x1="0" x2="0" y1="0" y2="1"><stop offset="0.0" stop-color="#F4FFE0" stop-opacity="1" /><stop offset="1.0" stop-color="#C5FFA6" stop-opacity="1" /></linearGradient><symbol id="LogicalHumanActorSymbol" stroke="#000" stroke-width="2" viewBox="0 0 79 79"><use transform="matrix(0.81762456,0,0,0.81762456,-2.5207584,0.47091696)" xlink:href="#StickFigureSymbol" /></symbol><symbol id="StickFigureSymbol" stroke="#000" stroke-width="2" viewBox="362.861 210.892 75 75"><g stroke="#000" stroke-width="2.4944" transform="matrix(1.0611338,0,0,1.0611338,-24.47665,-12.241673)"><line fill="none" x1="400.362" x2="400.362" y1="232.586" y2="257.534" /><line fill="none" x1="400.83401" x2="388.423" y1="254.299" y2="275.009" /><line fill="none" x1="400.25201" x2="413.97" y1="254.46001" y2="274.987" /><line fill="none" x1="385.634" x2="415.703" y1="244.569" y2="244.49699" /><ellipse cx="400.53201" cy="223.35899" fill="none" rx="9.2180004" ry="8.5080004" /></g></symbol><symbol id="LogicalFunctionSymbol" viewBox="0 0 79 79"><linearGradient id="LF_green" x1="0" x2="1" y1="0" y2="0"><stop offset="0.0" stop-color="#6CB35B" stop-opacity="1" /><stop offset="1.0" stop-color="#ffffff" stop-opacity="1" /></linearGradient><ellipse cx="39.5" cy="39.5" fill="url(#LF_green)" rx="26" ry="21" stroke="#000" stroke-width="2" /><text fill="#000" font-family="'Open Sans','Segoe UI',Arial,sans-serif" font-size="25px" font-weight="bold" stroke="none" text-anchor="middle" x="40" y="50">LF</text></symbol><symbol id="PhysicalBehaviorComponentSymbol" stroke="#000" stroke-width="2" viewBox="0 0 79 79"><path d="M18 237h46v43H18z" fill="#a5bde7" transform="translate(0 -218)" /><path d="M12 247h11v8H12z" fill="#a5bde7" transform="translate(0 -218)" /><path d="M12 261h11v8H12z" fill="#a5bde7" transform="translate(0 -218)" /><path d="m 57.589299,33.276194 c 0,1.410473 -0.249326,2.72122 -0.747979,3.93224 -0.484407,1.19676 -1.168275,2.236807 -2.051603,3.12014 -1.097038,1.097033 -2.393538,1.923373 -3.889499,2.47902 -1.495959,0.541393 -3.383718,0.81209 -5.663277,0.81209 h -4.231429 v 11.86083 h -4.23143 v -31.82122 h 8.633826 c 1.909129,0 3.526191,0.163843 4.851185,0.49153 1.324993,0.31344 2.500391,0.812097 3.526192,1.49597 1.211016,0.812087 2.14421,1.82364 2.799583,3.03466 0.669621,1.211013 1.004431,2.742593 1.004431,4.59474 z m -4.402396,0.10687 c 0,-1.09704 -0.192339,-2.051607 -0.577016,-2.8637 -0.384675,-0.812093 -0.968811,-1.47459 -1.752408,-1.98749 -0.683868,-0.441667 -1.467467,-0.755107 -2.350798,-0.94032 -0.869079,-0.19946 -1.97324,-0.29919 -3.312483,-0.29919 h -4.188686 v 12.71566 h 3.568931 c 1.709669,0 3.098776,-0.149593 4.167321,-0.44878 1.068543,-0.31344 1.937623,-0.80497 2.607242,-1.47459 0.669621,-0.683867 1.139781,-1.403353 1.410478,-2.15846 0.284946,-0.7551 0.427419,-1.60281 0.427419,-2.54313 z" fill="#000" stroke-width="0.1" /></symbol><symbol id="PhysicalFunctionSymbol" viewBox="0 0 79 79"><linearGradient id="PF_green" x1="0" x2="1" y1="0" y2="0"><stop offset="0.0" stop-color="#6CB35B" stop-opacity="1" /><stop offset="1.0" stop-color="#ffffff" stop-opacity="1" /></linearGradient><ellipse cx="39.5" cy="39.5" fill="url(#PF_green)" rx="26" ry="21" stroke="#000" stroke-width="2" /><text fill="#000" font-family="'Open Sans','Segoe UI',Arial,sans-serif" font-size="25px" font-weight="bold" stroke="none" text-anchor="middle" x="40" y="50">PF</text></symbol><marker id="FineArrowMark_454545" markerHeight="7.5" markerUnits="userSpaceOnUse" markerWidth="7.5" orient="auto" refX="7" refY="3.75"><path d="M 0.4535,0.107 7.309,3.621 0.492,7.407 0.144,7.407 6.414,3.63 0.136,0.479 Z" stroke="#454545" stroke-width="1" /></marker></defs><rect fill="#fff" height="396" stroke="none" width="515" x="5" y="5" /><g class="Box OperationalAnalysis" id="ddbef16d-ddb9-4162-934c-f1e40e6f8bed"><rect class="OperationalAnalysis" fill="none" height="233" rx="5" ry="5" stroke="grey" stroke-width="1" width="361" x="15.5" y="15.5" /><text class="OperationalAnalysis" dominant-baseline="middle" fill="grey" text-anchor="middle" transform="rotate(-90, 195.525, 131.64285714285714)" x="211" y="147"><tspan x="195.525" xml:space="preserve" y="-38.88214285714287">Operational</tspan></text></g><g class="Box OperationalActor" id="a8c42033-fdf2-458f-bae9-1cfd1207c49f"><rect class="OperationalActor" fill="url(&quot;#CustomGradient_F9F8F5_DDDDC8&quot;)" height="203" stroke="#454545" stroke-width="1" width="158" x="30.5" y="30.5" /><text class="OperationalActor" dominant-baseline="middle" fill="#000000" text-anchor="middle" x="29" y="35"><tspan x="119.5" xml:space="preserve" y="45.85714285714286">Functional Human Being</tspan></text><use height="20" width="20" x="42.99999999999999" xlink:href="#OperationalActorSymbol" y="35.85714285714286" /></g><g class="Box OperationalActivity" id="ab016025-d456-4c2d-8359-d50cf9de3825"><rect class="OperationalActivity" fill="#F7DA74" height="42" rx="10px" ry="10px" stroke="#5B4040" stroke-width="1" width="63" x="113.5" y="65.5" /><text class="OperationalActivity" dominant-baseline="middle" fill="#5B4040" text-anchor="middle" x="116" y="77"><tspan x="155.0" xml:space="preserve" y="87.85714285714286">Sleep</tspan></text><use height="20" width="20" x="123.5" xlink:href="#OperationalActivitySymbol" y="77.85714285714286" /></g><g class="Box OperationalActivity" id="8bcb11e6-443b-4b92-bec2-ff1d87a224e7"><rect class="OperationalActivity" fill="#F7DA74" height="37" rx="10px" ry="10px" stroke="#5B4040" stroke-width="1" width="51" x="42.5" y="65.5" /><text class="OperationalActivity" dominant-baseline="middle" fill="#5B4040" text-anchor="middle" x="45" y="77"><tspan x="78.0" xml:space="preserve" y="85.71428571428572">Eat</tspan></text><use height="20" width="20" x="51.5" xlink:href="#OperationalActivitySymbol" y="75.71428571428572" /></g><g class="Box OperationalActivity" id="0e0164c3-076e-42c1-8f82-7a43ab84385c"><rect class="OperationalActivity" fill="#F7DA74" height="37" rx="10px" ry="10px" stroke="#5B4040" stroke-width="1" width="93" x="42.5" y="126.5" /><text class="OperationalActivity" dominant-baseline="middle" fill="#5B4040" text-anchor="middle" x="45" y="138"><tspan x="99.0" xml:space="preserve" y="146.71428571428572">Make Food</tspan></text><use height="20" width="20" x="54.5" xlink:href="#OperationalActivitySymbol" y="136.71428571428572" /></g><g class="Box OperationalActivity" id="a5ba1fbc-59a3-4684-9043-3d5cd3dec5fe"><rect class="OperationalActivity" fill="#F7DA74" height="37" rx="10px" ry="10px" stroke="#5B4040" stroke-width="1" width="125" x="42.5" y="184.5" /><text class="OperationalActivity" dominant-baseline="middle" fill="#5B4040" text-anchor="middle" x="45" y="196"><tspan x="115.0" xml:space="preserve" y="204.71428571428572">Hunt wild animal</tspan></text><use height="20" width="20" x="56.5" xlink:href="#OperationalActivitySymbol" y="194.71428571428572" /></g><g class="Box Entity" id="e37510b9-3166-4f80-a919-dfaac9b696c7"><rect class="Entity" fill="url(&quot;#CustomGradient_F9F8F5_DDDDC8&quot;)" height="84" stroke="#454545" stroke-width="1" width="158" x="203.5" y="30.5" /><text class="Entity" dominant-baseline="middle" fill="#000000" text-anchor="middle" x="233" y="35"><tspan x="292.5" xml:space="preserve" y="43.714285714285715">Environment</tspan></text><use height="20" width="20" x="243.0" xlink:href="#EntitySymbol" y="33.714285714285715" /></g><g class="Box OperationalActivity" id="a0159943-264f-4a97-a245-565fb6bf9db4"><rect class="OperationalActivity" fill="#F7DA74" height="42" rx="10px" ry="10px" stroke="#5B4040" stroke-width="1" width="134" x="215.5" y="60.5" /><text class="OperationalActivity" dominant-baseline="middle" fill="#5B4040" text-anchor="middle" x="218" y="72"><tspan x="292.5" xml:space="preserve" y="82.85714285714286">Spawn wild animal</tspan></text><use height="20" width="20" x="230.0" xlink:href="#OperationalActivitySymbol" y="72.85714285714286" /></g><g class="Box SystemAnalysis" id="79d35fe7-f172-4405-b499-48aef545148a"><rect class="SystemAnalysis" fill="none" height="118" rx="5" ry="5" stroke="grey" stroke-width="1" width="142" x="15.5" y="263.5" /><text class="SystemAnalysis" dominant-baseline="middle" fill="grey" text-anchor="middle" transform="rotate(-90, 86.025, 322.5)" x="101" y="586"><tspan x="86.025" xml:space="preserve" y="261.475">System</tspan></text></g><g class="Box SystemComponent" id="230c4621-7e0a-4d0a-9db2-d4ba5e97b3df"><rect class="SystemComponent" fill="url(&quot;#CustomGradient_C3E6FF_96B1DA&quot;)" height="88" stroke="#4A4A97" stroke-width="1" width="112" x="30.5" y="278.5" /><text class="SystemComponent" dominant-baseline="middle" fill="#000000" text-anchor="middle" x="52" y="283"><tspan x="96.0" xml:space="preserve" y="293.85714285714283">System</tspan></text><use height="20" width="20" x="60.0" xlink:href="#SystemComponentSymbol" y="283.85714285714283" /></g><g class="Box SystemFunction" id="00e7b925-cf4c-4cb0-929e-5409a1cd872b"><rect class="SystemFunction" fill="url(&quot;#CustomGradient_F4FFE0_C5FFA6&quot;)" height="42" rx="10px" ry="10px" stroke="#4D8914" stroke-width="1" width="88" x="42.5" y="313.5" /><text class="SystemFunction" dominant-baseline="middle" fill="#000000" text-anchor="middle" x="45" y="325"><tspan x="96.5" xml:space="preserve" y="333.85714285714283">Sysexfunc</tspan></text><use height="20" width="20" x="54.0" xlink:href="#SystemFunctionSymbol" y="323.85714285714283" /></g><g class="Box LogicalArchitecture" id="853cb005-cba0-489b-8fe3-bb694ad4543b"><rect class="LogicalArchitecture" fill="none" height="128" rx="5" ry="5" stroke="grey" stroke-width="1" width="156" x="172.5" y="263.5" /><text class="LogicalArchitecture" dominant-baseline="middle" fill="grey" text-anchor="middle" transform="rotate(-90, 249.97500000000002, 327.07142857142856)" x="422" y="590"><tspan x="249.97500000000002" xml:space="preserve" y="259.14642857142854">Logical</tspan></text></g><g class="Box LogicalHumanActor" id="08e02248-504d-4ed8-a295-c7682a614f66"><rect class="LogicalHumanActor" fill="url(&quot;#CustomGradient_C3E6FF_96B1DA&quot;)" height="98" stroke="#4A4A97" stroke-width="1" width="126" x="187.5" y="278.5" /><text class="LogicalHumanActor" dominant-baseline="middle" fill="#4A4A97" text-anchor="middle" x="195" y="283"><tspan x="260.5" xml:space="preserve" y="291.7142857142857">Prof. A. P. W. B.</tspan><tspan x="260.5" xml:space="preserve" y="303.14285714285717">Dumbledore</tspan></text><use height="20" width="20" x="206.0" xlink:href="#LogicalHumanActorSymbol" y="285.87012987012986" /></g><g class="Box LogicalFunction" id="beaf5ba4-8fa9-4342-911f-0266bb29be45"><rect class="LogicalFunction" fill="url(&quot;#CustomGradient_F4FFE0_C5FFA6&quot;)" height="42" rx="10px" ry="10px" stroke="#4D8914" stroke-width="4" width="102" x="199.5" y="322.5" /><text class="LogicalFunction" dominant-baseline="middle" fill="#000000" text-anchor="middle" x="202" y="334"><tspan x="260.5" xml:space="preserve" y="342.85714285714283">advise Harry</tspan></text><use height="20" width="20" x="212.0" xlink:href="#LogicalFunctionSymbol" y="332.85714285714283" /></g><g class="Box PhysicalArchitecture" id="26e187b6-72e7-4872-8d8d-70b96243c96c"><rect class="PhysicalArchitecture" fill="none" height="118" rx="5" ry="5" stroke="grey" stroke-width="1" width="167" x="343.5" y="263.5" /><text class="PhysicalArchitecture" dominant-baseline="middle" fill="grey" text-anchor="middle" transform="rotate(-90, 426.575, 322.5)" x="769" y="586"><tspan x="426.575" xml:space="preserve" y="248.825">Physical</tspan></text></g><g class="Box PhysicalBehaviorComponent" id="ca5af12c-5259-4844-aaac-9ca9f84aa90b"><rect class="PhysicalBehaviorComponent" fill="url(&quot;#CustomGradient_C3E6FF_96B1DA&quot;)" height="88" rx="10px" ry="10px" stroke="#4A4A97" stroke-width="1" width="137" x="358.5" y="278.5" /><text class="PhysicalBehaviorComponent" dominant-baseline="middle" fill="#000000" font-style="italic" text-anchor="middle" x="383" y="283"><tspan x="437.0" xml:space="preserve" y="293.85714285714283">App 2 SWC</tspan></text><use height="20" width="20" x="392.5" xlink:href="#PhysicalBehaviorComponentSymbol" y="283.85714285714283" /></g><g class="Box PhysicalFunction" id="da53c21f-4fb8-4da7-8d58-12d7a600bfa6"><rect class="PhysicalFunction" fill="#C5FFA6" height="42" stroke="#095C2E" stroke-width="1" width="113" x="370.5" y="313.5" /><text class="PhysicalFunction" dominant-baseline="middle" text-anchor="middle" x="373" y="325"><tspan x="437.0" xml:space="preserve" y="333.85714285714283">Apping around</tspan></text><use height="20" width="20" x="383.5" xlink:href="#PhysicalFunctionSymbol" y="323.85714285714283" /></g><g class="Edge Realization" id="__Realization:00e7b925-cf4c-4cb0-929e-5409a1cd872b_ab016025-d456-4c2d-8359-d50cf9de3825"><path class="Edge" d="M 91.5 313.5 140.5 106.5" fill="none" marker-end="url(&quot;#FineArrowMark_454545&quot;)" stroke="#454545" stroke-dasharray="5" stroke-width="1" /></g><g class="Edge Realization" id="__Realization:00e7b925-cf4c-4cb0-929e-5409a1cd872b_8bcb11e6-443b-4b92-bec2-ff1d87a224e7"><path class="Edge" d="M 84.5 313.5 69.5 102.5" fill="none" marker-end="url(&quot;#FineArrowMark_454545&quot;)" stroke="#454545" stroke-dasharray="5" stroke-width="1" /></g><g class="Edge Realization" id="__Realization:00e7b925-cf4c-4cb0-929e-5409a1cd872b_a0159943-264f-4a97-a245-565fb6bf9db4"><path class="Edge" d="M 102.5 313.5 266.5 102.5" fill="none" marker-end="url(&quot;#FineArrowMark_454545&quot;)" stroke="#454545" stroke-dasharray="5" stroke-width="1" /></g><g class="Edge Realization" id="__Realization:00e7b925-cf4c-4cb0-929e-5409a1cd872b_0e0164c3-076e-42c1-8f82-7a43ab84385c"><path class="Edge" d="M 86.5 313.5 88.5 164.5" fill="none" marker-end="url(&quot;#FineArrowMark_454545&quot;)" stroke="#454545" stroke-dasharray="5" stroke-width="1" /></g><g class="Edge Realization" id="__Realization:00e7b925-cf4c-4cb0-929e-5409a1cd872b_a5ba1fbc-59a3-4684-9043-3d5cd3dec5fe"><path class="Edge" d="M 89.5 313.5 102.5 221.5" fill="none" marker-end="url(&quot;#FineArrowMark_454545&quot;)" stroke="#454545" stroke-dasharray="5" stroke-width="1" /></g><g class="Edge Realization" id="__Realization:beaf5ba4-8fa9-4342-911f-0266bb29be45_00e7b925-cf4c-4cb0-929e-5409a1cd872b"><path class="Edge" d="M 199.5 340.5 130.5 336.5" fill="none" marker-end="url(&quot;#FineArrowMark_454545&quot;)" stroke="#454545" stroke-dasharray="5" stroke-width="1" /></g><g class="Edge Realization" id="__Realization:da53c21f-4fb8-4da7-8d58-12d7a600bfa6_beaf5ba4-8fa9-4342-911f-0266bb29be45"><path class="Edge" d="M 370.5 337.5 301.5 340.5" fill="none" marker-end="url(&quot;#FineArrowMark_454545&quot;)" stroke="#454545" stroke-dasharray="5" stroke-width="1" /></g></svg>