<svg baseProfile="full" class="ClassDiagramBlank" font-family="'Open Sans','Segoe UI',Arial,sans-serif" font-size="10px" height="521" shape-rendering="geometricPrecision" version="1.1" viewBox="2 2 582 521" width="582" xmlns="http://www.w3.org/2000/svg" xmlns:ev="http://www.w3.org/2001/xml-events" xmlns:xlink="http://www.w3.org/1999/xlink"><defs><symbol id="ClassSymbol" viewBox="0 0 25 25"><linearGradient id="ClassSymbol-gradient" x1="0" x2="0" y1="0" y2="1"><stop offset="0.0" stop-color="#cfa6a5" stop-opacity="1" /><stop offset="1.0" stop-color="#f1e2e3" stop-opacity="1" /></linearGradient><g stroke="#913734"><rect fill="#eedcdd" height="3" width="15" x="5" y="17" /><rect fill="#eedcdd" height="3" width="15" x="5" y="14" /><rect fill="url(#ClassSymbol-gradient)" height="10" width="15" x="5" y="4" /></g></symbol><symbol id="ClassFeatureSymbol" viewBox="0 0 27 21"><linearGradient id="ClassFeatureSymbol-gradient" x1="0" x2="0" y1="0" y2="1"><stop offset="0.0" stop-color="#cfa6a5" stop-opacity="1" /><stop offset="1.0" stop-color="#f1e2e3" stop-opacity="1" /></linearGradient><g><rect fill="#913734" height="11.5" width="17" x="7" y="4" /><rect fill="url(#ClassFeatureSymbol-gradient)" height="9.5" width="17" x="7" y="5" /><circle cx="20.7" cy="12.1" fill="#f1e2e3" r="4.1" stroke="#913734" stroke-width="1" /></g></symbol><linearGradient id="CustomGradient_FFFFFF_E8E0D2" x1="0" x2="0" y1="0" y2="1"><stop offset="0.0" stop-color="#FFFFFF" stop-opacity="1" /><stop offset="1.0" stop-color="#E8E0D2" stop-opacity="1" /></linearGradient><marker id="FineArrowMark_000000" markerHeight="7.5" markerUnits="userSpaceOnUse" markerWidth="7.5" orient="auto" refX="7" refY="3.75"><path d="M 0.4535,0.107 7.309,3.621 0.492,7.407 0.144,7.407 6.414,3.63 0.136,0.479 Z" stroke="#000000" stroke-width="1" /></marker><marker id="DiamondMark_000000" markerHeight="6" markerUnits="userSpaceOnUse" markerWidth="11" orient="auto" refX="0" refY="3"><path d="M 0,3 5,0.5 10,3 5,5.5 Z" fill="#fff" stroke="#000000" stroke-width="1" /></marker><marker id="FilledDiamondMark_000000" markerHeight="6" markerUnits="userSpaceOnUse" markerWidth="11" orient="auto" refX="0" refY="3"><path d="M 0,3 5,0.5 10,3 5,5.5 Z" fill="#000" stroke="#000000" stroke-width="1" /></marker><marker id="GeneralizationMark_000000" markerHeight="7.5" markerUnits="userSpaceOnUse" markerWidth="7.5" orient="auto" refX="7" refY="4"><path d="M 0.1275,7.5 7.5,3.75 0,0 Z" fill="#fff" stroke="#000000" stroke-width="1" /></marker><symbol id="EnumerationSymbol" viewBox="0 0 25 20"><linearGradient id="EnumerationSymbol-gradient" x1="0" x2="0" y1="0" y2="1"><stop offset="0.0" stop-color="#cfa6a5" stop-opacity="1" /><stop offset="1.0" stop-color="#f1e2e3" stop-opacity="1" /></linearGradient><g stroke="#913734"><rect fill="#eedcdd" height="3.5" width="15" x="5" y="13" /><rect fill="url(#EnumerationSymbol-gradient)" height="9" width="15" x="5" y="4" /></g><g stroke="#000" stroke-width="1.5" transform="scale(0.3,0.3) translate(20, 16)"><path d="M 4.25 17.4 L 0 17.6 L 0 15.6 L 3.375 15.475 L 3.375 2.65 L 0.25 2.875 L 0.25 1 L 5.625 0 L 5.625 15.475 L 8.5 15.6 L 8.5 17.6 L 4.25 17.4 Z" /><path d="M 13.375 15.5 L 24.625 15.5 L 24.625 17.5 L 11.125 17.5 L 11.125 8.7 L 22.375 7.45 L 22.375 2 L 11.375 2 L 11.375 0 L 22.625 0 L 24.625 2 L 24.625 9.125 L 13.375 10.375 L 13.375 15.5 Z" transform="translate(1, 3)" /><path d="M 40.375 15.5 L 38.375 17.5 L 26.875 17.5 L 26.875 15.5 L 38.125 15.5 L 38.125 9.5 L 28.375 9.5 L 28.375 7.5 L 37.625 7.5 L 37.625 2 L 27.125 2 L 27.125 0 L 37.875 0 L 39.875 2 L 39.875 7.275 L 38.45 8.35 L 40.375 9.85 L 40.375 15.5 Z" transform="translate(3, 6)" /></g></symbol><symbol id="EnumerationFeatureSymbol" viewBox="0 0 27 21"><linearGradient id="EnumerationFeatureSymbol-gradient" x1="0" x2="0" y1="0" y2="1"><stop offset="0.0" stop-color="#cfa6a5" stop-opacity="1" /><stop offset="1.0" stop-color="#f1e2e3" stop-opacity="1" /></linearGradient><g><rect fill="#913734" height="11.5" width="17" x="7" y="4" /><rect fill="url(#EnumerationFeatureSymbol-gradient)" height="9.5" width="17" x="7" y="5" /></g><g stroke="#000" stroke-width="1.5" transform="scale(0.4,0.4) translate(24, 15.5)"><path d="M 12.25 17.5 L 0 17.5 L 0 0 L 12 0 L 12 2 L 2.25 2 L 2.25 7.5 L 10.75 7.5 L 10.75 9.5 L 2.25 9.5 L 2.25 15.5 L 12.25 15.5 L 12.25 17.5 Z" /><path d="M 27.25 17.5 L 14.5 17.5 L 14.5 0 L 16.75 0 L 16.75 15.5 L 27.25 15.5 Z" transform="translate(2, 0)" /></g></symbol></defs><rect fill="#fff" height="521" stroke="none" width="582" x="2" y="2" /><g class="Box Class context-0093ffdd-ab4d-4c87-971d-0c2fc1a0b094 context-11d42718-70a0-455b-af59-dbf87d50a885 context-1dccccde-6ab1-47ac-8ee8-a3033a49a9e5 context-1de298dd-ccef-4505-9a5e-1aa792f2eb19 context-23211949-9b66-4033-93f9-a40bf103d519 context-322dc599-ea72-49e9-8e37-fe5226e41f19 context-37ae6942-cbbc-4e2a-acad-10fbdceb8d56 context-58b887af-7fe4-4b52-b877-268ea5ca9417 context-a8828afb-fa24-44a8-942e-2665dbcf9405 context-b7c7f442-377f-492c-90bf-331e66988bda" id="b7c7f442-377f-492c-90bf-331e66988bda"><rect class="Class" fill="url(&quot;#CustomGradient_FFFFFF_E8E0D2&quot;)" height="177" rx="10px" ry="10px" stroke="#7B694F" stroke-width="4" width="229" x="35.5" y="12.5" /><text class="Class" dominant-baseline="middle" fill="#000000" text-anchor="middle" x="123" y="17"><tspan x="160.0" xml:space="preserve" y="23.714285714285715">Root</tspan></text><use height="20" width="20" x="130.0" xlink:href="#ClassSymbol" y="13.714285714285715" /><line stroke="#7B694F" x1="35.5" x2="264.5" y1="33.92857142857143" y2="33.92857142857143" /><text class="Features" dominant-baseline="middle" fill="#000000" text-anchor="start" x="47.5" y="33.92857142857143"><tspan x="58.0" xml:space="preserve" y="46.78571428571429">[1..*] example: Example</tspan></text><use height="20" width="20" x="37.0" xlink:href="#ClassFeatureSymbol" y="36.78571428571429" /><text class="Features" dominant-baseline="middle" fill="#000000" text-anchor="start" x="47.5" y="49.642857142857146"><tspan x="58.0" xml:space="preserve" y="62.5">[0..1] enum_example: EnumExample</tspan></text><use height="20" width="20" x="37.0" xlink:href="#ClassFeatureSymbol" y="52.5" /><text class="Features" dominant-baseline="middle" fill="#000000" text-anchor="start" x="47.5" y="65.35714285714286"><tspan x="58.0" xml:space="preserve" y="78.21428571428572">another: EnumExample_1</tspan></text><use height="20" width="20" x="37.0" xlink:href="#ClassFeatureSymbol" y="68.21428571428572" /><text class="Features" dominant-baseline="middle" fill="#000000" text-anchor="start" x="47.5" y="81.07142857142858"><tspan x="58.0" xml:space="preserve" y="93.92857142857144">another_one: EnumExample_2</tspan></text><use height="20" width="20" x="37.0" xlink:href="#ClassFeatureSymbol" y="83.92857142857144" /><text class="Features" dominant-baseline="middle" fill="#000000" text-anchor="start" x="47.5" y="96.7857142857143"><tspan x="58.0" xml:space="preserve" y="109.64285714285717">another_one_one: EnumExample_3</tspan></text><use height="20" width="20" x="37.0" xlink:href="#ClassFeatureSymbol" y="99.64285714285717" /><text class="Features" dominant-baseline="middle" fill="#000000" text-anchor="start" x="47.5" y="112.50000000000003"><tspan x="58.0" xml:space="preserve" y="125.35714285714289">last_one: EnumExample_4</tspan></text><use height="20" width="20" x="37.0" xlink:href="#ClassFeatureSymbol" y="115.35714285714289" /><text class="Features" dominant-baseline="middle" fill="#000000" text-anchor="start" x="47.5" y="128.21428571428575"><tspan x="58.0" xml:space="preserve" y="141.0714285714286">primitiveExample: Primitive</tspan></text><use height="20" width="20" x="37.0" xlink:href="#ClassFeatureSymbol" y="131.0714285714286" /></g><g class="Box Class context-0093ffdd-ab4d-4c87-971d-0c2fc1a0b094 context-11d42718-70a0-455b-af59-dbf87d50a885 context-1dccccde-6ab1-47ac-8ee8-a3033a49a9e5 context-1de298dd-ccef-4505-9a5e-1aa792f2eb19 context-23211949-9b66-4033-93f9-a40bf103d519 context-322dc599-ea72-49e9-8e37-fe5226e41f19 context-37ae6942-cbbc-4e2a-acad-10fbdceb8d56 context-58b887af-7fe4-4b52-b877-268ea5ca9417 context-a8828afb-fa24-44a8-942e-2665dbcf9405 context-b7c7f442-377f-492c-90bf-331e66988bda" id="0093ffdd-ab4d-4c87-971d-0c2fc1a0b094"><rect class="Class" fill="url(&quot;#CustomGradient_FFFFFF_E8E0D2&quot;)" height="39" rx="10px" ry="10px" stroke="#7B694F" stroke-width="1" width="57" x="64.5" y="246.5" /><text class="Class" dominant-baseline="middle" fill="#000000" text-anchor="middle" x="67" y="251"><tspan x="103.0" xml:space="preserve" y="257.7142857142857">One</tspan></text><use height="20" width="20" x="74.0" xlink:href="#ClassSymbol" y="247.71428571428572" /><line stroke="#7B694F" x1="64.5" x2="121.5" y1="267.92857142857144" y2="267.92857142857144" /></g><g class="Box Class context-0093ffdd-ab4d-4c87-971d-0c2fc1a0b094 context-11d42718-70a0-455b-af59-dbf87d50a885 context-1dccccde-6ab1-47ac-8ee8-a3033a49a9e5 context-1de298dd-ccef-4505-9a5e-1aa792f2eb19 context-23211949-9b66-4033-93f9-a40bf103d519 context-322dc599-ea72-49e9-8e37-fe5226e41f19 context-37ae6942-cbbc-4e2a-acad-10fbdceb8d56 context-58b887af-7fe4-4b52-b877-268ea5ca9417 context-a8828afb-fa24-44a8-942e-2665dbcf9405 context-b7c7f442-377f-492c-90bf-331e66988bda" id="1dccccde-6ab1-47ac-8ee8-a3033a49a9e5"><rect class="Class" fill="url(&quot;#CustomGradient_FFFFFF_E8E0D2&quot;)" height="39" rx="10px" ry="10px" stroke="#7B694F" stroke-width="1" width="56" x="181.5" y="246.5" /><text class="Class" dominant-baseline="middle" fill="#000000" text-anchor="middle" x="184" y="251"><tspan x="219.5" xml:space="preserve" y="257.7142857142857">Two</tspan></text><use height="20" width="20" x="191.0" xlink:href="#ClassSymbol" y="247.71428571428572" /><line stroke="#7B694F" x1="181.5" x2="237.5" y1="267.92857142857144" y2="267.92857142857144" /></g><g class="Box Class context-0093ffdd-ab4d-4c87-971d-0c2fc1a0b094 context-11d42718-70a0-455b-af59-dbf87d50a885 context-1dccccde-6ab1-47ac-8ee8-a3033a49a9e5 context-1de298dd-ccef-4505-9a5e-1aa792f2eb19 context-23211949-9b66-4033-93f9-a40bf103d519 context-322dc599-ea72-49e9-8e37-fe5226e41f19 context-37ae6942-cbbc-4e2a-acad-10fbdceb8d56 context-58b887af-7fe4-4b52-b877-268ea5ca9417 context-a8828afb-fa24-44a8-942e-2665dbcf9405 context-b7c7f442-377f-492c-90bf-331e66988bda" id="322dc599-ea72-49e9-8e37-fe5226e41f19"><rect class="Class" fill="url(&quot;#CustomGradient_FFFFFF_E8E0D2&quot;)" height="59" rx="10px" ry="10px" stroke="#7B694F" stroke-width="1" width="181" x="88.5" y="342.5" /><text class="Class" dominant-baseline="middle" fill="#000000" text-anchor="middle" x="149" y="347"><tspan x="189.0" xml:space="preserve" y="353.7142857142857">Three</tspan></text><use height="20" width="20" x="156.5" xlink:href="#ClassSymbol" y="343.7142857142857" /><line stroke="#7B694F" x1="88.5" x2="269.5" y1="363.92857142857144" y2="363.92857142857144" /><text class="Features" dominant-baseline="middle" fill="#000000" text-anchor="start" x="100.5" y="363.92857142857144"><tspan x="111.0" xml:space="preserve" y="376.7857142857143">primitiveExample: Primitive</tspan></text><use height="20" width="20" x="90.0" xlink:href="#ClassFeatureSymbol" y="366.7857142857143" /></g><g class="Box Class context-0093ffdd-ab4d-4c87-971d-0c2fc1a0b094 context-11d42718-70a0-455b-af59-dbf87d50a885 context-1dccccde-6ab1-47ac-8ee8-a3033a49a9e5 context-1de298dd-ccef-4505-9a5e-1aa792f2eb19 context-23211949-9b66-4033-93f9-a40bf103d519 context-322dc599-ea72-49e9-8e37-fe5226e41f19 context-37ae6942-cbbc-4e2a-acad-10fbdceb8d56 context-58b887af-7fe4-4b52-b877-268ea5ca9417 context-a8828afb-fa24-44a8-942e-2665dbcf9405 context-b7c7f442-377f-492c-90bf-331e66988bda" id="37ae6942-cbbc-4e2a-acad-10fbdceb8d56"><rect class="Class" fill="url(&quot;#CustomGradient_FFFFFF_E8E0D2&quot;)" height="59" rx="10px" ry="10px" stroke="#7B694F" stroke-width="1" width="135" x="111.5" y="454.5" /><text class="Class" dominant-baseline="middle" fill="#000000" text-anchor="middle" x="155" y="459"><tspan x="189.5" xml:space="preserve" y="465.7142857142857">five</tspan></text><use height="20" width="20" x="162.0" xlink:href="#ClassSymbol" y="455.7142857142857" /><line stroke="#7B694F" x1="111.5" x2="246.5" y1="475.92857142857144" y2="475.92857142857144" /><text class="Features" dominant-baseline="middle" fill="#000000" text-anchor="start" x="123.5" y="475.92857142857144"><tspan x="134.0" xml:space="preserve" y="488.7857142857143">fi: EnumExample_5</tspan></text><use height="20" width="20" x="113.0" xlink:href="#ClassFeatureSymbol" y="478.7857142857143" /></g><g class="Edge Association context-0093ffdd-ab4d-4c87-971d-0c2fc1a0b094 context-11d42718-70a0-455b-af59-dbf87d50a885 context-1dccccde-6ab1-47ac-8ee8-a3033a49a9e5 context-1de298dd-ccef-4505-9a5e-1aa792f2eb19 context-23211949-9b66-4033-93f9-a40bf103d519 context-322dc599-ea72-49e9-8e37-fe5226e41f19 context-37ae6942-cbbc-4e2a-acad-10fbdceb8d56 context-58b887af-7fe4-4b52-b877-268ea5ca9417 context-a8828afb-fa24-44a8-942e-2665dbcf9405 context-b7c7f442-377f-492c-90bf-331e66988bda" id="11d42718-70a0-455b-af59-dbf87d50a885"><path class="Edge" d="M 93.5 189.5 93.5 210.5 93.5 246.5" fill="none" marker-end="url(&quot;#FineArrowMark_000000&quot;)" stroke="#000000" stroke-width="1" /><text class="Annotation" dominant-baseline="middle" text-anchor="middle" x="12" y="210"><tspan x="51.5" xml:space="preserve" y="220.14285714285714">[1..*] one</tspan></text></g><g class="Edge Aggregation context-0093ffdd-ab4d-4c87-971d-0c2fc1a0b094 context-11d42718-70a0-455b-af59-dbf87d50a885 context-1dccccde-6ab1-47ac-8ee8-a3033a49a9e5 context-1de298dd-ccef-4505-9a5e-1aa792f2eb19 context-23211949-9b66-4033-93f9-a40bf103d519 context-322dc599-ea72-49e9-8e37-fe5226e41f19 context-37ae6942-cbbc-4e2a-acad-10fbdceb8d56 context-58b887af-7fe4-4b52-b877-268ea5ca9417 context-a8828afb-fa24-44a8-942e-2665dbcf9405 context-b7c7f442-377f-492c-90bf-331e66988bda" id="23211949-9b66-4033-93f9-a40bf103d519"><path class="Edge" d="M 207.5 189.5 209.5 211.5 209.5 246.5" fill="none" marker-end="url(&quot;#FineArrowMark_000000&quot;)" marker-start="url(&quot;#DiamondMark_000000&quot;)" stroke="#000000" stroke-width="1" /><text class="Annotation" dominant-baseline="middle" text-anchor="middle" x="159" y="211"><tspan x="183.0" xml:space="preserve" y="219.71428571428572">two</tspan></text></g><g class="Edge Composition context-0093ffdd-ab4d-4c87-971d-0c2fc1a0b094 context-11d42718-70a0-455b-af59-dbf87d50a885 context-1dccccde-6ab1-47ac-8ee8-a3033a49a9e5 context-1de298dd-ccef-4505-9a5e-1aa792f2eb19 context-23211949-9b66-4033-93f9-a40bf103d519 context-322dc599-ea72-49e9-8e37-fe5226e41f19 context-37ae6942-cbbc-4e2a-acad-10fbdceb8d56 context-58b887af-7fe4-4b52-b877-268ea5ca9417 context-a8828afb-fa24-44a8-942e-2665dbcf9405 context-b7c7f442-377f-492c-90bf-331e66988bda" id="1de298dd-ccef-4505-9a5e-1aa792f2eb19"><path class="Edge" d="M 209.5 285.5 209.5 305.5 209.5 342.5" fill="none" marker-end="url(&quot;#FineArrowMark_000000&quot;)" marker-start="url(&quot;#FilledDiamondMark_000000&quot;)" stroke="#000000" stroke-width="1" /><text class="Annotation" dominant-baseline="middle" text-anchor="middle" x="212" y="305"><tspan x="255.5" xml:space="preserve" y="315.14285714285717">[0..1] three</tspan></text></g><g class="Edge Association context-0093ffdd-ab4d-4c87-971d-0c2fc1a0b094 context-11d42718-70a0-455b-af59-dbf87d50a885 context-1dccccde-6ab1-47ac-8ee8-a3033a49a9e5 context-1de298dd-ccef-4505-9a5e-1aa792f2eb19 context-23211949-9b66-4033-93f9-a40bf103d519 context-322dc599-ea72-49e9-8e37-fe5226e41f19 context-37ae6942-cbbc-4e2a-acad-10fbdceb8d56 context-58b887af-7fe4-4b52-b877-268ea5ca9417 context-a8828afb-fa24-44a8-942e-2665dbcf9405 context-b7c7f442-377f-492c-90bf-331e66988bda" id="58b887af-7fe4-4b52-b877-268ea5ca9417"><path class="Edge" d="M 179.5 401.5 179.5 421.5 179.5 454.5" fill="none" marker-end="url(&quot;#FineArrowMark_000000&quot;)" stroke="#000000" stroke-width="1" /><text class="Annotation" dominant-baseline="middle" text-anchor="middle" x="129" y="421"><tspan x="153.0" xml:space="preserve" y="429.7142857142857">five</tspan></text></g><g class="Edge Generalization context-0093ffdd-ab4d-4c87-971d-0c2fc1a0b094 context-11d42718-70a0-455b-af59-dbf87d50a885 context-1dccccde-6ab1-47ac-8ee8-a3033a49a9e5 context-1de298dd-ccef-4505-9a5e-1aa792f2eb19 context-23211949-9b66-4033-93f9-a40bf103d519 context-322dc599-ea72-49e9-8e37-fe5226e41f19 context-37ae6942-cbbc-4e2a-acad-10fbdceb8d56 context-58b887af-7fe4-4b52-b877-268ea5ca9417 context-a8828afb-fa24-44a8-942e-2665dbcf9405 context-b7c7f442-377f-492c-90bf-331e66988bda" id="a8828afb-fa24-44a8-942e-2665dbcf9405"><path class="Edge" d="M 150.5 189.5 148.5 210.5 148.5 342.5" fill="none" marker-end="url(&quot;#GeneralizationMark_000000&quot;)" stroke="#000000" stroke-width="1" /></g><g class="Box Enumeration context-861ff9e8-295d-43ae-a8eb-d77769879c9f" id="861ff9e8-295d-43ae-a8eb-d77769879c9f"><rect class="Enumeration" fill="#E8E0D2" height="72" stroke="#676767" stroke-width="1" width="93" x="314.5" y="15.5" /><text class="Enumeration" dominant-baseline="middle" fill="#000000" text-anchor="middle" x="319" y="20"><tspan x="371.0" xml:space="preserve" y="28.857142857142858">EnumExample</tspan></text><use height="20" width="20" x="318.5" xlink:href="#EnumerationSymbol" y="18.857142857142858" /><line stroke="#676767" x1="314.5" x2="407.5" y1="41.214285714285715" y2="41.214285714285715" /><text class="Features" dominant-baseline="middle" fill="#000000" text-anchor="start" x="326.5" y="41.214285714285715"><tspan x="337.0" xml:space="preserve" y="51.92857142857143">DEFAULT</tspan></text><use height="20" width="20" x="316.0" xlink:href="#EnumerationFeatureSymbol" y="41.92857142857143" /><text class="Features" dominant-baseline="middle" fill="#000000" text-anchor="start" x="326.5" y="52.642857142857146"><tspan x="337.0" xml:space="preserve" y="63.35714285714286">VALUE A</tspan></text><use height="20" width="20" x="316.0" xlink:href="#EnumerationFeatureSymbol" y="53.35714285714286" /></g><g class="Box Enumeration context-d32f721c-d5b2-452e-ac2d-3bfc789e0da3" id="d32f721c-d5b2-452e-ac2d-3bfc789e0da3"><rect class="Enumeration" fill="#E8E0D2" height="132" stroke="#676767" stroke-width="1" width="105" x="422.5" y="15.5" /><text class="Enumeration" dominant-baseline="middle" fill="#000000" text-anchor="middle" x="427" y="20"><tspan x="485.0" xml:space="preserve" y="28.857142857142858">EnumExample_1</tspan></text><use height="20" width="20" x="427.5" xlink:href="#EnumerationSymbol" y="18.857142857142858" /><line stroke="#676767" x1="422.5" x2="527.5" y1="41.214285714285715" y2="41.214285714285715" /><text class="Features" dominant-baseline="middle" fill="#000000" text-anchor="start" x="434.5" y="41.214285714285715"><tspan x="445.0" xml:space="preserve" y="53.35714285714286">DEFAULT_1</tspan></text><use height="20" width="20" x="424.0" xlink:href="#EnumerationFeatureSymbol" y="43.35714285714286" /><text class="Features" dominant-baseline="middle" fill="#000000" text-anchor="start" x="434.5" y="55.5"><tspan x="445.0" xml:space="preserve" y="67.64285714285714">VALUE A_1</tspan></text><use height="20" width="20" x="424.0" xlink:href="#EnumerationFeatureSymbol" y="57.64285714285714" /><text class="Features" dominant-baseline="middle" fill="#000000" text-anchor="start" x="434.5" y="69.78571428571429"><tspan x="445.0" xml:space="preserve" y="80.5">VALUE B</tspan></text><use height="20" width="20" x="424.0" xlink:href="#EnumerationFeatureSymbol" y="70.5" /><text class="Features" dominant-baseline="middle" fill="#000000" text-anchor="start" x="434.5" y="81.21428571428572"><tspan x="445.0" xml:space="preserve" y="91.92857142857144">VALUE C</tspan></text><use height="20" width="20" x="424.0" xlink:href="#EnumerationFeatureSymbol" y="81.92857142857144" /><text class="Features" dominant-baseline="middle" fill="#000000" text-anchor="start" x="434.5" y="92.64285714285715"><tspan x="445.0" xml:space="preserve" y="103.35714285714286">VALUE D</tspan></text><use height="20" width="20" x="424.0" xlink:href="#EnumerationFeatureSymbol" y="93.35714285714286" /><text class="Features" dominant-baseline="middle" fill="#000000" text-anchor="start" x="434.5" y="104.07142857142858"><tspan x="445.0" xml:space="preserve" y="114.7857142857143">VALUE E</tspan></text><use height="20" width="20" x="424.0" xlink:href="#EnumerationFeatureSymbol" y="104.7857142857143" /></g><g class="Box Enumeration context-2d646411-731b-4e6d-a90b-6ea04abecc4b" id="2d646411-731b-4e6d-a90b-6ea04abecc4b"><rect class="Enumeration" fill="#E8E0D2" height="78" stroke="#676767" stroke-width="1" width="105" x="314.5" y="162.5" /><text class="Enumeration" dominant-baseline="middle" fill="#000000" text-anchor="middle" x="319" y="167"><tspan x="377.0" xml:space="preserve" y="175.85714285714286">EnumExample_2</tspan></text><use height="20" width="20" x="319.5" xlink:href="#EnumerationSymbol" y="165.85714285714286" /><line stroke="#676767" x1="314.5" x2="419.5" y1="188.21428571428572" y2="188.21428571428572" /><text class="Features" dominant-baseline="middle" fill="#000000" text-anchor="start" x="326.5" y="188.21428571428572"><tspan x="337.0" xml:space="preserve" y="200.35714285714286">DEFAULT_2</tspan></text><use height="20" width="20" x="316.0" xlink:href="#EnumerationFeatureSymbol" y="190.35714285714286" /><text class="Features" dominant-baseline="middle" fill="#000000" text-anchor="start" x="326.5" y="202.5"><tspan x="337.0" xml:space="preserve" y="214.64285714285714">VALUE A_2</tspan></text><use height="20" width="20" x="316.0" xlink:href="#EnumerationFeatureSymbol" y="204.64285714285714" /></g><g class="Box Enumeration context-d5623fcf-dad9-48a5-a649-f2c791ac98c8" id="d5623fcf-dad9-48a5-a649-f2c791ac98c8"><rect class="Enumeration" fill="#E8E0D2" height="78" stroke="#676767" stroke-width="1" width="105" x="433.5" y="162.5" /><text class="Enumeration" dominant-baseline="middle" fill="#000000" text-anchor="middle" x="438" y="167"><tspan x="496.0" xml:space="preserve" y="175.85714285714286">EnumExample_3</tspan></text><use height="20" width="20" x="438.5" xlink:href="#EnumerationSymbol" y="165.85714285714286" /><line stroke="#676767" x1="433.5" x2="538.5" y1="188.21428571428572" y2="188.21428571428572" /><text class="Features" dominant-baseline="middle" fill="#000000" text-anchor="start" x="445.5" y="188.21428571428572"><tspan x="456.0" xml:space="preserve" y="200.35714285714286">DEFAULT_3</tspan></text><use height="20" width="20" x="435.0" xlink:href="#EnumerationFeatureSymbol" y="190.35714285714286" /><text class="Features" dominant-baseline="middle" fill="#000000" text-anchor="start" x="445.5" y="202.5"><tspan x="456.0" xml:space="preserve" y="214.64285714285714">VALUE A_3</tspan></text><use height="20" width="20" x="435.0" xlink:href="#EnumerationFeatureSymbol" y="204.64285714285714" /></g><g class="Box Enumeration context-1f6a60f6-0563-44c4-a0c0-fa24378f1bd4" id="1f6a60f6-0563-44c4-a0c0-fa24378f1bd4"><rect class="Enumeration" fill="#E8E0D2" height="78" stroke="#676767" stroke-width="1" width="105" x="314.5" y="255.5" /><text class="Enumeration" dominant-baseline="middle" fill="#000000" text-anchor="middle" x="319" y="260"><tspan x="377.0" xml:space="preserve" y="268.85714285714283">EnumExample_4</tspan></text><use height="20" width="20" x="319.5" xlink:href="#EnumerationSymbol" y="258.85714285714283" /><line stroke="#676767" x1="314.5" x2="419.5" y1="281.2142857142857" y2="281.2142857142857" /><text class="Features" dominant-baseline="middle" fill="#000000" text-anchor="start" x="326.5" y="281.2142857142857"><tspan x="337.0" xml:space="preserve" y="293.3571428571429">DEFAULT_4</tspan></text><use height="20" width="20" x="316.0" xlink:href="#EnumerationFeatureSymbol" y="283.3571428571429" /><text class="Features" dominant-baseline="middle" fill="#000000" text-anchor="start" x="326.5" y="295.5"><tspan x="337.0" xml:space="preserve" y="307.64285714285717">VALUE A_4</tspan></text><use height="20" width="20" x="316.0" xlink:href="#EnumerationFeatureSymbol" y="297.64285714285717" /></g><g class="Box PrimitiveClass context-cdfea28e-21a8-4643-81e4-cea184756733" id="cdfea28e-21a8-4643-81e4-cea184756733"><rect class="PrimitiveClass" fill="#E8E0D2" height="55" stroke="#676767" stroke-width="1" width="141" x="433.5" y="255.5" /><text class="PrimitiveClass" dominant-baseline="middle" fill="#000000" text-anchor="middle" x="477" y="260"><tspan x="504.0" xml:space="preserve" y="266.7142857142857">Primitive</tspan></text><line stroke="#676767" x1="433.5" x2="574.5" y1="276.92857142857144" y2="276.92857142857144" /><text class="Features" dominant-baseline="middle" fill="#000000" text-anchor="start" x="445.5" y="276.92857142857144"><tspan x="445.5" xml:space="preserve" y="289.7857142857143">[1..*] ex: EnumExample</tspan></text></g><g class="Box Enumeration context-96e696c3-cd4a-481d-a3e5-f5ecbce9233c" id="96e696c3-cd4a-481d-a3e5-f5ecbce9233c"><rect class="Enumeration" fill="#E8E0D2" height="78" stroke="#676767" stroke-width="1" width="105" x="314.5" y="348.5" /><text class="Enumeration" dominant-baseline="middle" fill="#000000" text-anchor="middle" x="319" y="353"><tspan x="377.0" xml:space="preserve" y="361.85714285714283">EnumExample_5</tspan></text><use height="20" width="20" x="319.5" xlink:href="#EnumerationSymbol" y="351.85714285714283" /><line stroke="#676767" x1="314.5" x2="419.5" y1="374.2142857142857" y2="374.2142857142857" /><text class="Features" dominant-baseline="middle" fill="#000000" text-anchor="start" x="326.5" y="374.2142857142857"><tspan x="337.0" xml:space="preserve" y="386.3571428571429">DEFAULT_5</tspan></text><use height="20" width="20" x="316.0" xlink:href="#EnumerationFeatureSymbol" y="376.3571428571429" /><text class="Features" dominant-baseline="middle" fill="#000000" text-anchor="start" x="326.5" y="388.5"><tspan x="337.0" xml:space="preserve" y="400.64285714285717">VALUE A_5</tspan></text><use height="20" width="20" x="316.0" xlink:href="#EnumerationFeatureSymbol" y="390.64285714285717" /></g></svg>
