<svg baseProfile="full" class="ClassDiagramBlank" font-family="'Open Sans','Segoe UI',Arial,sans-serif" font-size="10px" height="668" shape-rendering="geometricPrecision" version="1.1" viewBox="2 2 870 668" width="870" xmlns="http://www.w3.org/2000/svg" xmlns:ev="http://www.w3.org/2001/xml-events" xmlns:xlink="http://www.w3.org/1999/xlink"><defs><symbol id="ClassSymbol" viewBox="0 0 25 25"><linearGradient id="ClassSymbol-gradient" x1="0" x2="0" y1="0" y2="1"><stop offset="0.0" stop-color="#cfa6a5" stop-opacity="1" /><stop offset="1.0" stop-color="#f1e2e3" stop-opacity="1" /></linearGradient><g stroke="#913734"><rect fill="#eedcdd" height="3" width="15" x="5" y="17" /><rect fill="#eedcdd" height="3" width="15" x="5" y="14" /><rect fill="url(#ClassSymbol-gradient)" height="10" width="15" x="5" y="4" /></g></symbol><symbol id="ClassFeatureSymbol" viewBox="0 0 27 21"><linearGradient id="ClassFeatureSymbol-gradient" x1="0" x2="0" y1="0" y2="1"><stop offset="0.0" stop-color="#cfa6a5" stop-opacity="1" /><stop offset="1.0" stop-color="#f1e2e3" stop-opacity="1" /></linearGradient><g><rect fill="#913734" height="11.5" width="17" x="7" y="4" /><rect fill="url(#ClassFeatureSymbol-gradient)" height="9.5" width="17" x="7" y="5" /><circle cx="20.7" cy="12.1" fill="#f1e2e3" r="4.1" stroke="#913734" stroke-width="1" /></g></symbol><linearGradient id="CustomGradient_FFFFFF_E8E0D2" x1="0" x2="0" y1="0" y2="1"><stop offset="0.0" stop-color="#FFFFFF" stop-opacity="1" /><stop offset="1.0" stop-color="#E8E0D2" stop-opacity="1" /></linearGradient><marker id="FineArrowMark_000000" markerHeight="7.5" markerUnits="userSpaceOnUse" markerWidth="7.5" orient="auto" refX="7" refY="3.75"><path d="M 0.4535,0.107 7.309,3.621 0.492,7.407 0.144,7.407 6.414,3.63 0.136,0.479 Z" stroke="#000000" stroke-width="1" /></marker><marker id="DiamondMark_000000" markerHeight="6" markerUnits="userSpaceOnUse" markerWidth="11" orient="auto" refX="0" refY="3"><path d="M 0,3 5,0.5 10,3 5,5.5 Z" fill="#fff" stroke="#000000" stroke-width="1" /></marker><marker id="FilledDiamondMark_000000" markerHeight="6" markerUnits="userSpaceOnUse" markerWidth="11" orient="auto" refX="0" refY="3"><path d="M 0,3 5,0.5 10,3 5,5.5 Z" fill="#000" stroke="#000000" stroke-width="1" /></marker><marker id="GeneralizationMark_000000" markerHeight="7.5" markerUnits="userSpaceOnUse" markerWidth="7.5" orient="auto" refX="7" refY="4"><path d="M 0.1275,7.5 7.5,3.75 0,0 Z" fill="#fff" stroke="#000000" stroke-width="1" /></marker><symbol id="EnumerationSymbol" viewBox="0 0 25 20"><linearGradient id="EnumerationSymbol-gradient" x1="0" x2="0" y1="0" y2="1"><stop offset="0.0" stop-color="#cfa6a5" stop-opacity="1" /><stop offset="1.0" stop-color="#f1e2e3" stop-opacity="1" /></linearGradient><g stroke="#913734"><rect fill="#eedcdd" height="3.5" width="15" x="5" y="13" /><rect fill="url(#EnumerationSymbol-gradient)" height="9" width="15" x="5" y="4" /></g><g stroke="#000" stroke-width="1.5" transform="scale(0.3,0.3) translate(20, 16)"><path d="M 4.25 17.4 L 0 17.6 L 0 15.6 L 3.375 15.475 L 3.375 2.65 L 0.25 2.875 L 0.25 1 L 5.625 0 L 5.625 15.475 L 8.5 15.6 L 8.5 17.6 L 4.25 17.4 Z" /><path d="M 13.375 15.5 L 24.625 15.5 L 24.625 17.5 L 11.125 17.5 L 11.125 8.7 L 22.375 7.45 L 22.375 2 L 11.375 2 L 11.375 0 L 22.625 0 L 24.625 2 L 24.625 9.125 L 13.375 10.375 L 13.375 15.5 Z" transform="translate(1, 3)" /><path d="M 40.375 15.5 L 38.375 17.5 L 26.875 17.5 L 26.875 15.5 L 38.125 15.5 L 38.125 9.5 L 28.375 9.5 L 28.375 7.5 L 37.625 7.5 L 37.625 2 L 27.125 2 L 27.125 0 L 37.875 0 L 39.875 2 L 39.875 7.275 L 38.45 8.35 L 40.375 9.85 L 40.375 15.5 Z" transform="translate(3, 6)" /></g></symbol><symbol id="EnumerationFeatureSymbol" viewBox="0 0 27 21"><linearGradient id="EnumerationFeatureSymbol-gradient" x1="0" x2="0" y1="0" y2="1"><stop offset="0.0" stop-color="#cfa6a5" stop-opacity="1" /><stop offset="1.0" stop-color="#f1e2e3" stop-opacity="1" /></linearGradient><g><rect fill="#913734" height="11.5" width="17" x="7" y="4" /><rect fill="url(#EnumerationFeatureSymbol-gradient)" height="9.5" width="17" x="7" y="5" /></g><g stroke="#000" stroke-width="1.5" transform="scale(0.4,0.4) translate(24, 15.5)"><path d="M 12.25 17.5 L 0 17.5 L 0 0 L 12 0 L 12 2 L 2.25 2 L 2.25 7.5 L 10.75 7.5 L 10.75 9.5 L 2.25 9.5 L 2.25 15.5 L 12.25 15.5 L 12.25 17.5 Z" /><path d="M 27.25 17.5 L 14.5 17.5 L 14.5 0 L 16.75 0 L 16.75 15.5 L 27.25 15.5 Z" transform="translate(2, 0)" /></g></symbol></defs><rect fill="#fff" height="668" stroke="none" width="870" x="2" y="2" /><g class="Box Class context-0093ffdd-ab4d-4c87-971d-0c2fc1a0b094 context-11d42718-70a0-455b-af59-dbf87d50a885 context-1dccccde-6ab1-47ac-8ee8-a3033a49a9e5 context-1de298dd-ccef-4505-9a5e-1aa792f2eb19 context-23211949-9b66-4033-93f9-a40bf103d519 context-322dc599-ea72-49e9-8e37-fe5226e41f19 context-37ae6942-cbbc-4e2a-acad-10fbdceb8d56 context-58b887af-7fe4-4b52-b877-268ea5ca9417 context-a8828afb-fa24-44a8-942e-2665dbcf9405 context-b7c7f442-377f-492c-90bf-331e66988bda" id="b7c7f442-377f-492c-90bf-331e66988bda"><rect class="Class" fill="url(&quot;#CustomGradient_FFFFFF_E8E0D2&quot;)" height="177" rx="10px" ry="10px" stroke="#7B694F" stroke-width="4" width="229" x="35.5" y="12.5" /><text class="Class" dominant-baseline="middle" fill="#000000" text-anchor="middle" x="123" y="17"><tspan x="160.0" xml:space="preserve" y="23.714285714285715">Root</tspan></text><use height="20" width="20" x="130.0" xlink:href="#ClassSymbol" y="13.714285714285715" /><line stroke="#7B694F" x1="35.5" x2="264.5" y1="33.92857142857143" y2="33.92857142857143" /><text class="Features" dominant-baseline="middle" fill="#000000" text-anchor="start" x="47.5" y="33.92857142857143"><tspan x="58.0" xml:space="preserve" y="46.78571428571429">[1..*] example: Example</tspan></text><use height="20" width="20" x="37.0" xlink:href="#ClassFeatureSymbol" y="36.78571428571429" /><text class="Features" dominant-baseline="middle" fill="#000000" text-anchor="start" x="47.5" y="49.642857142857146"><tspan x="58.0" xml:space="preserve" y="62.5">[0..1] enum_example: EnumExample</tspan></text><use height="20" width="20" x="37.0" xlink:href="#ClassFeatureSymbol" y="52.5" /><text class="Features" dominant-baseline="middle" fill="#000000" text-anchor="start" x="47.5" y="65.35714285714286"><tspan x="58.0" xml:space="preserve" y="78.21428571428572">another: EnumExample_1</tspan></text><use height="20" width="20" x="37.0" xlink:href="#ClassFeatureSymbol" y="68.21428571428572" /><text class="Features" dominant-baseline="middle" fill="#000000" text-anchor="start" x="47.5" y="81.07142857142858"><tspan x="58.0" xml:space="preserve" y="93.92857142857144">another_one: EnumExample_2</tspan></text><use height="20" width="20" x="37.0" xlink:href="#ClassFeatureSymbol" y="83.92857142857144" /><text class="Features" dominant-baseline="middle" fill="#000000" text-anchor="start" x="47.5" y="96.7857142857143"><tspan x="58.0" xml:space="preserve" y="109.64285714285717">another_one_one: EnumExample_3</tspan></text><use height="20" width="20" x="37.0" xlink:href="#ClassFeatureSymbol" y="99.64285714285717" /><text class="Features" dominant-baseline="middle" fill="#000000" text-anchor="start" x="47.5" y="112.50000000000003"><tspan x="58.0" xml:space="preserve" y="125.35714285714289">last_one: EnumExample_4</tspan></text><use height="20" width="20" x="37.0" xlink:href="#ClassFeatureSymbol" y="115.35714285714289" /><text class="Features" dominant-baseline="middle" fill="#000000" text-anchor="start" x="47.5" y="128.21428571428575"><tspan x="58.0" xml:space="preserve" y="141.0714285714286">primitiveExample: Primitive</tspan></text><use height="20" width="20" x="37.0" xlink:href="#ClassFeatureSymbol" y="131.0714285714286" /></g><g class="Box Class context-0093ffdd-ab4d-4c87-971d-0c2fc1a0b094 context-11d42718-70a0-455b-af59-dbf87d50a885 context-1dccccde-6ab1-47ac-8ee8-a3033a49a9e5 context-1de298dd-ccef-4505-9a5e-1aa792f2eb19 context-23211949-9b66-4033-93f9-a40bf103d519 context-322dc599-ea72-49e9-8e37-fe5226e41f19 context-37ae6942-cbbc-4e2a-acad-10fbdceb8d56 context-58b887af-7fe4-4b52-b877-268ea5ca9417 context-a8828afb-fa24-44a8-942e-2665dbcf9405 context-b7c7f442-377f-492c-90bf-331e66988bda" id="0093ffdd-ab4d-4c87-971d-0c2fc1a0b094"><rect class="Class" fill="url(&quot;#CustomGradient_FFFFFF_E8E0D2&quot;)" height="39" rx="10px" ry="10px" stroke="#7B694F" stroke-width="1" width="57" x="64.5" y="246.5" /><text class="Class" dominant-baseline="middle" fill="#000000" text-anchor="middle" x="67" y="251"><tspan x="103.0" xml:space="preserve" y="257.7142857142857">One</tspan></text><use height="20" width="20" x="74.0" xlink:href="#ClassSymbol" y="247.71428571428572" /><line stroke="#7B694F" x1="64.5" x2="121.5" y1="267.92857142857144" y2="267.92857142857144" /></g><g class="Box Class context-0093ffdd-ab4d-4c87-971d-0c2fc1a0b094 context-11d42718-70a0-455b-af59-dbf87d50a885 context-1dccccde-6ab1-47ac-8ee8-a3033a49a9e5 context-1de298dd-ccef-4505-9a5e-1aa792f2eb19 context-23211949-9b66-4033-93f9-a40bf103d519 context-322dc599-ea72-49e9-8e37-fe5226e41f19 context-37ae6942-cbbc-4e2a-acad-10fbdceb8d56 context-58b887af-7fe4-4b52-b877-268ea5ca9417 context-a8828afb-fa24-44a8-942e-2665dbcf9405 context-b7c7f442-377f-492c-90bf-331e66988bda" id="1dccccde-6ab1-47ac-8ee8-a3033a49a9e5"><rect class="Class" fill="url(&quot;#CustomGradient_FFFFFF_E8E0D2&quot;)" height="39" rx="10px" ry="10px" stroke="#7B694F" stroke-width="1" width="56" x="222.5" y="246.5" /><text class="Class" dominant-baseline="middle" fill="#000000" text-anchor="middle" x="225" y="251"><tspan x="260.5" xml:space="preserve" y="257.7142857142857">Two</tspan></text><use height="20" width="20" x="232.0" xlink:href="#ClassSymbol" y="247.71428571428572" /><line stroke="#7B694F" x1="222.5" x2="278.5" y1="267.92857142857144" y2="267.92857142857144" /></g><g class="Box Class context-0093ffdd-ab4d-4c87-971d-0c2fc1a0b094 context-11d42718-70a0-455b-af59-dbf87d50a885 context-1dccccde-6ab1-47ac-8ee8-a3033a49a9e5 context-1de298dd-ccef-4505-9a5e-1aa792f2eb19 context-23211949-9b66-4033-93f9-a40bf103d519 context-322dc599-ea72-49e9-8e37-fe5226e41f19 context-37ae6942-cbbc-4e2a-acad-10fbdceb8d56 context-58b887af-7fe4-4b52-b877-268ea5ca9417 context-a8828afb-fa24-44a8-942e-2665dbcf9405 context-b7c7f442-377f-492c-90bf-331e66988bda" id="322dc599-ea72-49e9-8e37-fe5226e41f19"><rect class="Class" fill="url(&quot;#CustomGradient_FFFFFF_E8E0D2&quot;)" height="59" rx="10px" ry="10px" stroke="#7B694F" stroke-width="1" width="181" x="90.5" y="341.5" /><text class="Class" dominant-baseline="middle" fill="#000000" text-anchor="middle" x="151" y="346"><tspan x="191.0" xml:space="preserve" y="352.7142857142857">Three</tspan></text><use height="20" width="20" x="158.5" xlink:href="#ClassSymbol" y="342.7142857142857" /><line stroke="#7B694F" x1="90.5" x2="271.5" y1="362.92857142857144" y2="362.92857142857144" /><text class="Features" dominant-baseline="middle" fill="#000000" text-anchor="start" x="102.5" y="362.92857142857144"><tspan x="113.0" xml:space="preserve" y="375.7857142857143">primitiveExample: Primitive</tspan></text><use height="20" width="20" x="92.0" xlink:href="#ClassFeatureSymbol" y="365.7857142857143" /></g><g class="Box Class context-0093ffdd-ab4d-4c87-971d-0c2fc1a0b094 context-11d42718-70a0-455b-af59-dbf87d50a885 context-1dccccde-6ab1-47ac-8ee8-a3033a49a9e5 context-1de298dd-ccef-4505-9a5e-1aa792f2eb19 context-23211949-9b66-4033-93f9-a40bf103d519 context-322dc599-ea72-49e9-8e37-fe5226e41f19 context-37ae6942-cbbc-4e2a-acad-10fbdceb8d56 context-58b887af-7fe4-4b52-b877-268ea5ca9417 context-a8828afb-fa24-44a8-942e-2665dbcf9405 context-b7c7f442-377f-492c-90bf-331e66988bda" id="37ae6942-cbbc-4e2a-acad-10fbdceb8d56"><rect class="Class" fill="url(&quot;#CustomGradient_FFFFFF_E8E0D2&quot;)" height="59" rx="10px" ry="10px" stroke="#7B694F" stroke-width="1" width="135" x="113.5" y="454.5" /><text class="Class" dominant-baseline="middle" fill="#000000" text-anchor="middle" x="156" y="459"><tspan x="190.5" xml:space="preserve" y="465.7142857142857">five</tspan></text><use height="20" width="20" x="163.0" xlink:href="#ClassSymbol" y="455.7142857142857" /><line stroke="#7B694F" x1="113.5" x2="248.5" y1="475.92857142857144" y2="475.92857142857144" /><text class="Features" dominant-baseline="middle" fill="#000000" text-anchor="start" x="125.5" y="475.92857142857144"><tspan x="136.0" xml:space="preserve" y="488.7857142857143">fi: EnumExample_5</tspan></text><use height="20" width="20" x="115.0" xlink:href="#ClassFeatureSymbol" y="478.7857142857143" /></g><g class="Edge Association context-0093ffdd-ab4d-4c87-971d-0c2fc1a0b094 context-11d42718-70a0-455b-af59-dbf87d50a885 context-1dccccde-6ab1-47ac-8ee8-a3033a49a9e5 context-1de298dd-ccef-4505-9a5e-1aa792f2eb19 context-23211949-9b66-4033-93f9-a40bf103d519 context-322dc599-ea72-49e9-8e37-fe5226e41f19 context-37ae6942-cbbc-4e2a-acad-10fbdceb8d56 context-58b887af-7fe4-4b52-b877-268ea5ca9417 context-a8828afb-fa24-44a8-942e-2665dbcf9405 context-b7c7f442-377f-492c-90bf-331e66988bda" id="11d42718-70a0-455b-af59-dbf87d50a885"><path class="Edge" d="M 93.5 189.5 93.5 246.5" fill="none" marker-end="url(&quot;#FineArrowMark_000000&quot;)" stroke="#000000" stroke-width="1" /><text class="Annotation" dominant-baseline="middle" text-anchor="middle" x="12" y="209"><tspan x="51.5" xml:space="preserve" y="219.14285714285714">[1..*] one</tspan></text></g><g class="Edge Aggregation context-0093ffdd-ab4d-4c87-971d-0c2fc1a0b094 context-11d42718-70a0-455b-af59-dbf87d50a885 context-1dccccde-6ab1-47ac-8ee8-a3033a49a9e5 context-1de298dd-ccef-4505-9a5e-1aa792f2eb19 context-23211949-9b66-4033-93f9-a40bf103d519 context-322dc599-ea72-49e9-8e37-fe5226e41f19 context-37ae6942-cbbc-4e2a-acad-10fbdceb8d56 context-58b887af-7fe4-4b52-b877-268ea5ca9417 context-a8828afb-fa24-44a8-942e-2665dbcf9405 context-b7c7f442-377f-492c-90bf-331e66988bda" id="23211949-9b66-4033-93f9-a40bf103d519"><path class="Edge" d="M 207.5 189.5 207.5 199.5 250.5 199.5 250.5 246.5" fill="none" marker-end="url(&quot;#FineArrowMark_000000&quot;)" marker-start="url(&quot;#DiamondMark_000000&quot;)" stroke="#000000" stroke-width="1" /><text class="Annotation" dominant-baseline="middle" text-anchor="middle" x="200" y="211"><tspan x="224.0" xml:space="preserve" y="219.71428571428572">two</tspan></text></g><g class="Edge Composition context-0093ffdd-ab4d-4c87-971d-0c2fc1a0b094 context-11d42718-70a0-455b-af59-dbf87d50a885 context-1dccccde-6ab1-47ac-8ee8-a3033a49a9e5 context-1de298dd-ccef-4505-9a5e-1aa792f2eb19 context-23211949-9b66-4033-93f9-a40bf103d519 context-322dc599-ea72-49e9-8e37-fe5226e41f19 context-37ae6942-cbbc-4e2a-acad-10fbdceb8d56 context-58b887af-7fe4-4b52-b877-268ea5ca9417 context-a8828afb-fa24-44a8-942e-2665dbcf9405 context-b7c7f442-377f-492c-90bf-331e66988bda" id="1de298dd-ccef-4505-9a5e-1aa792f2eb19"><path class="Edge" d="M 250.5 285.5 250.5 331.5 210.5 331.5 210.5 341.5" fill="none" marker-end="url(&quot;#FineArrowMark_000000&quot;)" marker-start="url(&quot;#FilledDiamondMark_000000&quot;)" stroke="#000000" stroke-width="1" /><text class="Annotation" dominant-baseline="middle" text-anchor="middle" x="161" y="305"><tspan x="204.5" xml:space="preserve" y="315.14285714285717">[0..1] three</tspan></text></g><g class="Edge Association context-0093ffdd-ab4d-4c87-971d-0c2fc1a0b094 context-11d42718-70a0-455b-af59-dbf87d50a885 context-1dccccde-6ab1-47ac-8ee8-a3033a49a9e5 context-1de298dd-ccef-4505-9a5e-1aa792f2eb19 context-23211949-9b66-4033-93f9-a40bf103d519 context-322dc599-ea72-49e9-8e37-fe5226e41f19 context-37ae6942-cbbc-4e2a-acad-10fbdceb8d56 context-58b887af-7fe4-4b52-b877-268ea5ca9417 context-a8828afb-fa24-44a8-942e-2665dbcf9405 context-b7c7f442-377f-492c-90bf-331e66988bda" id="58b887af-7fe4-4b52-b877-268ea5ca9417"><path class="Edge" d="M 180.5 401.5 180.5 454.5" fill="none" marker-end="url(&quot;#FineArrowMark_000000&quot;)" stroke="#000000" stroke-width="1" /><text class="Annotation" dominant-baseline="middle" text-anchor="middle" x="131" y="421"><tspan x="155.0" xml:space="preserve" y="429.7142857142857">five</tspan></text></g><g class="Edge Generalization context-0093ffdd-ab4d-4c87-971d-0c2fc1a0b094 context-11d42718-70a0-455b-af59-dbf87d50a885 context-1dccccde-6ab1-47ac-8ee8-a3033a49a9e5 context-1de298dd-ccef-4505-9a5e-1aa792f2eb19 context-23211949-9b66-4033-93f9-a40bf103d519 context-322dc599-ea72-49e9-8e37-fe5226e41f19 context-37ae6942-cbbc-4e2a-acad-10fbdceb8d56 context-58b887af-7fe4-4b52-b877-268ea5ca9417 context-a8828afb-fa24-44a8-942e-2665dbcf9405 context-b7c7f442-377f-492c-90bf-331e66988bda" id="a8828afb-fa24-44a8-942e-2665dbcf9405"><path class="Edge" d="M 150.5 189.5 150.5 341.5" fill="none" marker-end="url(&quot;#GeneralizationMark_000000&quot;)" stroke="#000000" stroke-width="1" /></g><g class="Box Enumeration context-861ff9e8-295d-43ae-a8eb-d77769879c9f" id="861ff9e8-295d-43ae-a8eb-d77769879c9f"><rect class="Enumeration" fill="#E8E0D2" height="72" stroke="#676767" stroke-width="1" width="93" x="15.5" y="528.5" /><text class="Enumeration" dominant-baseline="middle" fill="#000000" text-anchor="middle" x="20" y="533"><tspan x="72.0" xml:space="preserve" y="541.8571428571429">EnumExample</tspan></text><use height="20" width="20" x="19.5" xlink:href="#EnumerationSymbol" y="531.8571428571429" /><line stroke="#676767" x1="15.5" x2="108.5" y1="554.2142857142857" y2="554.2142857142857" /><text class="Features" dominant-baseline="middle" fill="#000000" text-anchor="start" x="27.5" y="554.2142857142857"><tspan x="38.0" xml:space="preserve" y="564.9285714285713">DEFAULT</tspan></text><use height="20" width="20" x="17.0" xlink:href="#EnumerationFeatureSymbol" y="554.9285714285713" /><text class="Features" dominant-baseline="middle" fill="#000000" text-anchor="start" x="27.5" y="565.6428571428571"><tspan x="38.0" xml:space="preserve" y="576.3571428571428">VALUE A</tspan></text><use height="20" width="20" x="17.0" xlink:href="#EnumerationFeatureSymbol" y="566.3571428571428" /></g><g class="Box Enumeration context-d32f721c-d5b2-452e-ac2d-3bfc789e0da3" id="d32f721c-d5b2-452e-ac2d-3bfc789e0da3"><rect class="Enumeration" fill="#E8E0D2" height="132" stroke="#676767" stroke-width="1" width="105" x="123.5" y="528.5" /><text class="Enumeration" dominant-baseline="middle" fill="#000000" text-anchor="middle" x="128" y="533"><tspan x="186.0" xml:space="preserve" y="541.8571428571429">EnumExample_1</tspan></text><use height="20" width="20" x="128.5" xlink:href="#EnumerationSymbol" y="531.8571428571429" /><line stroke="#676767" x1="123.5" x2="228.5" y1="554.2142857142857" y2="554.2142857142857" /><text class="Features" dominant-baseline="middle" fill="#000000" text-anchor="start" x="135.5" y="554.2142857142857"><tspan x="146.0" xml:space="preserve" y="566.3571428571428">DEFAULT_1</tspan></text><use height="20" width="20" x="125.0" xlink:href="#EnumerationFeatureSymbol" y="556.3571428571428" /><text class="Features" dominant-baseline="middle" fill="#000000" text-anchor="start" x="135.5" y="568.5"><tspan x="146.0" xml:space="preserve" y="580.6428571428571">VALUE A_1</tspan></text><use height="20" width="20" x="125.0" xlink:href="#EnumerationFeatureSymbol" y="570.6428571428571" /><text class="Features" dominant-baseline="middle" fill="#000000" text-anchor="start" x="135.5" y="582.7857142857143"><tspan x="146.0" xml:space="preserve" y="593.5">VALUE B</tspan></text><use height="20" width="20" x="125.0" xlink:href="#EnumerationFeatureSymbol" y="583.5" /><text class="Features" dominant-baseline="middle" fill="#000000" text-anchor="start" x="135.5" y="594.2142857142858"><tspan x="146.0" xml:space="preserve" y="604.9285714285714">VALUE C</tspan></text><use height="20" width="20" x="125.0" xlink:href="#EnumerationFeatureSymbol" y="594.9285714285714" /><text class="Features" dominant-baseline="middle" fill="#000000" text-anchor="start" x="135.5" y="605.6428571428572"><tspan x="146.0" xml:space="preserve" y="616.3571428571429">VALUE D</tspan></text><use height="20" width="20" x="125.0" xlink:href="#EnumerationFeatureSymbol" y="606.3571428571429" /><text class="Features" dominant-baseline="middle" fill="#000000" text-anchor="start" x="135.5" y="617.0714285714287"><tspan x="146.0" xml:space="preserve" y="627.7857142857143">VALUE E</tspan></text><use height="20" width="20" x="125.0" xlink:href="#EnumerationFeatureSymbol" y="617.7857142857143" /></g><g class="Box Enumeration context-2d646411-731b-4e6d-a90b-6ea04abecc4b" id="2d646411-731b-4e6d-a90b-6ea04abecc4b"><rect class="Enumeration" fill="#E8E0D2" height="78" stroke="#676767" stroke-width="1" width="105" x="243.5" y="528.5" /><text class="Enumeration" dominant-baseline="middle" fill="#000000" text-anchor="middle" x="248" y="533"><tspan x="306.0" xml:space="preserve" y="541.8571428571429">EnumExample_2</tspan></text><use height="20" width="20" x="248.5" xlink:href="#EnumerationSymbol" y="531.8571428571429" /><line stroke="#676767" x1="243.5" x2="348.5" y1="554.2142857142857" y2="554.2142857142857" /><text class="Features" dominant-baseline="middle" fill="#000000" text-anchor="start" x="255.5" y="554.2142857142857"><tspan x="266.0" xml:space="preserve" y="566.3571428571428">DEFAULT_2</tspan></text><use height="20" width="20" x="245.0" xlink:href="#EnumerationFeatureSymbol" y="556.3571428571428" /><text class="Features" dominant-baseline="middle" fill="#000000" text-anchor="start" x="255.5" y="568.5"><tspan x="266.0" xml:space="preserve" y="580.6428571428571">VALUE A_2</tspan></text><use height="20" width="20" x="245.0" xlink:href="#EnumerationFeatureSymbol" y="570.6428571428571" /></g><g class="Box Enumeration context-d5623fcf-dad9-48a5-a649-f2c791ac98c8" id="d5623fcf-dad9-48a5-a649-f2c791ac98c8"><rect class="Enumeration" fill="#E8E0D2" height="78" stroke="#676767" stroke-width="1" width="105" x="362.5" y="528.5" /><text class="Enumeration" dominant-baseline="middle" fill="#000000" text-anchor="middle" x="367" y="533"><tspan x="425.0" xml:space="preserve" y="541.8571428571429">EnumExample_3</tspan></text><use height="20" width="20" x="367.5" xlink:href="#EnumerationSymbol" y="531.8571428571429" /><line stroke="#676767" x1="362.5" x2="467.5" y1="554.2142857142857" y2="554.2142857142857" /><text class="Features" dominant-baseline="middle" fill="#000000" text-anchor="start" x="374.5" y="554.2142857142857"><tspan x="385.0" xml:space="preserve" y="566.3571428571428">DEFAULT_3</tspan></text><use height="20" width="20" x="364.0" xlink:href="#EnumerationFeatureSymbol" y="556.3571428571428" /><text class="Features" dominant-baseline="middle" fill="#000000" text-anchor="start" x="374.5" y="568.5"><tspan x="385.0" xml:space="preserve" y="580.6428571428571">VALUE A_3</tspan></text><use height="20" width="20" x="364.0" xlink:href="#EnumerationFeatureSymbol" y="570.6428571428571" /></g><g class="Box Enumeration context-1f6a60f6-0563-44c4-a0c0-fa24378f1bd4" id="1f6a60f6-0563-44c4-a0c0-fa24378f1bd4"><rect class="Enumeration" fill="#E8E0D2" height="78" stroke="#676767" stroke-width="1" width="105" x="482.5" y="528.5" /><text class="Enumeration" dominant-baseline="middle" fill="#000000" text-anchor="middle" x="487" y="533"><tspan x="545.0" xml:space="preserve" y="541.8571428571429">EnumExample_4</tspan></text><use height="20" width="20" x="487.5" xlink:href="#EnumerationSymbol" y="531.8571428571429" /><line stroke="#676767" x1="482.5" x2="587.5" y1="554.2142857142857" y2="554.2142857142857" /><text class="Features" dominant-baseline="middle" fill="#000000" text-anchor="start" x="494.5" y="554.2142857142857"><tspan x="505.0" xml:space="preserve" y="566.3571428571428">DEFAULT_4</tspan></text><use height="20" width="20" x="484.0" xlink:href="#EnumerationFeatureSymbol" y="556.3571428571428" /><text class="Features" dominant-baseline="middle" fill="#000000" text-anchor="start" x="494.5" y="568.5"><tspan x="505.0" xml:space="preserve" y="580.6428571428571">VALUE A_4</tspan></text><use height="20" width="20" x="484.0" xlink:href="#EnumerationFeatureSymbol" y="570.6428571428571" /></g><g class="Box PrimitiveClass context-cdfea28e-21a8-4643-81e4-cea184756733" id="cdfea28e-21a8-4643-81e4-cea184756733"><rect class="PrimitiveClass" fill="#E8E0D2" height="55" stroke="#676767" stroke-width="1" width="141" x="601.5" y="528.5" /><text class="PrimitiveClass" dominant-baseline="middle" fill="#000000" text-anchor="middle" x="645" y="533"><tspan x="672.0" xml:space="preserve" y="539.7142857142857">Primitive</tspan></text><line stroke="#676767" x1="601.5" x2="742.5" y1="549.9285714285714" y2="549.9285714285714" /><text class="Features" dominant-baseline="middle" fill="#000000" text-anchor="start" x="613.5" y="549.9285714285714"><tspan x="613.5" xml:space="preserve" y="562.7857142857143">[1..*] ex: EnumExample</tspan></text></g><g class="Box Enumeration context-96e696c3-cd4a-481d-a3e5-f5ecbce9233c" id="96e696c3-cd4a-481d-a3e5-f5ecbce9233c"><rect class="Enumeration" fill="#E8E0D2" height="78" stroke="#676767" stroke-width="1" width="105" x="758.5" y="528.5" /><text class="Enumeration" dominant-baseline="middle" fill="#000000" text-anchor="middle" x="763" y="533"><tspan x="821.0" xml:space="preserve" y="541.8571428571429">EnumExample_5</tspan></text><use height="20" width="20" x="763.5" xlink:href="#EnumerationSymbol" y="531.8571428571429" /><line stroke="#676767" x1="758.5" x2="863.5" y1="554.2142857142857" y2="554.2142857142857" /><text class="Features" dominant-baseline="middle" fill="#000000" text-anchor="start" x="770.5" y="554.2142857142857"><tspan x="781.0" xml:space="preserve" y="566.3571428571428">DEFAULT_5</tspan></text><use height="20" width="20" x="760.0" xlink:href="#EnumerationFeatureSymbol" y="556.3571428571428" /><text class="Features" dominant-baseline="middle" fill="#000000" text-anchor="start" x="770.5" y="568.5"><tspan x="781.0" xml:space="preserve" y="580.6428571428571">VALUE A_5</tspan></text><use height="20" width="20" x="760.0" xlink:href="#EnumerationFeatureSymbol" y="570.6428571428571" /></g></svg>
